<?xml version="1.0" encoding="utf-8"?>
<!-- Generator: Adobe Illustrator 17.0.0, SVG Export Plug-In . SVG Version: 6.00 Build 0)  -->
<!DOCTYPE svg PUBLIC "-//W3C//DTD SVG 1.1//EN" "http://www.w3.org/Graphics/SVG/1.1/DTD/svg11.dtd">
<svg version="1.1" id="Capa_1" xmlns="http://www.w3.org/2000/svg" xmlns:xlink="http://www.w3.org/1999/xlink" x="0px" y="0px"
	 width="232.951px" height="232.951px" viewBox="0 0 232.951 232.951" enable-background="new 0 0 232.951 232.951"
	 xml:space="preserve">
<g>
	<path fill="#ECECEC" d="M232.951,223.828c0,5.038-4.084,9.123-9.123,9.123H9.123c-5.038,0-9.123-4.084-9.123-9.123V9.123
		C0,4.084,4.084,0,9.123,0h214.705c5.038,0,9.123,4.084,9.123,9.123V223.828z"/>
	<g>
		<path fill="#4D4C4C" d="M101.031,28.717c-2.821,2.036-5.977,3.651-8.152,6.498c-6.192,6.151-9.473,13.799-11.37,22.153
			c-0.127,0.558-0.19,1.168,0.416,1.565c1.539,1.626,2.355,3.601,3.332,5.6c1.441,2.947-0.712,4.241-1.516,6.178
			c-0.42,1.011-0.798,1.98-0.744,3.099c0.026,0.53,0.158,1.313-0.749,1.238c-0.688-0.057-1.327-0.415-1.247-1.261
			c0.109-1.147,0.311-2.285,0.473-3.427c1.311-1.033,2.362-2.262,2.86-3.888c0.145-0.473,0.268-1.081-0.185-1.367
			c-0.512-0.323-1.043,0.148-1.197,0.557c-1.059,2.825-3.351,4.022-6.039,4.74c-2.488-0.6-3.554-2.455-3.954-4.736
			c-0.479-2.724,0.112-5.162,2.58-6.778c0.775-0.508,1.452-0.864,1.615-1.959c0.812-5.454,2.784-10.551,5.012-15.558
			c2.788-4.927,6.536-9.032,10.847-12.653C95.686,28.717,98.358,28.717,101.031,28.717z"/>
		<path fill="#4D4C4C" d="M119.071,28.717c1.318,2.173,3.785,3.343,5.015,5.697c-5.365-0.013-9.672-2.325-13.534-5.697
			C113.392,28.717,116.232,28.717,119.071,28.717z"/>
		<path fill="#CAC9C9" d="M106.941,33.216c1.852,0.333,3.594-0.593,5.438-0.462c1.272,0.09,2.342,0.046,1.812,1.968
			c-0.43,1.558,0.509,2.711,1.985,3.319c2.689,1.109,5.421,2.08,8.271,2.719c7.953,1.781,15.055,5.312,21.875,9.794
			c8.366,5.499,10.516,14.284,13.293,22.828c0.916,2.819,1.943,5.667,1.563,8.753c-0.565,4.592-1.084,9.191-1.622,13.786
			c-1.406-0.773-1.435-2.317-1.945-3.57c-1.358-3.334-5.59-5.936-8.439-5.283c-8.716,1.998-15.597,7.197-22.099,12.888
			c-5.152,4.509-9.347,10.031-15.125,13.934c-4.779,3.228-10.009,3.516-14.224-0.276c-1.442-1.297-3.192-2.754-3.216-5.138
			c-0.041-3.996,0.29-7.969,0.922-11.899c0.707-4.398,1.277-8.71-0.826-12.933c-1.581-3.175-3.546-6.022-6.285-8.292
			c-1.442-1.195-1.727-2.66-0.89-4.237c1.37-2.58,1.522-5.411,1.008-8.057c-0.918-4.727,0.619-8.78,2.296-12.986
			c0.635-1.593,2.258-2.851,1.88-4.834c-0.036-0.407,0.084-0.736,0.466-0.935c0.948-0.093,1.437-0.602,1.426-1.568l0,0.002
			c0.724-0.235,1.038-0.749,1.016-1.492c0.337-0.353,0.675-0.705,1.01-1.059C99.472,37.074,102.397,33.937,106.941,33.216z"/>
		<path fill="#4D4C4C" d="M158.197,171.56c3.328-7.029,6.661-14.055,9.981-21.087c2.826-5.988,5.628-11.987,8.462-17.971
			c0.491-1.037,0.886-2.172,2.022-2.747c0.425,1.291,1.109,1.283,1.99,0.411c0.887-0.877,1.764-1.756,2.98-2.207
			c4.707-1.745,9.496-3.207,14.061-5.408c5.07-2.444,10.461-4.22,15.712-6.287c1.665,0.611,0.89,1.713,0.439,2.614
			c-4.007,8.015-7.609,16.222-11.659,24.221c-4.832,9.543-9.325,19.259-13.933,28.915c-0.661,1.386-1.353,2.668-2.926,3.179
			c-2.711-3.645-6.363-5.495-10.805-6.413c-2.21-0.457-4.427-0.508-6.605-0.933c-4.034-0.787-4.912-0.332-6.504,3.284
			c-3.65,8.29-7.535,16.47-11.552,24.588c-1.472,2.974-2.385,6.357-6.206,7.311c-0.369-0.135-0.737-0.27-1.106-0.405
			c0.108-1.728-0.437-2.532-2.425-2.73c-2.679-0.267-5.43-0.329-8.032-1.209c1.381-1.344,3.329-0.157,4.901-1.242
			c4.098-2.826,8.37-5.401,12.541-8.124c0.687-0.449,1.521-0.965,1.324-2.278c-4.7,2.859-9.275,5.52-13.708,8.401
			c-1.623,1.055-2.882,2.798-4.778,0.537c-0.057-0.068-0.442,0.088-0.64,0.2c-1.392,0.788-2.578,0.29-4.051-0.532
			c0.995-0.536,1.702-0.955,2.439-1.307c2.323-1.11,2.886-2.053,2.766-4.633c-0.008-0.175,0.226-0.513,0.359-0.519
			c0.82-0.037,1.374-0.432,1.049-1.216c-0.349-0.844-1.244-0.955-2.106-0.868c-0.188-0.183-0.375-0.365-0.563-0.548
			c-0.059-0.154-0.076-0.313-0.051-0.476c0.92-0.44,2.767,1.065,2.761-1.316c2.821-0.685,5.3-2.443,8.149-2.835
			c0.449,0.784-1.068,1.19-0.246,1.48c0.993,0.35,2.203,0.083,3.505,0.083c-0.54-0.697-1.498-0.037-1.818-1.031
			c2.119-0.488,3.484-2.564,5.459-2.762c1.697-0.171,1.849-1.087,2.257-2.152c0.225-0.06,0.45-0.12,0.675-0.18
			c-0.042-0.066-0.084-0.132-0.127-0.198c-0.181,0.128-0.363,0.256-0.544,0.383c-0.589-0.344-2.064,0.524-1.68-0.011
			c1.114-1.549-0.289-1.47-0.817-1.99c-0.033-0.202-0.065-0.404-0.098-0.606c0.316-0.994-0.845-1.567-0.745-2.471
			c2.647-1.033,5.222,0.206,7.82,0.105C156.96,172.546,158.074,173.05,158.197,171.56z"/>
		<path fill="#CAC9C9" d="M82.166,41.37c-2.228,5.007-4.201,10.103-5.012,15.558c-0.163,1.095-0.84,1.451-1.615,1.959
			c-2.468,1.616-3.059,4.054-2.58,6.778c0.401,2.28,1.466,4.136,3.954,4.736c0.148,0.502,1.143,0.532,0.744,1.338
			c-1.783,0.48-1.232,2.466-2.23,3.453c-0.821,0.377-1.641,0.754-2.462,1.13c-0.891,0.018-1.404,0.472-1.553,1.347
			c-1.673,1.46-3.379,2.908-4.121,5.103c-2.177,6.446-1.865,12.735,1.48,18.72c1.903,3.404,4.726,5.74,8.674,6.491
			c2.396,2.914,5.577,3.921,9.222,3.8c2.21,2.991,4.367,6.024,6.646,8.962c2.528,3.258,5.168,6.428,7.759,9.637
			c-0.651,2.392-2.305,3.831-4.583,4.494c-5.645,1.642-11.258,1.67-16.875-0.327c-2.106-0.749-4.086-1.738-6.134-2.591
			c-3.867-4.226-7.984-8.219-10.999-13.186c-4.977-8.198-7.701-16.965-8.119-26.598c-0.646-14.893,4.323-27.789,13.409-39.235
			c3.63-4.573,8.085-8.395,13.218-11.313C81.323,41.435,81.772,41.45,82.166,41.37z"/>
		<path fill="#CAC9C9" d="M131.573,186.081c-0.024,0.163-0.007,0.322,0.051,0.476c-0.895,1.095-1.527,0.086-2.27-0.258
			c-1.121-0.519-1.884-1.877-3.402-1.473c-0.117-0.114-0.256-0.186-0.416-0.218c-1.481-2.419-3.831-3.246-6.475-3.536
			c-0.055-0.046-0.109-0.092-0.164-0.138c0.062,0.039,0.125,0.078,0.187,0.116c0.835,1.048,1.882,1.827,3.078,2.415
			c0.128,0.088,0.27,0.133,0.426,0.136l-0.047-0.049c0.183,0.184,0.366,0.368,0.549,0.552l-0.054-0.036
			c1.062,0.862,2.125,1.724,3.187,2.587c0.155,0.474,0.309,0.948,0.464,1.422c-2.099,0.009-3.821-0.983-5.537-2.037
			c-3.007-1.847-5.942-3.907-9.864-3.852c0.882,1.764,2.596,2.092,3.977,2.879c0.082,1.527,1.962,1.679,2.302,3.009
			c-0.981,1.762-2.098,0.742-3.125,0.104c-2.735-1.701-5.207-4.338-8.668-4c-4.468,0.437-9.034-0.172-13.392,1.007
			c-2.147,0.581-4.736-0.312-6.447,1.798c-0.477,0.014-0.953,0.029-1.43,0.043c-1.917-0.994-4.137-0.806-6.039-0.701
			c-6.724,0.368-13.398,0.563-20.053-0.659c-0.606-0.111-1.25-0.119-1.417,0.621c-0.526,2.327-2.407,4.243-2.065,6.829
			c-2.404,2.095-5.703,2.348-8.318,4.048c-1.229,0.799-2.7,1.215-4.024,1.88c-0.787,0.395-1.503,0.663-2.261,0.007
			c0.175-0.359,0.54-0.743,0.497-1.073c-1.1-8.332-0.438-16.625,0.476-24.915c0.645-3.541,1.289-7.082,1.934-10.623
			c0.644-1.611,1.226-3.237,1.273-5c0.767-0.34,1.014-1.086,1.288-1.764c3.199-7.916,8.962-13.409,16.375-17.331
			c1.238-0.655,2.267-1.713,3.721-1.952c0.047,0.531-0.125,0.979-0.506,1.349c-2.377,2.306-3.111,5.167-2.968,8.389
			c0.346,7.766,1.587,15.417,2.822,23.073c0.717,4.444,1.815,8.528,7.176,9.39c0.552,0.165,1.096,0.427,1.659,0.48
			c5.025,0.475,9.974-0.639,14.973-0.758c0.321-0.008,0.639-0.173,0.959-0.266c1.603,1.208,3.231-0.006,4.816-0.069
			c4.217-0.167,8.467-0.124,12.643-0.926c2.266,0.271,4.432-0.405,6.638-0.699c1.525-0.082,3.05-0.165,4.576-0.247
			c1.698,0.667,3.492,0.239,5.229,0.456c0.712,1.098,1.964,1.476,2.943,2.217c1.625,1.229,3.771,1.801,4.808,3.777
			c-1.082,0.281-1.885-0.419-2.803-0.76c-1.303-0.484-2.214-1.814-3.771-1.727c-0.132-1.3-1.307-1.573-2.163-1.741
			c-2.232-0.437-4.48-1.075-7.298-0.545c3.396,1.077,6.637,0.897,9.477,2.269c1.163,1.728,3.074,2.618,4.52,4.029
			C130.273,184.75,130.923,185.415,131.573,186.081z"/>
		<path fill="#A5A5A5" d="M92.613,45.24c0.378,1.982-1.245,3.241-1.88,4.834c-1.677,4.206-3.214,8.259-2.296,12.986
			c0.514,2.647,0.362,5.478-1.008,8.057c-0.837,1.577-0.553,3.041,0.89,4.237c2.74,2.27,4.705,5.117,6.285,8.292
			c2.102,4.223,1.533,8.535,0.826,12.933c-0.632,3.93-0.963,7.904-0.922,11.899c0.025,2.384,1.775,3.841,3.216,5.138
			c4.215,3.791,9.445,3.503,14.224,0.276c5.779-3.903,9.974-9.424,15.125-13.934c6.502-5.691,13.383-10.89,22.099-12.888
			c2.849-0.653,7.081,1.949,8.439,5.283c0.51,1.253,0.539,2.797,1.945,3.57c-1.557,8.449-4.576,16.284-9.737,23.222
			c-0.493,0.662-0.851,1.444-1.654,1.824c-0.222-1.215,0.239-2.321,0.676-3.382c0.718-1.743,0.771-3.534,0.83-5.376
			c0.071-2.218-1.16-2.526-2.876-2.249c-1.017,0.164-1.767,0.84-2.522,1.524c-2.806,2.541-5.353,5.347-8.132,7.924
			c-4.814,4.464-9.81,8.141-16.302,9.537c-1.583,0.34-2.732,1.302-3.144,2.891c-0.477,1.843-0.811,3.723-1.207,5.586
			c-4.283-1.758-8.057-4.419-11.254-7.63c-5.217-5.241-9.676-11.16-13.706-17.38c1.439,0.028,1.801-0.478,1.01-1.786
			c-1.618-2.679-1.343-5.274,0.34-7.876c0.777-1.201,1.598-2.488,1.357-4.074c0.195-0.768,0.39-1.536,0.584-2.305
			c1.064-0.542,0.628-1.4,0.464-2.201c0.005-0.28,0.011-0.561,0.016-0.841c1.412-1.581,0.926-3.497,0.526-5.144
			c-1.148-4.731-3.58-8.706-7.651-11.591c-2.591-1.836-2.892-3.769-1.099-6.366c1.033-1.496,1.731-3.112,1.377-4.901
			c-0.549-2.771-0.901-5.526-0.439-8.333C87.749,52.542,89.729,48.674,92.613,45.24z"/>
		<path fill="#A5A5A5" d="M72.417,178.594c-5.362-0.862-6.46-4.945-7.176-9.39c-1.235-7.656-2.476-15.307-2.822-23.073
			c-0.144-3.222,0.59-6.083,2.968-8.389c0.381-0.37,0.553-0.818,0.506-1.349c2.529-1.48,5.059-2.959,7.589-4.438
			c2.048,0.853,4.029,1.842,6.134,2.591c5.617,1.998,11.23,1.969,16.875,0.327c2.278-0.663,3.933-2.102,4.583-4.494
			c3.576,3.477,7.557,6.421,11.816,9.001c-1.253,0.617-2.425,1.442-3.867,1.585c-0.932,0.093-0.984,0.724-0.948,1.435
			c-2.718,0-5.437,0-8.591,0c0.684,0.993,1.085,1.575,1.486,2.156c0.044,0.688,0.067,1.391,1.009,1.457
			c0.175,0.323,0.351,0.646,0.526,0.969c-0.4,2.223,0.751,4.016,1.723,5.811c1.491,2.753,3.816,5.268,4.501,8.185
			c0.698,2.976,2.635,3.485,4.672,3.959c4.291,1,4.348,0.884,3.635,5.121c-1.644-0.004-2.803-1.372-4.426-1.519
			c-3.178-0.288-4.933-2.197-5.739-5.196c-0.277-1.03-0.805-1.998-1.266-2.972c-1.7-3.589-3.36-7.2-5.168-10.734
			c-0.579-1.132,0.27-3.289-1.405-3.337c-1.634-0.046-1.878,2.049-2.511,3.361c-0.034,0.071-0.02,0.165-0.028,0.248
			c-1.271,3.587-1.36,7.336-1.516,11.076c-0.877,0.078-1.327-0.217-1.512-1.187c-0.854-4.466-0.387-8.952-0.316-13.431
			c0.004-0.233,0.218-0.455,0.263-0.695c0.303-1.596,2.758-2.614,2.122-3.834c-0.484-0.928-2.843-0.823-4.328-1.303
			c-1.498-0.484-3.21-1.568-2.313,1.538c0.115,0.396-0.194,0.956-0.398,1.397c-1.798,3.886-4.447,7.145-7.41,10.199
			c-4.514,4.652-4.797,4.607-7.709-1.149c-0.826-1.633-2.307-2.641-4.24-2.509c-2.047,0.139-2.751,1.875-3.114,3.415
			c-0.865,3.665,0.058,7.346,1.414,10.63C69.4,168.823,71.319,173.554,72.417,178.594z"/>
		<path fill="#262626" d="M143.654,203.03c3.82-0.953,4.734-4.337,6.206-7.311c4.018-8.118,7.903-16.299,11.552-24.588
			c1.592-3.615,2.47-4.071,6.504-3.284c2.179,0.425,4.395,0.476,6.605,0.933c4.442,0.919,8.094,2.768,10.805,6.413
			c-0.653,0.754-0.173,1.611-0.143,2.394c0.047,1.215-0.37,2.061-1.321,2.771c-6.996,5.225-13.965,10.484-20.971,15.696
			c-2.589,1.927-5.43,3.553-7.838,5.677c-3.257,2.873-6.871,2.73-10.692,2.048C144.125,203.53,143.889,203.28,143.654,203.03z"/>
		<path fill="#262626" d="M41.3,173.064c-0.914,8.29-1.577,16.584-0.476,24.915c0.044,0.33-0.322,0.714-0.497,1.073
			c-2.437,0.997-4.64,2.407-6.819,3.859c-1.254,0.835-2.543,1.502-4.123,1.123c-0.251-2.133-0.443-4.275-0.762-6.398
			c-0.965-6.417-2.999-12.545-5.214-18.613c-0.661-1.812-0.208-3.247,1.448-3.922C30.133,172.951,35.55,171.55,41.3,173.064z"/>
		<path fill="#858584" d="M115.489,137.424c0.396-1.864,0.729-3.744,1.207-5.586c0.412-1.59,1.561-2.551,3.144-2.891
			c6.492-1.396,11.487-5.073,16.302-9.537c2.78-2.577,5.327-5.384,8.132-7.924c0.755-0.684,1.505-1.36,2.522-1.524
			c1.716-0.277,2.947,0.03,2.876,2.249c-0.059,1.842-0.112,3.633-0.83,5.376c-0.437,1.061-0.899,2.167-0.676,3.382
			c-4.282,5.534-9.284,10.308-15.3,13.898c-3.546,2.115-7.266,3.949-11.271,5.103C119.339,139.651,117.282,138.854,115.489,137.424z
			"/>
		<path fill="#4D4C4C" d="M41.3,173.064c-5.751-1.514-11.167-0.114-16.442,2.037c-1.656,0.675-2.109,2.11-1.448,3.922
			c2.215,6.068,4.248,12.195,5.214,18.613c0.319,2.123,0.512,4.265,0.762,6.398c-1.844,0.443-2.868-0.033-2.578-2.174
			c1.409-10.364-3.37-19.25-6.829-28.449c-0.264-0.701-0.547-1.395-0.8-2.1c-1.354-3.786-0.71-5.365,3.005-6.807
			c3.023-1.173,6.113-2.172,9.174-3.249c3.861,1.376,7.725,2.714,11.876,1.186C42.59,165.982,41.945,169.523,41.3,173.064z"/>
		<path fill="#CAC9C9" d="M117.035,170.061c0.714-4.237,0.657-4.122-3.634-5.122c-2.037-0.475-3.974-0.983-4.672-3.959
			c-0.685-2.918-3.01-5.432-4.501-8.185c-0.971-1.794-2.122-3.587-1.723-5.811c2.434,2.882,3.774,6.419,5.696,9.609
			c3.097,5.141,7.643,7.081,13.453,7.554c6.986,0.57,14.149-0.364,20.95,2.24c1.126,0.431,2.296,0.841,2.949,1.696
			c2.648,3.469,6.528,3.036,10.146,3.459c0.822,0.096,1.664,0.016,2.496,0.018c-0.123,1.49-1.237,0.986-2.071,1.019
			c-2.599,0.102-5.173-1.138-7.82-0.105c-0.099,0.904,1.062,1.478,0.745,2.472c-2.394,0.046-3.545-2.385-5.96-3.249
			c0.539,1.645,1.286,2.567,2.254,3.34c0.215,0.251,0.268,0.733,0.787,0.552l-0.059-0.017c-0.518,0.438,0.08,0.937-0.075,1.395
			c-2.057,0.4-3.365-0.801-4.771-2.042c-2.127-1.877-3.53-4.609-6.454-5.557c-0.188-0.148-0.374-0.297-0.56-0.447
			c-0.112-0.206-0.221-0.441-0.458-0.123c-0.01,0.014,0.195,0.188,0.3,0.287c0.156,0.174,0.312,0.349,0.467,0.524
			c1.075,2.196,3.013,3.921,3.513,6.431c-2.768,0.224-3.555-2.111-4.776-3.793c-2.081-2.867-4.564-4.811-8.351-4.217
			c-1.472,0.231-3.14,0.313-3.727,2.006c-0.564,1.626,0.57,2.629,1.735,3.517c0.274,0.32,0.548,0.641,0.822,0.961
			c-1.17,0.741-2.113,0.543-3.027-0.529C119.549,172.624,118.266,171.365,117.035,170.061z M139.139,167.997
			c-0.188-0.124-0.375-0.251-0.57-0.363c-0.011-0.006-0.095,0.116-0.145,0.179c0.221,0.082,0.441,0.163,0.662,0.245
			c0.298,0.616,0.821,0.915,1.467,1.04c0.674,0.823,1.347,1.647,2.021,2.47c0.475,0.037,0.6-0.252,0.608-0.651
			c-0.331-1.267-1.157-1.921-2.462-1.98C140.539,168.043,139.873,167.964,139.139,167.997z"/>
		<path fill="#4D4C4C" d="M142.073,204.05c-10.435,0.021-20.889,0.444-31.297-0.071c-7.78-0.385-15.501-1.98-23.248-3.038
			c-3.295-0.45-6.581-0.987-9.887-1.339c-4.605-0.491-4.612-0.432-4.653-5.032c0,0-0.035,0.032-0.035,0.032
			c2.475,0.328,4.95,0.652,7.424,0.985c10.72,1.444,21.437,2.919,32.162,4.326c5.852,0.768,11.719,1.425,17.579,2.132
			c0.324,0.03,0.649,0.06,0.973,0.09c0.435,0.473,0.982,0.453,1.548,0.355c3.16,0.377,6.32,0.753,9.48,1.13
			C142.147,203.768,142.131,203.912,142.073,204.05z"/>
		<path fill="#858584" d="M92.613,45.24c-2.884,3.434-4.863,7.302-5.597,11.757c-0.462,2.807-0.11,5.562,0.439,8.333
			c0.355,1.789-0.344,3.405-1.377,4.901c-1.793,2.597-1.493,4.529,1.099,6.366c4.07,2.884,6.502,6.86,7.651,11.591
			c0.4,1.648,0.887,3.563-0.524,5.145c-0.351-2.734-0.521-5.509-1.759-8.047c-0.233-0.477-0.09-1.49-1.166-0.92
			c-0.464-0.549-0.862-1.127-0.859-1.889c-0.14-0.179-0.281-0.358-0.421-0.537c-1.439-1.973-2.525-4.306-5.168-5.045
			c-2.315-0.324-4.528-1.321-6.933-1.047c-0.157-0.261-0.313-0.522-0.47-0.783c0.129-0.078,0.259-0.156,0.388-0.233
			c1.477,0.117,2.291-0.349,2.039-2.042c-0.172-1.153-0.157-2.357,1.521-2.43c-0.162,1.142-0.364,2.28-0.473,3.427
			c-0.081,0.846,0.559,1.204,1.247,1.261c0.907,0.075,0.775-0.707,0.749-1.238c-0.055-1.119,0.324-2.088,0.744-3.099
			c0.804-1.937,2.957-3.231,1.516-6.178c-0.977-1.999-1.793-3.973-3.332-5.6c0.701-0.72,1.23-1.537,1.603-2.482
			c1-2.529,2.05-5.039,3.081-7.557c2.333-5.698,5.865-10.526,10.541-14.522c2.416-0.486,4.823-1.022,7.252-1.429
			c0.826-0.139,1.775-0.533,2.539,0.274c-4.544,0.72-7.469,3.858-10.41,6.972c-0.335,0.355-0.673,0.706-1.01,1.059
			c-1.042,0.018-1.043,0.746-1.016,1.492c0,0,0-0.002,0-0.002c-0.988,0.056-1.508,0.538-1.426,1.567
			C92.697,44.504,92.577,44.833,92.613,45.24z"/>
		<path fill="#4D4C4C" d="M115.489,137.424c1.793,1.43,3.849,2.227,6.105,2.545c0.963,1.008,2.168,0.498,3.225,0.383
			c2.531-0.275,5.08-0.742,7.592-0.338c1.294,0.208,1.593-1.302,2.701-1.03c-0.334,0.989-0.668,1.978-1.002,2.967
			c-1.802,0.167-3.633,0.186-5.402,0.529c-4.332,0.838-8.486,0.302-12.555-1.266c-0.897-0.95-2.033-1.474-3.263-1.832
			c-4.259-2.58-8.24-5.525-11.816-9.001c-2.591-3.208-5.231-6.379-7.759-9.637c-2.279-2.938-4.435-5.971-6.646-8.961
			c-0.392-1.477-2.022-2.275-2.14-3.902c0.595-0.317,1.8,1.293,1.858-0.408c0.112-3.291,3.037-4.438,4.662-6.567
			c0.063,0.851-0.116,1.592-0.665,2.308c-2.659,3.468-2.602,5.763,0.147,9.201c4.029,6.22,8.489,12.139,13.706,17.38
			C107.433,133.005,111.206,135.666,115.489,137.424z"/>
		<path fill="#A5A5A5" d="M54.93,193.117c-0.343-2.585,1.539-4.501,2.065-6.829c0.167-0.74,0.811-0.732,1.417-0.621
			c6.655,1.221,13.329,1.027,20.053,0.659c1.902-0.104,4.123-0.292,6.039,0.702c-2.193,1.135-4.657,0.327-6.965,1.057
			c-3.827,1.21-7.713,2.407-11.84,2.009c-0.509-0.049-0.984,0.086-1.304,0.541c-1.89-0.88-3.445,0.122-5.122,0.79
			C57.833,192,56.554,193.015,54.93,193.117z"/>
		<path fill="#858584" d="M64.396,190.635c0.321-0.455,0.796-0.59,1.304-0.541c4.127,0.398,8.012-0.799,11.84-2.009
			c2.308-0.73,4.772,0.078,6.965-1.057c0.477-0.015,0.953-0.029,1.43-0.043c4.403-0.022,8.796,0.332,13.208-0.33
			c2.564-0.385,5.196-1.285,7.841-0.273c-1.915,0.505-3.822,1.046-5.747,1.508c-4.078,0.978-8.154,1.387-12.374,0.711
			c-3.224-0.517-6.496,0.107-9.627,0.965c-1.276,0.35-2.675,0.949-3.389,2.323c-0.334,0.325-0.736,0.262-1.138,0.199
			c-1.656-0.562-3.221-0.235-4.744,0.49C67.765,192.914,66.184,191.476,64.396,190.635z"/>
		<path fill="#CAC9C9" d="M97.15,34.371c-4.677,3.996-8.208,8.825-10.541,14.522c-1.031,2.517-2.081,5.027-3.081,7.557
			c-0.374,0.945-0.902,1.762-1.603,2.482c-0.606-0.396-0.543-1.006-0.416-1.564c1.897-8.354,5.178-16.002,11.37-22.153
			C94.302,34.933,95.726,34.652,97.15,34.371z"/>
		<path fill="#858584" d="M213.404,116.264c-5.251,2.067-10.643,3.843-15.712,6.287c-4.565,2.201-9.354,3.663-14.061,5.408
			c-1.216,0.451-2.093,1.331-2.98,2.207c-0.881,0.871-1.565,0.879-1.99-0.411c0.515-1.77,2.048-2.245,3.532-2.802
			c9.327-3.5,18.645-7.022,27.982-10.494C211.19,116.083,212.263,115.169,213.404,116.264z"/>
		<path fill="#858584" d="M43.234,162.442c-4.151,1.527-8.015,0.19-11.876-1.186c4.251-1.725,8.703-2.76,13.149-3.813
			C44.46,159.204,43.878,160.831,43.234,162.442z"/>
		<path fill="#4D4C4C" d="M135.594,139.027c1.363,0.114,2.157-1.306,3.642-1.204c1.188,0.081,2.167,0.192,2.751,1.244
			c0.421,0.759,0.427,1.68-0.132,2.37c-0.77,0.95-1.775,1.39-2.987,0.702C137.734,141.144,135.22,141.606,135.594,139.027z"/>
		<path fill="#858584" d="M112.89,139.382c1.229,0.358,2.366,0.882,3.263,1.832c-2.624,0.863-5.314,1.276-8.078,1.189
			c-0.036-0.71,0.016-1.342,0.948-1.435C110.465,140.824,111.637,139.998,112.89,139.382z"/>
		<path fill="#4D4C4C" d="M69.964,192.578c1.523-0.725,3.088-1.052,4.743-0.49c-0.723,0.742-1.726,1.289-1.754,2.515
			c0,0,0.035-0.031,0.035-0.032C71.98,193.907,70.972,193.242,69.964,192.578z"/>
		<path fill="#262626" d="M135.594,139.027c-0.374,2.579,2.14,2.118,3.273,3.112c-1.61,0.556-3.195,0.457-4.758-0.187
			c0.334-0.989,0.668-1.978,1.002-2.967C135.273,138.998,135.433,139.012,135.594,139.027z"/>
		<path fill="#A5A5A5" d="M142.073,204.05c0.058-0.139,0.074-0.282,0.047-0.43c0.143-0.332,0.285-0.663,0.428-0.995
			c0.369,0.135,0.737,0.27,1.106,0.405c0.236,0.25,0.471,0.5,0.707,0.75C143.641,204.233,142.864,204.198,142.073,204.05z"/>
		<path fill="#CAC9C9" d="M101.979,146.016c-0.942-0.067-0.965-0.77-1.009-1.457C101.754,144.734,102.012,145.274,101.979,146.016z"
			/>
		<path fill="#262626" d="M81.475,70.359c-1.678,0.073-1.692,1.276-1.521,2.43c0.252,1.694-0.562,2.159-2.039,2.042
			c-0.043-1.034,0.22-2.094-0.257-3.093c0.398-0.806-0.597-0.836-0.744-1.337c2.688-0.717,4.98-1.915,6.039-4.74
			c0.153-0.409,0.685-0.88,1.197-0.557c0.453,0.287,0.33,0.894,0.185,1.367C83.837,68.097,82.786,69.326,81.475,70.359z"/>
		<path fill="#A5A5A5" d="M93.079,44.305c-0.081-1.029,0.438-1.512,1.426-1.567C94.516,43.703,94.026,44.212,93.079,44.305z"/>
		<path fill="#A5A5A5" d="M94.505,42.739c-0.027-0.746-0.026-1.474,1.016-1.492C95.544,41.99,95.229,42.504,94.505,42.739z"/>
		<path fill="#262626" d="M75.846,191.89c0.714-1.375,2.114-1.974,3.39-2.324c3.131-0.858,6.403-1.482,9.627-0.965
			c4.22,0.676,8.296,0.267,12.374-0.711c1.926-0.462,3.832-1.003,5.747-1.507c2.001,0.121,3.475,1.403,5.1,2.338
			c1.065,0.613,2.003,1.481,3.238,1.745c1.946,0.415,2.847-0.572,2.244-2.391c-0.34-1.33-2.22-1.482-2.301-3.009
			c1.263,0.236,2.22,1.064,3.261,1.715c1.469,0.918,2.831,2.036,4.372,2.8c1.86,0.922,3.354,0.22,3.791-1.505
			c-0.155-0.474-0.309-0.948-0.464-1.422c0.277-0.02,0.554-0.04,0.831-0.059c0.794,0.156,1.477,0.496,1.947,1.184
			c0.469,0.851,0.955,1.661,2.091,0.828c0.911-0.103,1.134-0.707,1.093-1.502c0.862-0.087,1.756,0.024,2.106,0.868
			c0.325,0.784-0.229,1.179-1.049,1.216c-0.133,0.006-0.367,0.344-0.359,0.519c0.12,2.58-0.443,3.523-2.766,4.633
			c-0.738,0.353-1.444,0.771-2.439,1.307c1.473,0.822,2.659,1.321,4.051,0.532c0.198-0.112,0.583-0.267,0.64-0.2
			c1.896,2.261,3.156,0.517,4.778-0.537c4.432-2.881,9.008-5.542,13.708-8.401c0.197,1.314-0.637,1.83-1.324,2.278
			c-4.171,2.723-8.443,5.297-12.541,8.124c-1.573,1.085-3.52-0.102-4.901,1.242c-0.328-0.041-0.655-0.083-0.983-0.124
			c-0.717-1.523-1.608-1.241-2.568-0.247c-0.643,0.065-1.287,0.131-1.93,0.196c-0.129-0.666-0.314-1.191-1.025-0.413
			c-1.333-0.158-2.665-0.316-3.998-0.474c-0.729-0.163-1.45-0.385-2.188-0.479c-10.397-1.333-20.788-2.725-31.2-3.932
			C84.088,192.737,80.026,191.733,75.846,191.89z M126.27,195.971c0.022-0.212,0.044-0.423,0.066-0.635
			c-1.077-0.269-2.123-1.259-3.759,0.051C124.131,195.633,125.2,195.802,126.27,195.971z"/>
		<path fill="#262626" d="M123.737,174.515c-0.274-0.32-0.548-0.641-0.822-0.961c1.669-2.459,5.091-2.843,7.488-0.694
			c1.161,1.041,2.027,2.404,3.11,3.542c1.633,1.715,4.003,1.511,4.995-0.364c1.329-0.213,1.765,0.805,2.44,1.636
			c1.424,1.755,3.756,1.385,5.049-0.708c0.155-0.458-0.443-0.956,0.075-1.395c1.025-0.04,2.056,0.729,3.076-0.02
			c0.528,0.52,1.932,0.441,0.817,1.99c-0.384,0.534,1.09-0.334,1.68,0.011l-0.005-0.006c-0.408,1.066-0.56,1.982-2.257,2.152
			c-1.975,0.199-3.341,2.274-5.459,2.762c0.32,0.994,1.277,0.334,1.818,1.031c-1.302,0-2.512,0.267-3.505-0.083
			c-0.822-0.29,0.695-0.696,0.246-1.48c-2.849,0.393-5.328,2.15-8.149,2.835c0.006,2.382-1.841,0.877-2.761,1.316
			c-0.65-0.665-1.3-1.33-1.95-1.995c0.718-0.457,2.706,0.784,2.037-1.525c-1.038-1.976-3.183-2.548-4.808-3.777
			c-0.979-0.741-2.231-1.118-2.943-2.217C125.031,175.609,124.987,175.085,123.737,174.515z"/>
		<path fill="#CAC9C9" d="M131.108,198.562c0.328,0.041,0.655,0.083,0.983,0.124c2.602,0.881,5.352,0.942,8.032,1.209
			c1.989,0.198,2.533,1.002,2.425,2.73c-0.143,0.332-0.285,0.663-0.428,0.995c-3.16-0.377-6.32-0.753-9.48-1.13
			c-0.316-0.992-0.82-1.162-1.548-0.355c-0.324-0.03-0.649-0.06-0.973-0.09c-0.317-1.104-0.792-1.604-2.186-1.756
			c-1.643-0.179-3.257-0.752-4.981-0.738c-1.188,0.01-1.417-0.922-1.365-1.928c1.333,0.158,2.665,0.316,3.998,0.474
			c0.15,0.615,0.58,0.532,1.025,0.413c0.643-0.065,1.287-0.131,1.93-0.196C129.366,198.713,130.233,198.68,131.108,198.562z"/>
		<path fill="#858584" d="M149.149,175.551c-1.021,0.749-2.051-0.02-3.076,0.02c0,0,0.059,0.017,0.059,0.017
			c-0.102-0.412-0.461-0.459-0.787-0.552c-0.968-0.774-1.714-1.695-2.254-3.34c2.416,0.864,3.566,3.295,5.96,3.249
			C149.084,175.147,149.116,175.349,149.149,175.551z"/>
		<path fill="#858584" d="M129.003,187.779c-0.47-0.689-1.152-1.029-1.947-1.184c0.098-0.881-1.031-0.994-1.105-1.768
			c1.519-0.405,2.282,0.953,3.403,1.472c0.742,0.344,1.375,1.352,2.27,0.258c0.188,0.183,0.375,0.365,0.563,0.548
			c0.041,0.796-0.181,1.4-1.092,1.502C130.523,188.015,129.866,187.636,129.003,187.779z"/>
		<path fill="#262626" d="M151.646,177.552c0.181-0.128,0.363-0.256,0.544-0.383c0.042,0.066,0.084,0.132,0.127,0.198
			c-0.225,0.06-0.45,0.12-0.675,0.18C151.641,177.546,151.646,177.552,151.646,177.552z"/>
		<path fill="#4D4C4C" d="M77.526,75.064c0.157,0.261,0.313,0.522,0.47,0.783c0.057,0.926,0.717,0.942,1.419,1.001
			c2.161,0.18,3.941,1.199,5.487,2.651c4.758,4.467,5.128,10.182,4.399,16.118c-0.467,3.801-1.939,7.19-5.011,9.705
			c-0.528,0.432-0.892,0.988-0.904,1.71c-1.829,1.258-3.942,0.745-5.94,0.951c-3.948-0.751-6.771-3.087-8.674-6.491
			c-3.345-5.985-3.657-12.274-1.48-18.72c0.741-2.195,2.448-3.643,4.121-5.103c1.019,0.129,1.352-0.533,1.553-1.347
			c0.821-0.377,1.641-0.754,2.462-1.13C76.128,75.149,76.827,75.106,77.526,75.064z M81.911,80.867
			c-3.421-2.81-8.855-1.884-11.742,2.17c-3.016,4.235-3.522,8.929-1.854,13.811c1.161,3.398,2.958,6.327,6.659,7.521
			c4.64,3.326,11.547-2.464,11.549-6.724c0.001-1.295,0.379-2.671-0.728-3.798c-1.102-1.122-0.945-2.006,0.324-3.098
			c1.318-1.134,1.568-2.655-0.118-3.908c-0.015-0.41,0.061-0.861-0.471-1.036C85.446,83.336,83.824,81.995,81.911,80.867z"/>
		<path fill="#A5A5A5" d="M77.447,107.983c1.998-0.205,4.111,0.308,5.94-0.951c0.381,0.283,0.761,0.565,1.142,0.848
			c0.118,1.627,1.748,2.425,2.14,3.902C83.023,111.903,79.842,110.896,77.447,107.983z"/>
		<path fill="#A5A5A5" d="M77.526,75.064c-0.699,0.042-1.399,0.085-2.098,0.127c0.998-0.987,0.448-2.973,2.23-3.453
			c0.476,0.998,0.213,2.058,0.257,3.093C77.785,74.909,77.656,74.986,77.526,75.064z"/>
		<path fill="#A5A5A5" d="M72.966,76.321c-0.201,0.814-0.534,1.476-1.553,1.347C71.562,76.794,72.075,76.34,72.966,76.321z"/>
		<path fill="#858584" d="M72.417,178.594c-1.098-5.04-3.017-9.772-4.982-14.533c-1.356-3.284-2.279-6.965-1.414-10.63
			c0.363-1.54,1.067-3.276,3.114-3.415c1.934-0.131,3.414,0.876,4.24,2.509c2.912,5.756,3.195,5.801,7.709,1.149
			c2.964-3.054,5.613-6.313,7.41-10.199c0.204-0.441,0.513-1.001,0.398-1.397c-0.897-3.107,0.814-2.022,2.313-1.538
			c1.485,0.479,3.844,0.374,4.328,1.303c0.636,1.22-1.82,2.238-2.122,3.834c-0.046,0.24-0.26,0.463-0.263,0.695
			c-0.072,4.48-0.538,8.966,0.316,13.431c0.185,0.969,0.635,1.265,1.512,1.187c-0.009,0.199,0.282,0.495-0.177,0.548
			c-0.895,5.709-2.238,11.287-4.793,16.514c-0.319,0.092-0.637,0.258-0.959,0.266c-4.999,0.119-9.948,1.232-14.973,0.758
			C73.513,179.021,72.969,178.759,72.417,178.594z"/>
		<path fill="#858584" d="M123.737,174.515c1.25,0.57,1.294,1.093,0.171,2.052c-1.738-0.217-3.531,0.211-5.229-0.456
			c-0.78-1.558-1.765-2.964-3.063-4.139c-0.275-1.059-1.032-1.125-1.621-0.483c-1.328,1.448-3.02,0.838-4.571,1.115
			c-1.123,0.201-1.722-1.465-2.871-0.579c-3.82-1.754-6.343-4.982-9.071-7.979c0.406,0.03,0.828,0.003,1.216,0.104
			c0.641,0.167,1.146,1.234,1.926,0.365c0.623-0.694,0.498-1.579,0.164-2.351c-0.432-0.998-0.645-2.009-0.825-3.085
			c-0.547-3.267-2.06-6.206-3.472-9.167c0.008-0.083-0.006-0.177,0.029-0.248c0.633-1.313,0.877-3.407,2.511-3.361
			c1.675,0.047,0.826,2.205,1.405,3.337c1.808,3.534,3.468,7.145,5.168,10.734c0.461,0.974,0.99,1.942,1.266,2.972
			c0.806,2.998,2.561,4.908,5.739,5.196c1.623,0.147,2.782,1.515,4.426,1.519c1.23,1.304,2.514,2.563,3.675,3.925
			C121.624,175.059,122.567,175.256,123.737,174.515z"/>
		<path fill="#A5A5A5" d="M117.566,188.075c0.603,1.819-0.298,2.807-2.244,2.391c-1.235-0.264-2.173-1.132-3.238-1.745
			c-1.625-0.935-3.1-2.217-5.1-2.338c-2.646-1.013-5.277-0.112-7.841,0.273c-4.412,0.662-8.805,0.308-13.208,0.33
			c1.71-2.111,4.3-1.218,6.446-1.799c4.358-1.18,8.925-0.571,13.392-1.007c3.461-0.338,5.932,2.299,8.668,4
			C115.468,188.817,116.585,189.837,117.566,188.075z"/>
		<path fill="#858584" d="M126.689,188.076c-0.437,1.724-1.931,2.426-3.791,1.505c-1.541-0.764-2.904-1.882-4.372-2.8
			c-1.042-0.651-1.998-1.478-3.261-1.715c-1.381-0.787-3.095-1.115-3.977-2.879c3.922-0.055,6.857,2.005,9.864,3.852
			C122.868,187.093,124.59,188.084,126.689,188.076z"/>
		<path fill="#262626" d="M110.663,175.241c-0.003-0.194-0.006-0.388-0.009-0.582c2.017-0.226,3.701-1.067,4.963-2.687
			c1.298,1.175,2.283,2.581,3.063,4.139c-1.525,0.083-3.05,0.165-4.576,0.247C113.469,174.408,111.96,175.151,110.663,175.241z"/>
		<path fill="#858584" d="M131.66,182.561c0.668,2.309-1.32,1.068-2.037,1.525c-1.446-1.411-3.357-2.301-4.52-4.029l-0.016,0.017
			c1.556-0.087,2.468,1.242,3.771,1.727C129.775,182.141,130.577,182.842,131.66,182.561z"/>
		<path fill="#A5A5A5" d="M125.103,180.056c-2.84-1.372-6.08-1.191-9.477-2.269c2.818-0.53,5.066,0.108,7.298,0.545
			c0.856,0.168,2.031,0.44,2.163,1.741C125.086,180.074,125.103,180.056,125.103,180.056z"/>
		<path fill="#858584" d="M122.164,183.465c-1.196-0.588-2.243-1.367-3.078-2.415l-0.024,0.022c2.644,0.29,4.994,1.117,6.475,3.535
			c-0.833-0.18-1.666-0.36-2.499-0.54c0,0,0.054,0.036,0.054,0.036c-0.183-0.184-0.366-0.368-0.549-0.552
			c0,0,0.047,0.049,0.046,0.05C122.487,183.43,122.397,183.225,122.164,183.465z"/>
		<path fill="#4D4C4C" d="M110.663,175.241c1.297-0.09,2.806-0.833,3.441,1.117c-2.206,0.294-4.372,0.97-6.638,0.699
			C108.309,176.061,109.541,175.748,110.663,175.241z"/>
		<path fill="#4D4C4C" d="M123.038,184.067c0.833,0.18,1.666,0.36,2.499,0.54c0.16,0.032,0.298,0.104,0.416,0.218
			c0.074,0.775,1.203,0.888,1.104,1.769c-0.277,0.02-0.554,0.04-0.831,0.06C125.163,185.792,124.1,184.929,123.038,184.067z"/>
		<path fill="#858584" d="M119.085,181.05c-0.062-0.039-0.125-0.078-0.187-0.116c0.055,0.046,0.109,0.092,0.164,0.138
			C119.062,181.072,119.085,181.05,119.085,181.05z"/>
		<path fill="#4D4C4C" d="M122.164,183.465c0.233-0.24,0.324-0.035,0.426,0.136C122.434,183.598,122.292,183.553,122.164,183.465z"
			/>
		<path fill="#4D4C4C" d="M122.543,183.551c0.183,0.184,0.366,0.368,0.549,0.552C122.909,183.919,122.726,183.735,122.543,183.551z"
			/>
		<path fill="#858584" d="M90.53,112.414c-2.749-3.438-2.806-5.733-0.147-9.201c0.549-0.716,0.728-1.457,0.665-2.308
			c0.169-0.325,0.338-0.65,0.507-0.975c0.844-0.037,1.02-0.972,1.683-1.253c0.241,1.586-0.58,2.873-1.357,4.074
			c-1.683,2.602-1.959,5.197-0.34,7.876C92.331,111.935,91.97,112.442,90.53,112.414z"/>
		<path fill="#4D4C4C" d="M93.238,98.677c-0.663,0.281-0.839,1.215-1.683,1.252c0.013-2.579,1.474-4.972,0.977-7.617
			c1.17-2.13-0.523-3.985-0.576-5.998c-0.192-0.65-0.385-1.301-0.577-1.951c1.076-0.57,0.934,0.443,1.166,0.92
			c1.238,2.538,1.409,5.313,1.759,8.047c-0.007,0.28-0.012,0.56-0.016,0.841c-0.946,0.566-0.965,1.328-0.465,2.2
			C93.627,97.141,93.433,97.909,93.238,98.677z"/>
		<path fill="#858584" d="M93.822,96.373c-0.5-0.872-0.481-1.634,0.465-2.2C94.45,94.973,94.886,95.831,93.822,96.373z"/>
		<path fill="#4D4C4C" d="M97.483,164.046c-0.895-0.836-1.791-1.672-2.684-2.509c0.46-0.055,0.169-0.351,0.178-0.549
			c0.156-3.74,0.244-7.489,1.515-11.076c1.412,2.961,2.925,5.899,3.472,9.167c0.18,1.076,0.393,2.087,0.825,3.085
			c0.335,0.773,0.459,1.657-0.164,2.351c-0.78,0.87-1.285-0.198-1.926-0.365C98.311,164.049,97.889,164.077,97.483,164.046z"/>
		<path fill="#A5A5A5" d="M138.509,176.038c-0.992,1.875-3.362,2.079-4.995,0.364c-1.083-1.138-1.948-2.502-3.11-3.542
			c-2.397-2.148-5.82-1.764-7.488,0.694c-1.164-0.888-2.299-1.892-1.735-3.517c0.587-1.693,2.255-1.775,3.727-2.006
			c3.787-0.594,6.27,1.35,8.351,4.217c1.221,1.682,2.008,4.017,4.776,3.793c0,0,0.237,0.021,0.237,0.021L138.509,176.038z"/>
		<path fill="#858584" d="M138.509,176.038l-0.237,0.023c0,0-0.237-0.021-0.237-0.021c-0.5-2.51-2.438-4.235-3.513-6.431
			c0.084-0.081,0.169-0.162,0.252-0.243c2.923,0.949,4.326,3.681,6.453,5.558c1.406,1.241,2.713,2.442,4.771,2.042
			c-1.293,2.093-3.625,2.463-5.049,0.708C140.274,176.843,139.837,175.826,138.509,176.038z"/>
		<path fill="#A5A5A5" d="M140.722,168.935c1.303,0.062,2.129,0.715,2.459,1.983c-0.203,0.217-0.405,0.434-0.607,0.65
			c-0.674-0.823-1.347-1.647-2.021-2.47L140.722,168.935z"/>
		<path fill="#A5A5A5" d="M140.553,169.099c-0.646-0.126-1.169-0.424-1.467-1.04l0.054-0.062c0.733-0.032,1.399,0.047,1.581,0.94
			C140.722,168.935,140.553,169.099,140.553,169.099z"/>
		<path fill="#A5A5A5" d="M139.086,168.058c-0.221-0.082-0.441-0.163-0.662-0.245c0.05-0.063,0.134-0.185,0.145-0.179
			c0.195,0.112,0.382,0.239,0.57,0.362C139.14,167.996,139.086,168.058,139.086,168.058z"/>
		<path fill="#262626" d="M145.345,175.036c0.326,0.093,0.685,0.139,0.787,0.552C145.613,175.77,145.56,175.287,145.345,175.036z"/>
		<path fill="#858584" d="M142.574,171.569c0.202-0.217,0.405-0.433,0.607-0.65C143.174,171.317,143.049,171.606,142.574,171.569z"
			/>
		<path fill="#858584" d="M134.054,169.086c-0.105-0.099-0.31-0.274-0.3-0.287c0.237-0.318,0.346-0.084,0.457,0.124
			C134.209,168.924,134.054,169.086,134.054,169.086z"/>
		<path fill="#858584" d="M134.522,169.609c-0.156-0.175-0.311-0.35-0.467-0.524c0,0,0.155-0.161,0.156-0.163
			c0.188,0.148,0.374,0.297,0.562,0.445C134.691,169.448,134.606,169.529,134.522,169.609z"/>
		<path fill="#A5A5A5" d="M121.587,197.624c-0.052,1.006,0.176,1.938,1.365,1.928c1.724-0.014,3.338,0.559,4.981,0.738
			c1.394,0.152,1.868,0.652,2.186,1.756c-5.86-0.707-11.727-1.364-17.579-2.132c-10.725-1.408-21.442-2.882-32.162-4.326
			c-2.474-0.333-4.949-0.657-7.424-0.985c0.028-1.226,1.031-1.772,1.754-2.515c0.404,0.063,0.806,0.126,1.139-0.199
			c4.18-0.156,8.241,0.847,12.353,1.324c10.412,1.207,20.802,2.598,31.2,3.932C120.136,197.239,120.858,197.461,121.587,197.624z"/>
		<path fill="#A5A5A5" d="M131.092,202.136c0.728-0.808,1.232-0.637,1.548,0.355C132.074,202.588,131.526,202.609,131.092,202.136z"
			/>
		<path fill="#262626" d="M92.531,92.313c0.497,2.644-0.963,5.038-0.977,7.617c-0.169,0.325-0.338,0.65-0.507,0.975
			c-1.625,2.13-4.549,3.277-4.661,6.568c-0.058,1.702-1.263,0.091-1.858,0.408c-0.381-0.283-0.761-0.566-1.142-0.848
			c0.012-0.723,0.376-1.278,0.904-1.71c3.072-2.515,4.544-5.904,5.011-9.705c0.729-5.936,0.359-11.651-4.399-16.118
			c-1.546-1.452-3.326-2.471-5.487-2.651c-0.701-0.058-1.362-0.075-1.419-1.001c2.405-0.275,4.618,0.722,6.933,1.047
			c2.144,3.084,4.817,5.841,5.899,9.578c0.194,1.191,0.415,2.378,0.573,3.573C91.521,90.944,91.129,92.065,92.531,92.313z"/>
		<path fill="#A5A5A5" d="M90.829,86.472c-1.082-3.737-3.755-6.495-5.899-9.578c2.643,0.739,3.729,3.072,5.168,5.045
			c0.14,0.179,0.281,0.358,0.422,0.537c-0.003,0.762,0.395,1.34,0.859,1.889c0.192,0.65,0.384,1.301,0.577,1.951
			C91.58,86.368,91.204,86.42,90.829,86.472z"/>
		<path fill="#4D4C4C" d="M90.519,82.476c-0.141-0.179-0.281-0.358-0.422-0.537C90.238,82.118,90.378,82.297,90.519,82.476z"/>
		<path fill="#4D4C4C" d="M126.27,195.971c-1.069-0.169-2.139-0.338-3.693-0.584c1.636-1.31,2.682-0.32,3.759-0.051
			C126.314,195.548,126.292,195.76,126.27,195.971z"/>
		<path fill="#4D4C4C" d="M131.108,198.562c-0.875,0.118-1.742,0.151-2.568-0.247C129.5,197.321,130.391,197.039,131.108,198.562z"
			/>
		<path fill="#4D4C4C" d="M129.003,187.779c0.863-0.143,1.519,0.236,2.091,0.828C129.958,189.439,129.473,188.629,129.003,187.779z"
			/>
		<path fill="#4D4C4C" d="M126.61,198.511c-0.445,0.119-0.875,0.202-1.025-0.413C126.295,197.319,126.481,197.844,126.61,198.511z"
			/>
		<path fill="#A5A5A5" d="M74.975,104.368c-3.701-1.194-5.498-4.123-6.659-7.521c-1.668-4.882-1.162-9.576,1.854-13.811
			c2.887-4.054,8.321-4.98,11.742-2.17c-1.502,0.328-2.037,1.387-1.693,2.73c0.278,1.085,4.214,2.59,5.314,2.208
			c0.532,0.175,0.456,0.626,0.471,1.036c0.019,1.399-0.645,1.608-1.919,1.329c-2.661-0.582-3.454,0.119-3.603,2.785
			c-0.111,1.998,0.6,3.743,1.532,5.425c1.492,2.69,0.929,4.493-1.738,6.124C78.618,103.517,76.66,103.522,74.975,104.368z
			 M78.079,90.699c-0.519-1.188,0.815-3.455-1.127-3.518c-1.976-0.064-1.528,2.2-1.455,3.594c0.066,1.243-0.816,3.423,1.258,3.394
			C78.821,94.139,77.625,91.924,78.079,90.699z"/>
		<path fill="#858584" d="M74.975,104.368c1.685-0.846,3.643-0.852,5.3-1.865c2.667-1.631,3.23-3.434,1.738-6.124
			c-0.933-1.682-1.644-3.427-1.532-5.425c0.149-2.666,0.942-3.367,3.603-2.785c1.274,0.279,1.938,0.07,1.919-1.329
			c1.686,1.253,1.435,2.774,0.118,3.908c-1.269,1.092-1.426,1.975-0.324,3.098c1.107,1.127,0.728,2.503,0.728,3.798
			C86.522,101.904,79.614,107.695,74.975,104.368z"/>
		<path fill="#CAC9C9" d="M85.532,85.804c-1.099,0.383-5.036-1.123-5.314-2.208c-0.344-1.343,0.191-2.401,1.693-2.73
			C83.824,81.995,85.446,83.336,85.532,85.804z"/>
		<path fill="#4D4C4C" d="M115.616,171.972c-1.262,1.621-2.946,2.462-4.963,2.687c-1.732-0.309-3.07-1.232-4.1-2.634
			c1.148-0.886,1.747,0.78,2.871,0.579c1.551-0.277,3.244,0.333,4.571-1.115C114.584,170.847,115.341,170.913,115.616,171.972z"/>
		<path fill="#858584" d="M90.829,86.472c0.376-0.052,0.751-0.105,1.126-0.157c0.053,2.012,1.746,3.868,0.576,5.997
			c-1.402-0.248-1.01-1.369-1.129-2.267C91.244,88.85,91.023,87.663,90.829,86.472z"/>
		<path fill="#CAC9C9" d="M78.079,90.699c-0.454,1.225,0.742,3.44-1.323,3.47c-2.074,0.03-1.192-2.15-1.258-3.394
			c-0.074-1.394-0.522-3.658,1.455-3.594C78.895,87.244,77.56,89.511,78.079,90.699z"/>
	</g>
</g>
</svg>
