<?xml version="1.0" encoding="utf-8"?>
<!-- Generator: Adobe Illustrator 17.0.0, SVG Export Plug-In . SVG Version: 6.00 Build 0)  -->
<!DOCTYPE svg PUBLIC "-//W3C//DTD SVG 1.1//EN" "http://www.w3.org/Graphics/SVG/1.1/DTD/svg11.dtd">
<svg version="1.1" id="Capa_1" xmlns="http://www.w3.org/2000/svg" xmlns:xlink="http://www.w3.org/1999/xlink" x="0px" y="0px"
	 width="232.951px" height="232.951px" viewBox="0 0 232.951 232.951" enable-background="new 0 0 232.951 232.951"
	 xml:space="preserve">
<path fill="#ECECEC" d="M232.951,223.828c0,5.038-4.084,9.123-9.123,9.123H9.123c-5.038,0-9.123-4.084-9.123-9.123V9.123
	C0,4.084,4.084,0,9.123,0h214.705c5.038,0,9.123,4.084,9.123,9.123V223.828z"/>
<g>
	<path fill="#309CD2" d="M67.624,115.196h17.277l0.083,5.987c0,6.543-0.98,12.101-2.94,16.675c-1.96,4.573-5.59,9.494-10.89,14.76
		c-5.906,5.933-9.495,10.035-10.764,12.308c-1.269,2.274-1.904,4.991-1.904,8.15c0,4.49,1.588,8.288,4.765,11.393
		c3.177,3.105,7.085,4.657,11.727,4.657c10.165,0,16.492-6.811,18.978-20.435l17.61,2.742c-1.219,11.188-5.067,19.897-11.547,26.127
		c-6.479,6.227-14.62,9.342-24.421,9.342c-10.246,0-18.773-3.351-25.585-10.051c-6.811-6.701-10.217-14.98-10.217-24.836
		c0-5.537,1.36-10.687,4.082-15.45c2.722-4.763,7.721-10.799,14.997-18.108c3.943-3.932,6.414-7.186,7.414-9.761
		C67.289,126.119,67.734,121.621,67.624,115.196z M84.902,83.797v23.341H65.796V83.797H84.902z"/>
	<path fill="#309CD2" d="M149.543,160.94h-25.411l-0.122-7.781c0-10.457,1.378-18.927,4.135-25.413
		c2.754-6.484,8.105-13.618,16.049-21.399c8.834-8.755,14.145-14.752,15.928-17.996c1.782-3.241,2.675-7.01,2.675-11.308
		c0-7.052-2.291-12.846-6.87-17.387c-4.58-4.539-10.355-6.808-17.326-6.808c-14.997,0-24.238,9.97-27.721,29.91l-25.656-3.891
		c0.731-15.202,5.978-27.676,15.746-37.422c9.768-9.745,22.027-14.618,36.78-14.618c14.996,0,27.479,4.905,37.449,14.712
		c9.971,9.809,14.956,22.049,14.956,36.72c0,7.458-1.743,14.53-5.228,21.217c-3.486,6.688-10.984,15.827-22.494,27.418
		c-5.917,6-9.585,10.821-11.004,14.469C150.01,145.012,149.38,151.538,149.543,160.94z M124.132,206.901v-34.167h27.966v34.167
		H124.132z"/>
</g>
</svg>
