<?xml version="1.0" encoding="utf-8"?>
<!-- Generator: Adobe Illustrator 17.0.0, SVG Export Plug-In . SVG Version: 6.00 Build 0)  -->
<!DOCTYPE svg PUBLIC "-//W3C//DTD SVG 1.1//EN" "http://www.w3.org/Graphics/SVG/1.1/DTD/svg11.dtd">
<svg version="1.1" id="Capa_1" xmlns="http://www.w3.org/2000/svg" xmlns:xlink="http://www.w3.org/1999/xlink" x="0px" y="0px"
	 width="232.951px" height="232.951px" viewBox="0 0 232.951 232.951" enable-background="new 0 0 232.951 232.951"
	 xml:space="preserve">
<g>
	<path fill="#ECECEC" d="M232.951,223.828c0,5.038-4.084,9.123-9.123,9.123H9.123c-5.038,0-9.123-4.084-9.123-9.123V9.123
		C0,4.084,4.084,0,9.123,0h214.705c5.038,0,9.123,4.084,9.123,9.123V223.828z"/>
	<g>
		<path fill="#1D1D1B" d="M81.853,189.776c-0.352,0.067-0.35,0.397-0.446,0.634c-1.285,3.165-2.571,6.33-3.831,9.505
			c-0.279,0.702-0.676,1.112-1.476,1.183c-2.219,0.196-4.426,0.521-6.633,0.809c-2.133,0.278-4.28,0.489-6.396,0.88
			c-1.079,0.199-1.902-0.022-2.759-0.768c-4.577-3.988-9.221-7.899-13.822-11.861c-6.14-5.286-12.258-10.598-18.391-15.891
			c-4.122-3.558-8.247-7.113-12.392-10.645c-0.627-0.534-0.782-1.011-0.495-1.824c3.152-8.929,6.255-17.876,9.385-26.813
			c1.448-4.134,2.934-8.254,4.377-12.389c0.23-0.659,0.557-0.87,1.273-0.808c2.597,0.224,5.185,0.584,7.797,0.602
			c0.081,0.089,0.152,0.239,0.248,0.257c0.515,0.1,1.041,0.07,1.561,0.226c1.552,0.465,2.986,1.342,4.67,1.366
			c0.148,0.002,0.301,0.161,0.438,0.265c0.436,0.328,0.918,0.388,1.373,0.119c0.299-0.176,0.414-0.134,0.583,0.141
			c0.293,0.477,0.703,0.553,1.174,0.236c0.722-1.534,1.782-2.666,3.517-3.043c0.274-0.059,0.549-0.139,0.814-0.108
			c1.531,0.182,3.077,0.244,4.587,0.586c0.466,0.105,0.764,0.207,0.322,0.762c-0.387,0.486-0.762,1.006-0.982,1.607
			c0,0-0.001,0.003-0.001,0.003c-0.179,0.163-0.289,0.364-0.329,0.602c-0.264,0.148-0.088,0.399-0.141,0.597
			c-0.54,0.308-0.542,0.909-0.697,1.397c-0.12,0.379-0.19,0.361-0.476,0.183c-0.818-0.511-0.825-0.5-1.198,0.375
			c-0.068,0.161-0.132,0.323-0.198,0.485c-0.394,0.653-0.366,1.408-0.423,2.117c-0.044,0.544,0.241,1.026,0.975,0.948
			c0.42-0.045,0.869-0.089,1.181,0.328c0.055,0.073,0.224,0.165,0.233,0.154c0.574-0.662,0.553,0.174,0.735,0.328
			c0.554,0.47,0.951,1.096,1.52,1.572c0.438,0.366,0.976,0.647,1.261,1.182c-0.228,0.685-0.245,1.408-0.538,2.097
			c-0.646,1.516-0.281,2.67,1.06,3.678c1.776,1.335,3.64,2.563,5.343,3.985c1.184,0.989,2.44,1.334,3.906,1.194
			c0.05-0.005,0.101-0.005,0.152-0.002c0.516,0.028,0.849-0.221,1.09-0.665c0.631-1.162,1.104-2.389,1.437-3.662
			c0.287-1.096,0.1-2.174-0.745-2.947c-0.808-0.74-1.715-1.387-2.705-1.892c-0.239-0.415-0.688-0.573-1.045-0.842
			c-0.258-0.194-0.352-0.363-0.192-0.69c0.537-1.093,1.325-1.96,2.342-2.604c0.701-0.444,1.074-0.336,1.605,0.349
			c0.311,0.401,0.629,0.791,1.177,0.872c0.593,0.409,1.187,0.818,1.78,1.228c1.078,0.936,1.803,2.216,2.981,3.054
			c0.078,0.345,0.357,0.565,0.604,0.737c0.645,0.451,0.765,1.05,0.699,1.768c-0.057,0.623-0.059,1.25-0.086,1.875
			c-0.31,1.033-0.62,2.067-0.929,3.099c-0.319,1.323-0.188,2.544,0.81,3.57c-0.227,0.088-0.455,0.176-0.848,0.329
			c1.24,0.455,2.391,0.727,3.264,1.551c0.058,0.055,0.234,0.083,0.277,0.041c0.408-0.387,0.712,0.043,0.998,0.166
			c1.551,0.669,3.174,1.082,4.819,1.402c0.439,0.086,0.656,0.183,0.582,0.644c0,0-0.032,0.017-0.032,0.017l0.026-0.023
			c0.586,0.007,0.62,1.101,1.406,0.715c0.891,0.718,1.98,1.109,2.904,1.788c0.554,0.408,1.094,0.949,1.88,0.933
			c0.168,0.113,0.334,0.229,0.504,0.339c1.098,0.712,1.135,0.726,0.664,1.917c-1.751,4.426-3.529,8.841-5.295,13.26
			c-0.816,2.042-1.63,4.085-2.444,6.128c-0.298,0.739-0.595,1.479-0.893,2.218c-0.846,2.114-1.747,4.208-2.512,6.35
			C82.516,187.961,81.934,188.78,81.853,189.776z"/>
		<path fill="#CFCECE" d="M76.442,138.226c-1.178-0.838-1.903-2.118-2.981-3.054c0.429-0.06,0.355-0.246,0.133-0.491
			c-0.663-0.735-0.815-1.627-0.736-2.571c0.019-0.226-0.057-0.392-0.143-0.57c-0.474-0.98-1.406-1.191-2.345-1.401
			c-1.25-0.281-2.196,0.578-3.268,0.914c-1.261,0.395-2.457,0.409-3.609-0.106c-1.84-0.823-3.609-1.804-5.443-2.643
			c-0.756-0.346-1.528-1.043-2.463-0.354c-0.01,0.008-0.099-0.092-0.151-0.141c-0.043-0.374,0.036-0.695,0.217-1.047
			c0.104-0.201,0.48-0.419,0.227-0.757c0.053-0.197-0.123-0.449,0.141-0.597c0.423-0.03,0.301-0.357,0.329-0.602
			c0,0,0.001-0.003,0.001-0.003c0.62-0.32,1.395-0.155,1.847,0.391c0.045,0.054,0.089,0.14,0.144,0.15
			c1.45,0.244,2.728,1.11,4.123,1.345c1.437,0.243,3.124,0.595,4.281-0.932c0.261-0.344,0.594-0.465,0.984-0.161
			c0.243,0.189,0.536,0.13,0.809,0.121c0.418-0.013,0.776,0.097,1.147,0.308c0.833,0.473,1.802,0.426,2.714,0.57
			c0.377,0.06,0.733-0.233,0.683-0.724c-0.213-2.089-0.457-4.177-1.967-5.817c-0.388-0.421-0.871-0.77-1.351-1.09
			c-0.766-0.511-1.113-1.207-1.089-2.109c0.015-0.562,0.077-1.172-0.452-1.532c-1.197-0.816-0.963-1.909-0.656-3.027
			c0.461-1.68,0.984-3.345,1.39-5.039c0.618-2.577,1.168-5.171,2.033-7.682c0.214-0.621,0.478-1.224,0.723-1.834
			c0.037-0.091,0.088-0.24,0.147-0.248c0.767-0.102,1.014-0.823,1.383-1.296c0.867-1.112,2.09-1.75,3.186-2.506
			c1.252-0.864,2.741-1.389,4.144-2.026c1.334-0.606,2.658-1.262,4.043-1.723c1.667-0.554,3.337-1.11,5.069-1.484
			c3.67-0.792,7.366-1.151,11.12-1.086c2.366,0.041,4.633,0.585,6.936,1.01c1.768,0.326,3.217,1.277,4.801,1.955
			c1.002,0.429,1.558,1.508,2.48,2.085c1.032,0.646,1.573,1.844,2.674,2.373c1.007,0.483,2.06,1.041,3.153,0.149
			c0.019-0.016,0.042-0.028,0.065-0.039c1.258-0.577,1.255-0.589,0.292-1.61c-1.18-1.251-2.543-2.24-4.055-3.061
			c-1.346-0.731-2.509-1.754-3.917-2.413c-2.034-0.953-4.103-1.814-6.166-2.698c-2.05-0.878-4.215-1.356-6.336-1.962
			c-0.764-0.218-1.663-0.404-2.54-0.226c-0.388,0.079-0.885,0.236-1.094-0.355c0.755-0.33,1.579-0.102,2.352-0.288
			c1.757,0.163,3.523,0.237,5.265,0.549c0.199,0.421,0.598,0.401,0.967,0.426c1.28,0.086,2.499,0.51,3.762,0.712
			c0.981,0.157,2.013,0.452,2.978,0.573c1.272,0.16,2.551,0.56,3.867,0.402c0.166-0.02,0.347,0.097,0.516,0.083
			c0.677-0.055,1.184,0.576,1.864,0.456c1.451-0.254,3.125,0.6,3.89,1.802c0.402,0.633,0.835,1.386,1.748,1.489
			c0.299,0.288,0.469,0.65,0.619,1.03c1.972,5.004,3.474,10.153,4.688,15.385c1.251,5.39,2.446,10.794,3.847,16.149
			c0.479,1.83,0.633,3.825,2.312,5.12c-0.077,0.435,0.224,0.719,0.456,0.997c0.436,0.522,0.219,0.876-0.239,1.175
			c-0.523,0.342-1.182,0.443-1.627,0.937c-0.08,0.089-0.304,0.127-0.424,0.084c-0.477-0.171-0.903,0-1.312,0.179
			c-1.126,0.491-2.337,0.755-3.511,0.986c-1.288,0.254-2.632,0.364-3.973,0.397c-2.249,0.055-4.378,0.7-6.314,1.844
			c-1.539,0.909-1.828,2.04-1.023,3.418c-0.676,0.335-1.382,0.319-2.02-0.014c-0.791-0.414-1.57-0.333-2.341-0.08
			c-0.643,0.21-0.711,0.837-0.126,1.182c0.889,0.524,1.775,1.059,2.826,1.253c0.703,0.13,1.258,0.629,1.885,0.951
			c0.919,0.472,1.828,0.98,2.677,1.565c0.876,0.604,1.397,1.579,2.163,2.303c1.122,1.06,1.988,2.343,3.079,3.437
			c0.647,0.649,1.15,1.468,1.835,2.102c1.137,1.053,1.955,2.401,3.266,3.312c0.797,0.554,1.464,1.276,2.356,1.751
			c1.763,0.939,3.092,0.857,4.536-0.521c0.651-0.622,1.414-1.178,1.646-2.134c0.03-0.124,0.107-0.238,0.257-0.235
			c0.159,0.003,0.194,0.151,0.24,0.26c0.268,0.632,0.503,1.304,0.503,1.973c0,1.837,0.525,3.634,0.229,5.507
			c-0.223,1.411-0.1,2.874-0.163,4.315c-0.153,3.486-0.329,6.971-0.389,10.463c-0.027,1.59-0.135,3.188-0.078,4.776
			c0.09,2.467,0.055,4.95,0.558,7.389c0.035,0.171,0.025,0.354,0.023,0.531c-0.002,0.146,0.033,0.326-0.147,0.394
			c-0.238,0.089-0.301-0.122-0.385-0.268c-0.638-1.118-1.386-2.191-1.88-3.37c-0.59-1.41-1.287-2.795-1.559-4.327
			c-0.057-0.318-0.202-0.605-0.412-0.88c-0.404-0.53-0.929-0.999-0.951-1.759c-0.01-0.355-0.27-0.244-0.405-0.068
			c-0.168,0.218-0.325,0.462-0.411,0.72c-0.782,2.327-1.471,4.68-2.139,7.043c-0.781,2.76-1.687,5.489-2.649,8.196
			c-0.284,0.797-0.819,1.444-1.075,2.237c-0.078,0.24-0.197,0.47-0.255,0.714c-0.221,0.927,0.066,1.531,1.002,1.655
			c1.672,0.222,3.249,0.876,4.945,0.975c1.479,0.086,2.839-0.379,4.228-0.748c2.278-0.604,4.347-1.811,6.638-2.344
			c2.663-0.62,5.29-0.584,7.714,0.954c0.999,0.634,1.966,1.277,2.794,2.154c0.774,0.819,1.915,1.007,2.98,1.177
			c2.316,0.37,4.618-0.046,6.922-0.256c1.584-0.145,3.148-0.388,4.632-0.99c0.357-0.145,0.49-0.027,0.6,0.307
			c0.108,0.327,0.094,0.647,0.076,0.975c-0.739,0.15-1.474,0.333-2.219,0.443c-2.138,0.317-4.276,0.65-6.424,0.89
			c-2.001,0.224-4.008,0.604-6.021,0.447c-1.784-0.139-3.556,0.126-5.347-0.072c-1.283-0.142-2.568-0.283-3.782-0.65
			c-1.548-0.468-3.06-0.331-4.557-0.03c-3.017,0.605-5.815,1.95-8.789,2.727c-1.488,0.389-3.012,0.535-4.518,0.761
			c-1.156,0.173-2.326-0.048-3.504-0.343c-1.474-0.37-2.805-1.083-4.261-1.458c0.185-1.205,0.95-2.081,1.692-2.967
			c0.657-0.785,1.39-1.502,1.977-2.35c1.39-2.005,2.088-4.219,2.114-6.652c0.007-0.681,0.018-1.362,0.028-2.043
			c0.608-0.397,0.434-1.021,0.491-1.595c0.242-2.452,0.064-4.9-0.103-7.342c-0.123-1.806-0.459-3.599-0.544-5.405
			c-0.093-1.971-0.446-3.905-0.692-5.85c-0.313-2.476-0.532-4.956-0.683-7.443c-0.048-0.789-0.212-1.494-0.667-2.131
			c-1.197-1.675-3.02-2.56-4.665-3.661c-1.426-0.954-2.975-1.741-4.329-2.784c-2.264-1.743-4.339-3.715-6.3-5.8
			c-0.12-0.128-0.219-0.276-0.333-0.411c-0.975-1.151-1.875-2.462-3.188-3.172c-1.376-0.744-2.377-1.838-3.502-2.829
			c-0.257-0.227-0.503-0.426-0.687-0.764c-0.576-1.061-0.661-2.194-0.681-3.349c-0.012-0.703,0.251-1.449,0.206-2.071
			c-0.103-1.421,0.266-2.867-0.197-4.262c-0.104-0.314-0.145-0.633-0.175-0.964c-0.096-1.073-0.56-2.089-0.507-3.192
			c0.006-0.134-0.118-0.276-0.183-0.413c-0.664-1.394-0.888-2.921-0.921-4.407c-0.037-1.653,0.436-3.338,1.089-4.829
			c1.14-2.603,2.216-5.259,3.866-7.621c1.012-1.448,1.972-2.933,3.143-4.258c1.294-1.464,2.958-2.424,4.676-3.302
			c0.889-0.454,0.944-0.666,0.15-1.256c-0.754-0.56-1.09-1.265-1.272-2.139c-0.472-2.271-2.108-3.568-4.045-4.49
			c-1.44-0.685-2.947-1.318-4.602-1.243c-1.174,0.054-2.299-0.258-3.452-0.354c-1.741-0.146-3.414,0.307-5.109,0.524
			c-1.638,0.21-3.241,0.643-4.838,1.098c-1.032,0.294-2.084,0.555-3.113,0.862c-0.93,0.277-1.891,0.501-2.777,0.881
			c-1.305,0.56-2.692,0.865-3.992,1.464c-1.078,0.498-1.71,1.259-1.18,2.318c0.952,1.901,0.75,3.809,0.296,5.753
			c-0.35,1.499-0.969,2.913-1.394,4.384c-0.557,1.927-1.428,3.748-1.768,5.752c-0.266,1.566-1.072,3.025-1.11,4.644
			c-0.021,0.918-0.208,1.858,0.14,2.763c-0.034,1.973,0.398,3.867,0.893,5.764c0.66,2.529,1.104,5.11,2.21,7.515
			c0.483,1.05,1.12,2.034,1.434,3.16c-0.049,0.084-0.094,0.17-0.147,0.251c-0.275,0.418-0.604,0.815-1.041,1.034
			c-0.35,0.175-0.609-0.253-0.931-0.353C76.749,138.196,76.59,138.228,76.442,138.226z M120.337,101.103
			c-0.708-0.078-1.332,0.014-1.953,0.13c-1.618,0.304-3.065,0.937-3.827,2.488c-0.415,0.845-0.814,1.704-1.112,2.627
			c-0.899,2.781-1.332,5.6-1.266,8.511c0.007,0.32,0.121,0.587,0.251,0.863c0.139,0.295,0.299,0.575,0.368,0.908
			c0.324,1.569,1.005,2.966,2.201,4.05c0.62,0.562,1.352,0.986,2.251,0.929c1.094-0.069,2.209,0.103,3.275-0.304
			c0.818-0.313,1.781-0.353,2.41-1.014c0.384-0.403,0.804-0.679,1.283-0.893c1.73-0.775,2.56-2.33,3.392-3.884
			c0.067-0.125,0.071-0.293,0.073-0.442c0.025-1.656-0.025-3.31-0.14-4.963c-0.056-0.807-0.181-1.589-0.452-2.363
			c-0.291-0.831-0.765-1.61-0.992-2.42c-0.357-1.271-1.28-2.107-2.107-2.866C123.035,101.583,121.774,100.805,120.337,101.103z"/>
		<path fill="#7F7C7C" d="M104.716,82.84c-1.741-0.312-3.508-0.386-5.265-0.548c-1.065-0.534-2.13-1.069-3.194-1.604
			c-1.17-0.708-2.379-1.375-3.382-2.307c-0.659-0.612-1.427-0.836-2.246-0.991c-1.213-0.229-2.433-0.426-3.65-0.635
			c-2.106-0.363-4.18-0.867-6.249-1.395c-0.069-0.224-0.461-0.283-0.341-0.58c0.072-0.179,0.295-0.11,0.461-0.103
			c-0.002,0.454,0.362,0.504,0.672,0.582c0.977,0.245,1.954,0.495,2.94,0.699c1.16,0.24,2.329,0.434,3.495,0.647
			c-0.243-0.19-0.512-0.242-0.781-0.297c-1.755-0.359-3.535-0.604-5.241-1.182c-0.328-0.111-0.728-0.167-0.641-0.676
			c0.034-0.022,0.07-0.038,0.108-0.049c0.185-0.02,0.37-0.041,0.556-0.061c0.138,0.024,0.276,0.049,0.413,0.073
			c0.078,0.161,0.237,0.16,0.382,0.198c2.425,0.636,4.906,0.95,7.489,1.346c-0.197-0.392-0.296-0.74-0.683-0.897
			c-0.233-0.355-0.466-0.71-0.7-1.066c0.412-0.025,0.219-0.205,0.164-0.445c-0.27-1.171-0.412-1.47,0.645-1.991
			c0.245-0.121,0.468-0.301,0.672-0.487c0.695-0.634,1.546-0.828,2.442-0.868c1.866-0.083,3.736-0.163,5.598,0.009
			c1.744,0.161,3.488,0.067,5.231,0.113c2.674,0.07,5.313,0.482,7.975,0.66c0.724,0.049,1.458,0.08,2.181,0.175
			c1.819,0.241,3.633,0.481,5.471,0.595c1.581,0.097,3.174,0.2,4.73,0.06c2.656-0.238,5.329-0.068,7.982-0.51
			c1.633-0.272,3.225-0.519,4.669-1.373c0.357-0.211,0.745-0.329,1.129-0.032c-0.129,0.491-0.551,0.844-0.635,1.356
			c-0.38,0.319-0.475,0.551,0.154,0.654c1.342,0.219,2.679,0.466,4.02,0.693c1.861,0.315,3.722,0.624,5.584,0.935
			c0.251,0.014,0.502,0.029,0.753,0.043c0.941,0.32,1.918,0.455,2.9,0.561c0.199,0.014,0.399,0.029,0.598,0.043
			c0.119,0.167,0.287,0.151,0.458,0.121c0.101,0.011,0.202,0.023,0.303,0.034c0.175,0.192,0.395,0.141,0.611,0.116
			c0.151,0.013,0.303,0.025,0.454,0.038c0.125,0.162,0.293,0.136,0.463,0.109c0.15,0.012,0.3,0.024,0.45,0.036
			c0.123,0.165,0.292,0.144,0.462,0.115c0.15,0.014,0.3,0.029,0.45,0.043c0.079,0.115,0.189,0.135,0.316,0.102
			c0.25,0.019,0.499,0.039,0.749,0.058c0.123,0.155,0.288,0.14,0.456,0.112c0.101,0.007,0.202,0.013,0.304,0.02
			c0.218,0.224,0.495,0.132,0.753,0.142c0.307,0.049,0.613,0.098,0.92,0.147c0.263,0.263,0.596,0.138,0.902,0.161
			c0.409,0.058,0.818,0.115,1.228,0.173c0.083,0.116,0.196,0.125,0.321,0.093c0.146,0.015,0.293,0.029,0.439,0.044
			c0.218,0.223,0.494,0.142,0.754,0.142c0.408,0.061,0.816,0.122,1.224,0.183c0.077,0.112,0.188,0.124,0.31,0.103
			c0.404,0.058,0.807,0.116,1.211,0.174c0.373,0.254,0.819,0.179,1.227,0.277c0.098,0.012,0.196,0.025,0.294,0.037
			c0.19,0.192,0.394,0.191,0.607,0.04c0.137,0,0.274,0,0.411,0c0.619,0.495,1.096,0.493,1.614-0.006
			c0.348-0.157,0.352-0.532,0.498-0.811c0.457-0.867,0.909-1.735,1.411-2.579c0.202-0.34,0.557-0.994-0.18-1.049
			c-1.147-0.086-2.304-0.261-3.463-0.122c-0.21-0.081-0.398-0.013-0.582,0.084c-0.218-0.464-0.613-0.218-0.943-0.235
			c-0.259-0.119-0.483,0.079-0.728,0.081c-0.063-0.293-0.267-0.28-0.49-0.226c-0.09-0.005-0.179-0.011-0.269-0.016
			c-0.55-0.181-1.114-0.244-1.691-0.2c-0.707-0.098-1.414-0.197-2.122-0.295c-0.1-0.011-0.201-0.022-0.301-0.034
			c-0.356-0.052-0.713-0.103-1.069-0.155c-0.093-0.113-0.207-0.105-0.329-0.057c-0.394-0.059-0.788-0.118-1.183-0.178
			c-0.354-0.119-0.71-0.231-1.092-0.161c-0.146-0.021-0.292-0.042-0.439-0.063c-0.142-0.136-0.308-0.117-0.477-0.075
			c-0.136-0.015-0.273-0.03-0.409-0.045c-0.11-0.039-0.219-0.078-0.329-0.118c-0.101-0.112-0.218-0.14-0.354-0.066
			c-0.195-0.063-0.391-0.1-0.593-0.034c-0.094-0.008-0.188-0.017-0.281-0.025c-0.579-0.272-1.216-0.213-1.823-0.326
			c-0.14-0.157-0.308-0.161-0.49-0.089c-0.191-0.023-0.383-0.046-0.574-0.069c-0.141-0.153-0.31-0.155-0.491-0.092
			c-0.191-0.022-0.383-0.043-0.574-0.065c-0.138-0.158-0.308-0.154-0.489-0.098c-0.496-0.067-0.992-0.133-1.489-0.2
			c-0.14-0.158-0.31-0.156-0.491-0.089c-0.141-0.019-0.282-0.039-0.422-0.058c-0.188-0.189-0.412-0.163-0.641-0.107
			c-0.141-0.018-0.282-0.036-0.423-0.054c-0.192-0.179-0.414-0.157-0.642-0.096c-0.141-0.021-0.281-0.041-0.422-0.061
			c-0.144-0.154-0.312-0.152-0.491-0.075c-0.192-0.023-0.383-0.047-0.575-0.07c-0.494-0.224-1.016-0.284-1.552-0.261
			c-0.192-0.018-0.384-0.036-0.576-0.054c-0.189-0.187-0.413-0.161-0.641-0.103c-0.094-0.011-0.189-0.022-0.283-0.032
			c-0.287-0.274-0.687-0.11-1.006-0.262c-0.166-0.079-0.497,0.013-0.465-0.258c0.039-0.326,0.368-0.196,0.56-0.169
			c1.163,0.164,2.322,0.362,3.485,0.532c1.917,0.28,3.82,0.69,5.763,0.743c0.286,0.008,0.88,0.105,0.706-0.578
			c-0.077-0.972-0.595-1.796-0.897-2.692c-0.274-0.812-0.415-1.615,0.361-2.266c0.857,0.662,1.724,1.319,2.691,1.804
			c1.79,0.899,3.677,1.624,5.3,2.817c0.653,0.48,1.549,0.786,1.73,1.755c-0.612,0.097-1.197-0.116-1.797-0.159
			c-0.625-0.258-1.299-0.012-1.937-0.188c-0.163-0.045-0.244,0.154-0.274,0.304c-0.036,0.176,0.106,0.211,0.231,0.218
			c0.68,0.036,1.316,0.369,2.012,0.293c1.146,0.184,2.288,0.386,3.437,0.548c3.299,0.466,6.592,1.002,9.943,0.885
			c0.732-0.026,1.46-0.088,2.121-0.453c0.253-0.11,0.505-0.219,0.758-0.329c0.603,0.122,0.718-0.388,0.958-0.737
			c2.563-2.879,5.256-5.629,8.4-7.88c3.168-2.268,6.661-3.359,10.578-2.506c1.23,0.268,2.424,0.671,3.491,1.375
			c-0.604,0.139-1.052-0.462-1.651-0.349c-0.093-0.215-0.307-0.2-0.484-0.256c-0.068-0.13-0.185-0.151-0.316-0.14
			c-0.25-0.062-0.499-0.124-0.749-0.187c-0.077-0.11-0.168-0.148-0.284-0.055c-0.145-0.013-0.289-0.026-0.434-0.038
			c-0.121-0.207-0.285-0.237-0.484-0.115c-0.208-0.027-0.416-0.054-0.624-0.081c-0.606-0.248-1.216-0.188-1.828-0.027
			c-0.1,0.011-0.201,0.021-0.301,0.032c-0.24-0.003-0.505-0.081-0.648,0.212c0,0,0.013,0.059,0.013,0.059
			c-0.098-0.021-0.197-0.041-0.295-0.062c-0.113-0.083-0.207-0.062-0.283,0.053c-0.1,0.018-0.2,0.036-0.3,0.054
			c-0.122-0.024-0.232-0.008-0.314,0.098c-0.1,0.016-0.199,0.031-0.299,0.047c-0.305,0.041-0.617,0.066-0.821,0.347
			c-0.097,0.022-0.194,0.043-0.291,0.065c-0.198,0.002-0.382,0.033-0.469,0.246c-0.095,0.021-0.19,0.042-0.284,0.064
			c-0.089,0.037-0.177,0.074-0.266,0.112c-0.115,0.063-0.23,0.126-0.346,0.189c-0.645,0.176-1.169,0.583-1.715,0.933
			c-1.807,1.161-3.333,2.666-4.886,4.129c-0.63,0.593-1.371,1.11-1.751,1.938l-0.007,0.009c-0.539,0.128-0.691,0.607-0.92,1.015
			l-0.03,0.036c-0.706,0.455-1.307,1.005-1.64,1.8l-0.026,0.027c-0.313,0.066-0.422,0.287-0.441,0.577
			c0.004,0.415-0.43,0.507-0.591,0.8c-0.256,0.047-0.361,0.249-0.478,0.449c-0.985,1.679-1.775,3.452-2.537,5.239
			c-0.545,1.279-0.695,2.662-1.032,3.995c-0.523,2.069-0.967,4.159-1.385,6.252c-0.458,2.296-0.872,4.601-1.155,6.927
			c-0.225,1.85-0.161,3.712,0.377,5.477c0.839,2.751,2.08,5.303,3.981,7.543c1.342,1.582,2.963,2.667,4.846,3.344
			c2.64,0.949,5.379,1.504,8.19,1.723c3.188,0.249,6.356,0.174,9.513-0.317c0.346-0.054,0.784,0.181,1.029-0.271
			c0.69-0.049,1.38-0.097,2.071-0.146c0.185,0.115,0.296,0.029,0.376-0.14c0.968-0.13,1.82-0.589,2.706-0.951
			c0.562-0.105,1.124-0.213,1.687-0.316c1.361-0.248,2.627,0.298,3.936,0.481c0.434,0.06,0.312,0.304,0.141,0.533
			c-0.391,0.523-0.936,0.849-1.512,1.117c-2.013,0.937-4.142,1.486-6.325,1.837c-5.111,0.821-10.191,0.56-15.261-0.407
			c-2.318-0.442-4.625-0.907-6.809-1.808c-3.846-1.586-6.291-4.529-7.847-8.299c-0.493-1.195-0.963-2.401-1.243-3.663
			c-0.307-1.386-1.115-2.184-2.462-2.66c-2.819-0.996-5.675-1.832-8.6-2.438c-0.767-0.06-1.295,0.258-1.444,0.781
			c-0.325,1.14-0.944,2.044-2.097,2.518c-1.603,0.659-3.05,1.486-3.332,3.436c-0.018,0.123-0.07,0.243-0.119,0.36
			c-0.232,0.563-0.478,0.608-0.844,0.13c-0.809-1.059-1.628-2.112-2.391-3.203c-0.195-0.28-0.627-0.614-0.216-1.061
			c0.347-1.596,0.743-3.178,1.392-4.683c0.167-0.386-0.076-0.419-0.342-0.475c-3.264-0.691-6.527-1.39-9.793-2.073
			c-0.324-0.068-0.147,0.136-0.093,0.254c0.034,0.146,0.073,0.291,0.1,0.439c0.046,0.251,0.103,0.519-0.147,0.695
			c-0.314,0.222-0.461-0.111-0.628-0.251c-0.404-0.339-0.741-0.763-1.161-1.077c-0.648-0.483-0.736-1.445-1.584-1.776
			c-0.115-0.045-0.481-0.54-0.3-0.828c0.162-0.257,0.515-0.014,0.776,0.04c4.007,0.82,8.02,1.616,12.018,2.482
			c3.653,0.791,7.295,1.633,10.929,2.503c2.576,0.617,5.149,1.248,7.61,2.273c1.198,0.499,1.613,0.222,1.702-1.024
			c0.1-1.413,0.417-2.792,0.594-4.193c0.103-0.816-0.023-0.96-0.899-0.845c-0.394-0.098-0.805,0.092-1.195-0.071
			c-0.096-0.017-0.192-0.035-0.289-0.052c-0.166-0.283-0.4-0.155-0.622-0.105c-1.114-0.162-2.224-0.377-3.332-0.539
			c-3.003-0.438-5.967-1.09-8.968-1.529c-0.372-0.305-0.819-0.182-1.238-0.218c-0.105-0.016-0.209-0.032-0.314-0.048
			c-2.522-0.499-5.031-1.081-7.569-1.477c-3.476-0.543-6.928-1.218-10.399-1.787c-1.604-0.263-3.204-0.547-4.806-0.821
			c0.444,0.353,1.044,0.411,1.354,0.929c0.441,0.736,0.962,1.429,1.219,2.264c0.009,0.581,0.176,1.22-0.013,1.727
			c-0.228,0.61-0.069,1.077,0.129,1.583c1.403,3.576,2.809,7.151,3.994,10.808c0.056,0.174,0.046,0.418,0.401,0.407
			c-0.077-0.721,0.403-1.33,0.355-2.053c-0.012-0.178-0.105-0.456,0.17-0.51c0.18-0.036,0.288,0.173,0.393,0.316
			c0.807,1.099,1.762,2.086,2.804,2.929c2.131,1.724,4.435,3.221,7.041,4.145c1.758,0.623,3.585,1.199,5.364,0.097
			c0.566-0.351,0.914-0.448,1.249,0.185c-2.184,2.648-5.038,3.104-8.214,2.519c-2.431-0.448-4.684-1.413-6.94-2.371
			c-0.301-0.128-0.612-0.234-0.919-0.35c-0.037-0.019-0.074-0.038-0.11-0.056c-0.003,0.057-0.007,0.114-0.01,0.171
			c0.045,0.18,0.09,0.359,0.135,0.539c0.034,0.096,0.068,0.192,0.101,0.288c0.033,0.11,0.067,0.22,0.1,0.33
			c0.015,0.045,0.031,0.091,0.046,0.136c0.022,0.099,0.044,0.198,0.065,0.297c0.345,1.29,0.679,2.584,1.038,3.87
			c1.09,3.908,2.217,7.806,3.502,11.656c0.022,0.108,0.043,0.215,0.065,0.323c0.021,0.083,0.042,0.165,0.063,0.248
			c0.027,0.117,0.053,0.235,0.08,0.352c0.018,0.047,0.036,0.095,0.054,0.142c0.032,0.386-0.205,0.707-0.26,1.071
			c-0.414,0.46-0.562,1.061-0.844,1.591c-0.343,0.645-0.591,0.646-1.149,0.209c-0.517-0.405-0.77-1.064-1.385-1.357
			c-1.679-1.295-1.833-3.29-2.312-5.12c-1.401-5.354-2.596-10.758-3.847-16.149c-1.214-5.232-2.716-10.381-4.688-15.385
			c-0.15-0.38-0.32-0.742-0.619-1.03c-0.102-0.143-0.194-0.296-0.309-0.427c-1.088-1.235-2.184-2.463-3.265-3.704
			c-0.148-0.17-0.498-0.346-0.266-0.617c0.256-0.299,0.582-0.579,0.934-0.745c0.754-0.353,0.844-0.614,0.275-1.231
			c-0.715-0.776-1.703-0.905-2.665-1.05c-1.083-0.163-2.079,0.308-3.115,0.492c-0.786,0.139-1.55,0.326-2.313,0.574
			c-1.836,0.597-3.653,1.364-5.647,1.189C106.859,83.169,105.789,82.984,104.716,82.84z M163.897,98.038l0.027,0.024l-0.024-0.027
			c-0.101-0.275-0.359-0.322-0.588-0.429c-2.981-1.392-6.174-2.101-9.349-2.835c-5.64-1.303-11.303-2.506-16.956-3.756
			c-0.405-0.09-0.805-0.129-1.306-0.109c0.416,0.286,0.811,0.261,1.173,0.341c4.787,1.052,9.582,2.069,14.365,3.14
			c2.984,0.668,5.958,1.38,8.889,2.263C161.415,97.039,162.633,97.596,163.897,98.038z M137.901,73.706
			c0.073,0.105,0.104,0.333,0.29,0.096c0.116,0.016,0.232,0.032,0.348,0.048c0.095,0.426,0.428,0.442,0.768,0.444
			c0.277,0.002,0.543,0.014,0.815,0.123c0.762,0.308,1.597,0.322,2.393,0.464c0.853,0.153,1.713,0.327,2.584,0.429
			c1.25,0.146,2.479,0.501,3.753,0.529c0.126,0.003,0.276-0.026,0.374,0.03c0.928,0.533,1.996,0.23,2.993,0.504
			c0.801,0.221,1.721,0.287,2.558,0.451c1.592,0.312,3.205,0.505,4.799,0.767c1.473,0.242,2.93,0.618,4.435,0.758
			c0.639,0.06,1.4,0.229,2.085,0.41c0.596,0.158,1.268,0.756,1.986,0.253c0.185-0.043,0.335-0.001,0.426,0.18
			c0.05,0.036,0.1,0.073,0.149,0.109c0.275,0.228,0.108,0.52,0.113,0.788c-0.585,0.056-1.156-0.053-1.734-0.125
			c-3.832-0.478-7.63-1.182-11.446-1.764c-3.615-0.552-7.215-1.205-10.832-1.745c-3.116-0.465-6.21-1.072-9.342-1.443
			c-0.804-0.095-1.395-0.01-1.788,0.734c-2.569,2.406-5.473,4.327-8.591,5.94c-0.111,0.058-0.21,0.146-0.114,0.368
			c3.2,0.618,6.44,1.239,9.679,1.871c4.086,0.798,8.164,1.638,12.257,2.4c4.789,0.892,9.564,1.863,14.383,2.59
			c1.372,0.207,2.747,0.437,4.14,0.439c1.104,0.002,1.284-0.152,1.508-1.158c0.467-2.098,0.918-4.2,1.375-6.3
			c0.221-0.589,0.433-1.18,0.501-1.811c0.267-0.633,0.371-1.303,0.456-1.978c0.028-0.033,0.059-0.065,0.082-0.102
			c0.006-0.01-0.009-0.034-0.014-0.051c-0.021,0.052-0.043,0.104-0.064,0.156c-0.449,0.087-0.352,0.553-0.548,0.822
			c-0.852-0.421-1.713-0.761-2.628-0.974c-5.489-1.277-11.08-1.96-16.63-2.878c-3.935-0.651-7.87-1.295-11.81-1.911
			c-0.526-0.082-1.078-0.245-1.639,0.03C136.613,73.369,137.257,73.537,137.901,73.706z M173.101,71.239
			c0.015-0.015,0.042-0.028,0.043-0.044c0.001-0.016-0.023-0.033-0.036-0.05c-0.015,0.015-0.042,0.028-0.043,0.044
			C173.064,71.205,173.088,71.223,173.101,71.239z"/>
		<path fill="#1D1D1B" d="M125.062,20.764c1.669,0.58,3.213,1.407,4.622,2.462c1.297,0.971,2.63,1.91,3.745,3.101
			c1.88,2.009,3.147,4.391,4.108,6.942c0.51,1.352,1.003,2.716,1.401,4.104c0.392,1.369,0.68,2.77,0.954,4.169
			c0.078,0.396,0.222,0.509,0.59,0.622c2.106,0.644,4.206,1.315,6.142,2.394c0.722,0.402,1.414,0.855,1.974,1.492
			c0.749,0.852,0.822,1.863,0.085,2.722c-0.577,0.672-1.235,1.261-2.122,1.512c0.444-0.406,0.896-0.804,1.329-1.222
			c0.329-0.318,0.244-0.683-0.168-0.725c-0.907-0.091-1.777-0.445-2.666-0.47c-1.336-0.038-2.552-0.567-3.848-0.733
			c-0.303-0.039-0.632-0.163-0.563-0.571c0.063-0.376,0.345-0.549,0.717-0.538c1.011,0.031,2.016-0.042,3.022-0.13
			c0.425-0.037,1.09-0.007,1.15-0.323c0.087-0.458-0.482-0.723-0.9-0.961c-1.123-0.641-2.38-0.956-3.546-1.491l-0.005,0.007
			c0.075,0.002,0.156,0.024,0.225,0.004c0.187-0.055,0.102-0.116-0.009-0.157c-0.259-0.096-0.518-0.196-0.782-0.278
			c-1.887-0.589-3.834-0.828-5.785-1.111c-3.004-0.436-6.026-0.556-9.043-0.732c-1.472-0.086-2.955-0.075-4.447,0.147
			c-1.658,0.247-3.358,0.141-5.044,0.283c-1.878,0.159-3.749,0.517-5.647,0.444c-0.124-0.005-0.248,0.043-0.374,0.061
			c-1.976,0.275-3.956,0.526-5.928,0.83c-2.342,0.361-4.682,0.742-7.014,1.163c-1.662,0.3-3.312,0.667-4.962,1.029
			c-1.392,0.305-2.765,0.671-4.123,1.118c-0.664,0.218-1.267,0.566-1.952,0.741c-1.159,0.297-2.374,0.49-3.373,1.236
			c-0.822,0.613-1.729,1.16-1.888,2.315c-0.653-1.389-0.178-3.299,1.066-4.414c0.718-0.643,1.558-1.115,2.4-1.519
			c1.086-0.521,1.773-1.365,2.332-2.332c0.636-1.1,1.223-2.238,1.715-3.409c0.839-1.998,1.566-4.043,2.383-6.051
			c0.582-1.43,1.239-2.83,2.066-4.141c0.283,0,0.267-0.205,0.271-0.397c0.025-0.022,0.035-0.049,0.028-0.081
			c0.924-0.763,1.408-1.91,2.323-2.686c0.084-0.071,0.048-0.282,0.068-0.429c0.772-0.998,1.84-1.644,2.882-2.285
			c1.491-0.918,3.032-1.761,4.595-2.552c1.478-0.748,3.092-1.12,4.688-1.554c2.282-0.62,4.581-0.613,6.904-0.549
			c0.47,0.013,0.875,0.252,1.334,0.251c0.075,0.324,0.346,0.243,0.554,0.248c0.968,0.026,1.825,0.468,2.738,0.699
			c0.805,0.203,1.558,0.653,2.435,0.523c0.013,0.029,0.036,0.043,0.067,0.042C122.748,20.333,123.91,20.533,125.062,20.764z"/>
		<path fill="#CFCECE" d="M140.286,57.09c0.417,1.558,0.001,3.113-0.042,4.667c-0.023,0.847-0.172,1.701-0.473,2.512
			c-0.572-0.126-1.108-0.315-1.735-0.106c-0.783,0.262-1.609,0.442-2.43,0.529c-0.872,0.093-1.751,0.332-2.637,0.132
			c-2.258-0.509-4.581-0.548-6.864-0.91c-2.062-0.326-4.127-0.811-6.289-0.832c-2.702-0.026-5.416-0.469-8.142-0.492
			c-0.259-0.002-0.511-0.025-0.73-0.166c-0.427-0.275-0.898-0.278-1.385-0.302c-1.319-0.066-2.66-0.057-3.949-0.302
			c-1.921-0.364-3.852-0.634-5.78-0.939c-0.812-0.128-1.616-0.04-2.417-0.149c-2.044-0.279-4.092-0.485-6.155-0.612
			c-1.741-0.106-3.045,0.705-4.406,1.535c-0.616,0.375-0.957,1.104-1.621,1.347c-1.061,0.39-2.194,0.484-3.326,0.5
			c0.029-0.145,0.006-0.343,0.093-0.428c1.34-1.295,1.249-3.154,1.879-4.726c0.917,0.371,0.917,0.371,1.027-0.662
			c0.003-0.024-0.002-0.049-0.003-0.073c0.08-0.197-0.058-0.349-0.106-0.52c0.262-1.114,0.523-2.228,0.785-3.342
			c0.239-0.016,0.475-0.089,0.556-0.325c0.419-1.218,1.32-2.073,2.172-2.974c1.007-1.066,2.131-1.95,3.451-2.613
			c0.88-0.442,1.838-0.698,2.688-1.164c0.667-0.366,1.388-0.531,2.072-0.627c1.569-0.22,3.121-0.697,4.736-0.508
			c0.12,0.014,0.251-0.023,0.372-0.055c1.018-0.27,2.069-0.19,3.049,0.016c1.082,0.228,2.185,0.204,3.261,0.476
			c1.012,0.256,2.099,0.209,3.113,0.458c3.321,0.817,6.647,1.608,9.943,2.538c2.501,0.706,4.939,1.582,7.41,2.362
			c2.47,0.78,4.888,1.702,7.163,3.02c1.055,0.611,2.035,1.276,2.903,2.085C139.027,56.964,139.554,57.227,140.286,57.09z"/>
		<path fill="#7F7C7C" d="M124.815,169.998c-0.891,2.065-1.762,4.145-3.128,5.954c-0.782,1.035-1.913,1.657-3.05,2.208
			c-3.377,1.634-6.827,3.12-10.134,4.9c-2.221,1.196-4.452,2.388-6.423,3.984c-0.735,0.595-1.477,1.223-1.625,2.258
			c-0.052,0.048-0.104,0.096-0.156,0.144c-0.438,0.279-0.853,0.608-1.318,0.828c-1.142,0.542-2.29,0.915-3.493,0.076
			c-1.367-0.954-1.987-2.69-1.424-4.381c0.724-2.176,2.199-3.877,3.666-5.57c0.853-0.985,1.796-1.895,2.625-2.899
			c0.941-1.14,1.93-2.237,2.973-3.277c1.254-1.25,2.518-2.486,3.666-3.834c1.17-1.374,0.913-3.056,0.978-4.666
			c-0.066-3.367-0.18-6.734-0.169-10.1c0.003-1.008-0.337-1.632-1.171-2.077c-0.155-0.082-0.31-0.173-0.443-0.286
			c-1.978-1.685-3.955-3.369-5.696-5.31c-1.678-1.871-3.22-3.823-4.009-6.26c0.138,0.056,0.28,0.104,0.414,0.169
			c0.752,0.363,1.125,1.122,1.704,1.641c1.159,1.039,2.482,1.894,3.719,2.849c1.615,1.246,3.278,2.442,4.802,3.793
			c1.986,1.76,4.101,3.336,6.351,4.715c2.495,1.53,5.262,2.546,7.838,3.935c1.319,0.711,2.23,1.68,2.579,3.146
			c0.415,1.744,0.464,3.54,0.732,5.307C124.759,168.148,125.139,169.056,124.815,169.998z"/>
		<path fill="#A8A8A8" d="M124.815,169.998c0.324-0.942-0.056-1.85-0.192-2.753c-0.268-1.766-0.317-3.562-0.732-5.307
			c-0.349-1.466-1.26-2.435-2.579-3.146c-2.576-1.39-5.343-2.405-7.838-3.935c-2.25-1.38-4.365-2.955-6.351-4.715
			c-1.524-1.351-3.187-2.547-4.802-3.793c-1.237-0.955-2.56-1.809-3.719-2.849c-0.579-0.52-0.952-1.278-1.704-1.641
			c-0.134-0.065-0.276-0.113-0.414-0.169c-0.296-0.583-0.324-1.245-0.511-1.842c-0.501-1.598-0.49-3.223-0.465-4.841
			c0.032-2.125,0.244-4.246,0.574-6.35c0.386-2.46,0.769-4.92,1.345-7.346c0.317-0.089,0.42-0.224,0.098-0.451
			c0.24-1.206,0.48-2.413,0.72-3.619c0.155-0.076,0.303-0.154,0.116-0.344c0.066-1.174,0.565-2.25,0.753-3.403
			c0.427-2.62,1.161-5.197,1.049-7.888c-0.023-0.549-0.096-1.095-0.145-1.643c0.554,0.406,0.947,0.187,1.423-0.228
			c1.34-1.167,2.446-2.472,2.765-4.271c0.098-0.552,0.355-0.874,0.769-1.218c0.444-0.369,0.956-0.651,1.362-1.049
			c0.391-0.384,1-0.866,0.673-1.439c-0.435-0.762-1.166-1.246-2.072-1.536c-2.287-0.731-4.638-0.545-6.96-0.555
			c-1.801-0.008-3.605,0.327-5.38,0.692c-2.108,0.434-4.201,0.922-6.284,1.481c-1.607,0.431-3.249,0.767-4.859,1.215
			c-1.411,0.392-1.792,1.157-1.076,2.413c0.472,0.829,0.536,1.77,0.928,2.607c-0.31,0.996-0.78,1.929-1.148,2.904
			c-0.749,1.984-1.652,3.91-2.458,5.873c-0.81,1.973-1.728,3.9-2.27,5.984c-0.348,1.339-0.587,2.7-0.964,4.03
			c-0.347-0.904-0.161-1.845-0.14-2.763c0.038-1.619,0.844-3.078,1.11-4.644c0.34-2.004,1.211-3.825,1.768-5.752
			c0.425-1.471,1.044-2.886,1.394-4.384c0.454-1.944,0.657-3.852-0.296-5.753c-0.53-1.059,0.102-1.82,1.18-2.318
			c1.299-0.6,2.686-0.904,3.992-1.464c0.886-0.38,1.847-0.605,2.777-0.881c1.029-0.306,2.081-0.567,3.113-0.862
			c1.597-0.456,3.199-0.888,4.838-1.098c1.695-0.218,3.369-0.67,5.109-0.524c1.153,0.097,2.278,0.408,3.452,0.354
			c1.655-0.076,3.162,0.557,4.602,1.243c1.937,0.922,3.573,2.219,4.045,4.49c0.182,0.875,0.518,1.579,1.272,2.139
			c0.794,0.59,0.739,0.802-0.15,1.256c-1.719,0.878-3.383,1.837-4.676,3.302c-1.171,1.325-2.131,2.81-3.143,4.258
			c-1.65,2.362-2.726,5.018-3.866,7.621c-0.653,1.491-1.125,3.175-1.089,4.829c0.033,1.486,0.257,3.013,0.921,4.407
			c0.065,0.137,0.189,0.278,0.183,0.413c-0.053,1.102,0.411,2.119,0.507,3.192c0.03,0.331,0.071,0.65,0.175,0.964
			c0.463,1.395,0.094,2.842,0.197,4.262c0.045,0.623-0.218,1.368-0.206,2.071c0.02,1.155,0.104,2.288,0.681,3.349
			c0.183,0.338,0.429,0.537,0.687,0.764c1.125,0.991,2.126,2.085,3.502,2.829c1.312,0.709,2.213,2.021,3.188,3.172
			c0.114,0.135,0.213,0.283,0.333,0.411c1.961,2.085,4.036,4.057,6.3,5.8c1.355,1.043,2.903,1.829,4.329,2.784
			c1.645,1.101,3.468,1.986,4.665,3.661c0.455,0.637,0.619,1.341,0.667,2.131c0.15,2.487,0.37,4.966,0.683,7.443
			c0.246,1.945,0.599,3.879,0.692,5.85c0.085,1.806,0.421,3.599,0.544,5.405c0.167,2.443,0.345,4.89,0.103,7.342
			c-0.057,0.574,0.117,1.199-0.491,1.595c-0.2-3.455-0.586-6.888-1.145-10.303c-0.38-2.318-0.759-4.636-1.14-6.954
			C125.098,170.293,125.163,170.013,124.815,169.998z"/>
		<path fill="#A8A8A8" d="M81.907,63.503c1.132-0.016,2.265-0.111,3.326-0.5c0.664-0.244,1.006-0.972,1.621-1.347
			c1.361-0.83,2.665-1.641,4.406-1.535c2.063,0.126,4.111,0.333,6.155,0.612c0.801,0.109,1.605,0.021,2.417,0.149
			c1.928,0.304,3.859,0.575,5.78,0.939c1.29,0.245,2.63,0.235,3.949,0.302c0.487,0.024,0.958,0.027,1.385,0.302
			c0.219,0.141,0.471,0.164,0.73,0.166c2.726,0.023,5.439,0.466,8.142,0.492c2.162,0.021,4.227,0.506,6.289,0.832
			c2.283,0.361,4.607,0.401,6.864,0.91c0.885,0.2,1.765-0.039,2.637-0.132c0.821-0.088,1.647-0.267,2.43-0.529
			c0.627-0.21,1.163-0.02,1.735,0.106c-0.165,0.66-0.329,1.32-0.496,1.979c-0.112,0.441-0.123,0.748,0.488,0.837
			c3.193,0.465,6.375,1.008,9.586,1.348c0.174,0.683-0.42,0.586-0.706,0.578c-1.943-0.053-3.846-0.463-5.763-0.743
			c-1.163-0.17-2.321-0.368-3.485-0.532c-0.192-0.027-0.522-0.157-0.56,0.169c-0.032,0.271,0.3,0.179,0.465,0.258
			c0.319,0.152,0.72-0.012,1.006,0.262c-0.144,0.031-0.301,0.117-0.429,0.086c-1.172-0.282-1.735,0.352-2.074,1.344
			c-0.007,0.02-0.038,0.032-0.058,0.047c-0.385-0.297-0.772-0.179-1.129,0.032c-1.444,0.854-3.035,1.101-4.669,1.373
			c-2.653,0.442-5.325,0.272-7.982,0.51c-1.555,0.14-3.149,0.037-4.73-0.06c-1.838-0.113-3.652-0.354-5.471-0.595
			c-0.724-0.096-1.457-0.127-2.181-0.175c-2.662-0.178-5.301-0.59-7.975-0.66c-1.743-0.046-3.487,0.048-5.231-0.113
			c-1.861-0.172-3.732-0.092-5.598-0.009c-0.896,0.04-1.747,0.234-2.442,0.868c-0.203,0.186-0.427,0.366-0.672,0.487
			c-1.057,0.521-0.915,0.82-0.645,1.991c0.055,0.24,0.248,0.42-0.164,0.445c-0.233-0.128-0.341-0.357-0.477-0.57
			c-0.887-1.387-1.634-2.845-2.118-4.419c-0.224-0.731-0.723-1.073-1.351-1.408c-0.496-0.265-1.156-0.407-1.334-1.09
			c0.348-0.249,0.679-0.029,1.011,0.043c0.805,0.176,0.978,0.002,0.803-0.822c-0.097-0.457-0.329-0.715-0.835-0.681
			c-0.218,0.015-0.462,0.066-0.848-0.193c0.418,0,0.641,0.009,0.862-0.003c0.215-0.011,0.493,0.056,0.52-0.282
			c0.023-0.281,0.009-0.559-0.284-0.728c-0.252-0.146-0.535-0.118-0.804-0.169c-0.698-0.135-1.389,0.352-2.081,0.004
			C81.919,63.618,81.913,63.561,81.907,63.503z"/>
		<path fill="#A8A8A8" d="M107.971,165.722c-0.065,1.61,0.192,3.293-0.978,4.666c-1.148,1.348-2.413,2.584-3.666,3.834
			c-1.043,1.04-2.032,2.137-2.973,3.277c-0.829,1.004-1.771,1.914-2.625,2.899c-1.467,1.693-2.942,3.393-3.666,5.57
			c-0.562,1.691,0.058,3.427,1.424,4.381c1.203,0.84,2.351,0.466,3.493-0.076c0.466-0.221,0.88-0.549,1.318-0.828
			c0.094,0.064,0.188,0.129,0.282,0.193c0.002,0.185,0.005,0.37,0.007,0.555c-0.307,0.123-0.309,0.239,0.008,0.348
			c0,0.093,0,0.186-0.001,0.279c-0.435,0.265-0.386,0.839-0.75,1.158c-1.02,0.895-1.966,1.872-3.194,2.513
			c-1.462,0.763-3.03,1.397-4.053,2.792c-0.907,1.237-1.995,2.374-1.738,4.147c0.162,1.115,0.457,2.023,1.64,2.364
			c0.652,0.188,1.299,0.381,1.991,0.429c0.979,0.069,1.94,0.223,2.844,0.688c0.894,0.46,1.775,0.951,2.687,1.381
			c0.608,0.287,1.381,0.405,1.843,0.938c0.838,0.969,1.967,0.781,3.002,0.783c1.072,0.002,1.931-0.792,2.944-1.078
			c-0.229,1.529-0.523,3.039-1.261,4.422c-0.423,0.112-0.501,0.637-0.912,0.763c-0.331-0.004-0.637,0.082-0.957,0.175
			c-1.124,0.325-2.222,0.761-3.427,0.757c-1.064-0.004-2.108-0.149-3.148-0.332c-1.112-0.196-2.16-0.651-3.21-1.022
			c-0.745-0.263-1.473-0.769-2.153-1.302c-1.008-0.789-2.097-1.494-3.082-2.318c-0.794-0.664-1.614-1.314-2.273-2.131
			c-0.048-0.06-0.191-0.044-0.29-0.063c-0.671-0.992-1.03-2.122-1.424-3.235c-1.076-3.035-1.721-6.197-2.704-9.261
			c-0.385-1.199-0.871-2.369-1.116-3.612c0.08-0.996,0.662-1.816,0.986-2.725c0.765-2.143,1.666-4.237,2.512-6.35
			c0.227,0.762,0.835,0.947,1.523,0.999c0.777,0.059,1.55,0.133,2.301,0.364c0.493,0.152,0.986,0.125,1.488-0.011
			c1.458-0.396,2.698-1.208,3.856-2.119c0.683-0.538,1.546-0.936,1.878-1.847c0.329-0.272,0.675-0.527,0.984-0.819
			c2.683-2.542,5.243-5.206,7.773-7.9C106.212,168.243,107.536,167.327,107.971,165.722z"/>
		<path fill="#A8A8A8" d="M58.75,50.147c-0.446-0.575,0.021-0.96,0.342-1.291c1.245-1.286,2.853-1.959,4.504-2.54
			c0.211-0.074,0.437-0.108,0.656-0.16c0.116,0.193,0.299,0.18,0.471,0.128c1.483-0.448,3.01-0.598,4.543-0.777
			c2.106-0.246,4.104,0.136,6.09,0.744c-0.609,0.194-1.309,0.263-1.854,0.126c-1.174-0.296-2.289-0.056-3.293,0.318
			c-1.673,0.623-3.39,1.096-5.068,1.691c-0.202,0.072-0.511,0.064-0.511,0.362c0,0.29,0.158,0.517,0.469,0.617
			c0.925,0.296,1.682,1.048,2.732,1.011c0.745-0.026,1.282,0.644,1.995,0.643c0.73-0.001,1.202,0.347,1.561,0.901
			c0.292,0.45,0.647,0.814,1.055,1.165c0.711,0.612,1.032,1.499,1.227,2.377c0.372,1.68,0.02,3.364-0.234,5.019
			c-0.378,2.462-1.031,4.87-1.631,7.288c-0.576,2.322-1.492,4.546-1.887,6.921c-0.237,1.427-1.107,2.67-1.206,4.179
			c-0.071,1.085-0.031,2.025,0.876,2.717c0.485,0.37,0.571,0.851,0.614,1.394c0.023,0.3-0.193,0.722,0.229,0.87
			c0.392,0.137,0.813,0.062,1.147-0.221c0.501-0.424,0.984-0.869,1.478-1.301c0.199-0.174,0.345-0.472,0.696-0.333
			c-1.077,1.586-2.341,3.019-3.726,4.333c-0.792,0.751-1.642,1.422-2.796,1.692c-3.235,0.757-5.588-0.807-7.756-2.835
			c-1.129-1.057-2.065-2.297-2.913-3.602c-1.141-1.756-2.412-3.426-3.312-5.338c-0.18-0.382-0.338-0.918-0.878-1.062
			c-0.659-1.401-1.144-2.85-1.184-4.415c-0.008-0.318-0.053-0.67,0.283-0.887c0.173,0.206,0.402,0.189,0.634,0.158
			c0,0-0.002-0.003-0.002-0.003c-0.011,0.43,0.476,0.414,0.626,0.699c-0.4,0.512-0.263,1.194,0.357,1.91
			c1.238,1.429,2.194,3.084,3.564,4.411c0.915,0.886,1.707,1.915,3.011,2.286c0.804,0.229,1.355-0.194,1.43-1
			c0.066-0.709-0.218-1.308-0.417-1.941c0.757,0.185,1.532,0.273,2.298,0.173c0.695-0.091,1.333-0.367,1.648-1.083
			c3.656-3.911,4.841-8.842,5.69-13.897c0.27-1.608-0.125-3.171-0.6-4.706c0.247-0.243,0.045-0.478-0.035-0.693
			c-0.631-1.682-1.995-2.627-3.534-3.306c-2.242-0.99-4.529-1.876-6.795-2.81C59.128,49.991,58.922,49.881,58.75,50.147z"/>
		<path fill="#CFCECE" d="M73.751,81.997c-0.351-0.139-0.496,0.158-0.696,0.333c-0.494,0.432-0.977,0.877-1.478,1.301
			c-0.334,0.282-0.755,0.358-1.147,0.221c-0.422-0.148-0.205-0.57-0.229-0.87c-0.042-0.544-0.129-1.024-0.614-1.394
			c-0.908-0.692-0.948-1.633-0.876-2.717c0.099-1.509,0.969-2.752,1.206-4.179c0.395-2.375,1.311-4.599,1.887-6.921
			c0.599-2.418,1.253-4.827,1.631-7.288c0.254-1.655,0.606-3.34,0.234-5.019c-0.194-0.878-0.516-1.765-1.227-2.377
			c-0.408-0.351-0.763-0.715-1.055-1.165c-0.359-0.554-0.831-0.902-1.561-0.901c-0.713,0.001-1.25-0.669-1.995-0.643
			c-1.05,0.037-1.807-0.715-2.732-1.011c-0.31-0.099-0.468-0.327-0.469-0.617c0-0.299,0.308-0.29,0.511-0.362
			c1.678-0.595,3.394-1.068,5.068-1.691c1.004-0.374,2.119-0.614,3.293-0.318c0.544,0.137,1.244,0.068,1.854-0.125
			c0.998,0.245,1.826,0.767,2.502,1.535c-0.149,0.002-0.305,0.036-0.445,0.002c-0.401-0.1-0.362,0.095-0.283,0.365
			c0.146,0.505,0.676,0.781,0.811,1.261c0.675,2.402,1.701,4.71,2.104,7.177c0.269,1.647-0.065,3.312-0.334,4.958
			c-0.315,1.928-0.781,3.824-1.049,5.767c-0.189,1.366-0.564,2.734-0.871,4.097c-0.308,1.368-0.582,2.744-0.911,4.107
			c-0.135,0.558-0.376,1.091-0.573,1.633c-0.084,0.23-0.322,0.56-0.067,0.678c0.35,0.162,0.282-0.301,0.417-0.477
			c0.472-0.616,0.662-1.496,1.581-1.695c-0.08,0.172-0.159,0.345-0.239,0.517c-0.699,1.132-1.398,2.264-2.096,3.396l-0.036,0.024
			c-0.171,0.126-0.339,0.254-0.347,0.494l0.003-0.004C74.815,80.615,74.425,81.437,73.751,81.997z"/>
		<path fill="#7F7C7C" d="M141.087,43.118c1.166,0.535,2.423,0.851,3.546,1.491c0.418,0.239,0.987,0.503,0.9,0.961
			c-0.06,0.316-0.724,0.286-1.15,0.323c-1.006,0.088-2.011,0.161-3.022,0.13c-0.372-0.011-0.654,0.162-0.717,0.538
			c-0.069,0.408,0.26,0.532,0.563,0.571c1.296,0.167,2.512,0.695,3.848,0.733c0.889,0.025,1.759,0.38,2.666,0.47
			c0.412,0.041,0.497,0.406,0.168,0.725c-0.432,0.418-0.885,0.815-1.329,1.222c0,0,0.007-0.007,0.007-0.007
			c-0.223-0.002-0.419,0.04-0.488,0.294c-2.043,0.996-4.199,1.689-6.363,2.359c-0.058-0.22-0.234-0.371-0.332-0.577
			c-0.307-0.649-0.657-1.321-1.102-1.846c-0.637-0.752-1.389-1.487-2.445-1.709c-0.172-0.036-0.369-0.047-0.506-0.141
			c-1.588-1.086-3.477-1.416-5.25-1.972c-2.517-0.79-5.182-1.004-7.789-1.401c-3.104-0.472-6.23-0.817-9.375-0.974
			c-0.655-0.033-1.303,0.137-1.946-0.005c-1.372-0.304-2.769-0.097-4.153-0.186c-1.498-0.096-3.021,0.099-4.527,0.23
			c-1.856,0.161-3.727,0.206-5.546,0.7c-1.604,0.435-3.175,0.956-4.725,1.552c-2.774,1.067-4.986,2.697-5.97,5.661
			c-0.137,0.412-0.06,0.938-0.503,1.233c-1.268-0.427-2.481-0.968-3.555-1.779c-0.505-0.382-0.981-0.8-1.056-1.494
			c0.159-1.156,1.066-1.703,1.888-2.316c1-0.746,2.214-0.939,3.373-1.236c0.686-0.176,1.289-0.523,1.952-0.741
			c1.358-0.447,2.731-0.813,4.123-1.118c1.65-0.362,3.3-0.729,4.962-1.029c2.332-0.421,4.672-0.802,7.014-1.163
			c1.972-0.304,3.952-0.555,5.928-0.83c0.125-0.017,0.25-0.066,0.374-0.061c1.898,0.073,3.769-0.285,5.647-0.444
			c1.686-0.142,3.386-0.036,5.044-0.283c1.492-0.222,2.975-0.233,4.447-0.147c3.017,0.176,6.039,0.296,9.043,0.732
			c1.951,0.283,3.898,0.523,5.785,1.111c0.264,0.082,0.523,0.182,0.782,0.278c0.111,0.041,0.196,0.103,0.009,0.157
			c-0.069,0.02-0.15-0.001-0.225-0.003c-0.132-0.106-0.267-0.184-0.477-0.052C140.797,43.091,140.942,43.105,141.087,43.118z
			 M81.305,50.114c-0.017-0.01-0.033-0.019-0.05-0.029c0.014,0.012,0.028,0.024,0.043,0.036c0.75,1.891,2.588,2.087,4.142,2.725
			c-0.209-0.227-0.449-0.414-0.716-0.546c-0.745-0.37-0.818-0.998-0.601-1.673c0.176-0.545,0.421-1.073,1.12-1.195
			c0.382-0.066,0.602-0.997,0.288-1.179c-0.319-0.185-0.714-0.311-1.087-0.228c-0.361,0.08-0.344,0.466-0.388,0.75
			c-0.054,0.343,0.024,0.71-0.331,0.956C82.976,50.249,82.221,50.678,81.305,50.114z"/>
		<path fill="#A8A8A8" d="M144.452,99.22c-0.41,0.447,0.021,0.781,0.216,1.061c0.763,1.092,1.582,2.144,2.391,3.203
			c0.365,0.478,0.612,0.433,0.844-0.13c0.048-0.117,0.101-0.237,0.119-0.36c0.282-1.95,1.729-2.778,3.332-3.436
			c1.153-0.474,1.772-1.378,2.097-2.518c0.149-0.523,0.677-0.841,1.444-0.781c-0.879,3.157-1.737,6.323-3.451,9.164
			c-0.311,0.515-0.599,1.052-1.086,1.436c-0.336-0.632-0.683-0.535-1.249-0.185c-1.78,1.102-3.606,0.526-5.364-0.097
			c-2.606-0.923-4.91-2.421-7.041-4.145c-1.042-0.843-1.998-1.83-2.804-2.929c-0.105-0.143-0.213-0.352-0.393-0.316
			c-0.275,0.055-0.182,0.332-0.17,0.51c0.049,0.723-0.432,1.332-0.355,2.053c-0.355,0.011-0.345-0.233-0.401-0.407
			c-1.186-3.657-2.591-7.232-3.994-10.808c-0.199-0.506-0.357-0.972-0.129-1.583c0.189-0.507,0.022-1.146,0.013-1.727
			c0.685,0.552,1.544,0.611,2.348,0.818c2.479,0.639,5.001,1.083,7.485,1.711c2.601,0.657,5.253,1.105,7.846,1.817
			c1.105,0.304,2.251,0.457,3.373,0.705c1.224,0.272,2.443,0.569,3.662,0.866c1.475,0.359,2.951,0.714,4.419,1.101
			c1.55,0.408,3.193,0.454,4.66,1.169c0.539,0.263,1.087,0.188,1.636,0.184c0.345-0.002,0.542-0.23,0.609-0.569
			c0.14-0.712,0.4-1.424,0.395-2.134c-0.005-0.732,0.636-1.588-0.275-2.214c0.876-0.114,1.002,0.029,0.899,0.845
			c-0.177,1.401-0.494,2.779-0.594,4.193c-0.089,1.246-0.504,1.523-1.702,1.024c-2.461-1.025-5.034-1.655-7.61-2.273
			c-3.634-0.871-7.277-1.712-10.929-2.503c-3.998-0.866-8.01-1.662-12.018-2.482c-0.261-0.053-0.614-0.297-0.776-0.04
			c-0.181,0.288,0.185,0.783,0.3,0.828c0.848,0.332,0.936,1.294,1.584,1.776c0.421,0.313,0.757,0.738,1.161,1.077
			c0.167,0.14,0.314,0.473,0.628,0.251c0.25-0.176,0.192-0.445,0.147-0.695c-0.027-0.147-0.067-0.293-0.1-0.439
			c0.223,0.016,0.351,0.185,0.508,0.309c1.666,1.316,3.343,2.619,4.997,3.951C142.238,97.401,143.423,98.215,144.452,99.22z"/>
		<path fill="#CFCECE" d="M107.81,206.936c-1.012,0.286-1.872,1.08-2.944,1.078c-1.035-0.002-2.164,0.186-3.002-0.783
			c-0.462-0.534-1.234-0.651-1.843-0.938c-0.912-0.431-1.793-0.921-2.687-1.381c-0.904-0.465-1.865-0.62-2.844-0.688
			c-0.691-0.048-1.339-0.241-1.991-0.429c-1.182-0.342-1.478-1.249-1.64-2.364c-0.257-1.773,0.832-2.91,1.738-4.147
			c1.022-1.395,2.591-2.029,4.053-2.792c1.229-0.641,2.174-1.618,3.194-2.513c0.364-0.32,0.315-0.894,0.75-1.158
			c0.256,0.913,0.397,1.852,0.694,2.758c0.644,1.964,1.532,3.788,2.858,5.385c0.611,0.736,1.472,1.13,2.267,1.593
			c0.886,0.516,1.376,1.168,1.594,2.215C108.307,204.207,108.196,205.563,107.81,206.936z"/>
		<path fill="#A8A8A8" d="M85.546,53.492c0.443-0.294,0.366-0.82,0.503-1.233c0.984-2.964,3.196-4.594,5.97-5.661
			c1.55-0.596,3.121-1.117,4.725-1.552c1.819-0.494,3.69-0.538,5.546-0.7c1.506-0.131,3.029-0.326,4.527-0.23
			c1.384,0.088,2.781-0.118,4.153,0.186c0.643,0.142,1.291-0.027,1.946,0.005c3.144,0.157,6.271,0.502,9.375,0.974
			c2.607,0.396,5.272,0.61,7.789,1.401c1.773,0.556,3.663,0.886,5.25,1.972c0.137,0.094,0.334,0.105,0.506,0.141
			c1.056,0.222,1.808,0.957,2.445,1.709c0.445,0.525,0.795,1.197,1.102,1.846c0.098,0.206,0.274,0.358,0.332,0.577
			c0.102,1.02,0.492,1.994,0.483,3.035c-0.003,0.375,0.057,0.751,0.088,1.127c-0.732,0.137-1.259-0.126-1.816-0.646
			c-0.868-0.81-1.847-1.474-2.903-2.085c-2.275-1.318-4.693-2.24-7.163-3.02c-2.471-0.78-4.91-1.657-7.41-2.362
			c-3.296-0.93-6.622-1.721-9.943-2.538c-1.014-0.249-2.101-0.202-3.113-0.458c-1.076-0.272-2.179-0.248-3.261-0.476
			c-0.98-0.206-2.031-0.287-3.049-0.016c-0.121,0.032-0.251,0.069-0.372,0.055c-1.615-0.189-3.167,0.288-4.736,0.508
			c-0.684,0.096-1.405,0.261-2.072,0.627c-0.85,0.466-1.808,0.722-2.688,1.164c-1.32,0.663-2.444,1.547-3.451,2.613
			c-0.852,0.901-1.753,1.756-2.172,2.974c-0.081,0.236-0.317,0.308-0.556,0.325C85.57,53.666,85.558,53.579,85.546,53.492z"/>
		<path fill="#A8A8A8" d="M135.773,126.466c0.615,0.293,0.869,0.952,1.385,1.357c0.558,0.438,0.806,0.437,1.149-0.209
			c0.282-0.53,0.43-1.131,0.844-1.591c0.214,1.165-0.021,2.306-0.2,3.447c-0.407,2.585-1.39,4.993-2.344,7.403
			c-0.754,1.905-1.434,3.834-2.072,5.779c-0.101,0.309-0.211,0.616-0.344,1.002c-1.218-1.352-2.349-2.671-3.624-3.853
			c-1.646-1.527-3.393-2.905-5.677-3.31c-1.287-0.228-2.589-0.356-3.914-0.183c-1.047,0.137-2.115,0.123-3.173,0.175
			c-0.805-1.378-0.516-2.509,1.023-3.418c1.937-1.144,4.066-1.789,6.314-1.844c1.341-0.033,2.686-0.143,3.973-0.397
			c1.174-0.231,2.385-0.495,3.511-0.986c0.409-0.179,0.835-0.35,1.312-0.179c0.12,0.043,0.345,0.004,0.424-0.084
			c0.445-0.494,1.105-0.595,1.627-0.937c0.457-0.299,0.675-0.653,0.239-1.175C135.997,127.185,135.697,126.901,135.773,126.466z"/>
		<path fill="#A8A8A8" d="M121.607,201.771c1.456,0.375,2.787,1.089,4.261,1.458c1.178,0.296,2.348,0.516,3.504,0.343
			c1.507-0.225,3.03-0.372,4.518-0.761c2.974-0.777,5.772-2.122,8.789-2.727c1.497-0.3,3.009-0.438,4.557,0.03
			c1.214,0.367,2.499,0.508,3.782,0.65c1.792,0.198,3.563-0.067,5.347,0.072c2.013,0.156,4.02-0.223,6.021-0.447
			c2.148-0.24,4.285-0.573,6.424-0.89c0.745-0.11,1.479-0.294,2.219-0.443c-0.094,0.451-0.179,0.906-0.593,1.199
			c-0.976-0.227-1.88,0.21-2.819,0.319c-1.849,0.213-3.691,0.481-5.538,0.716c-1.348,0.172-2.695,0.419-4.048,0.469
			c-2.144,0.079-4.258,0.441-6.369,0.714c-1.746,0.225-3.503,0.638-5.23,1.107c-2.473,0.673-4.967,1.268-7.439,1.953
			c-2.61,0.724-5.228,1.455-7.882,1.976c-2.211,0.435-4.421,1.002-6.707,0.967c-0.175-0.003-0.413-0.037-0.475,0.151
			c-0.164,0.499-0.468,0.139-0.71,0.15c-0.874-2.016-1.928-3.982-1.752-6.289C121.485,202.247,121.407,201.98,121.607,201.771z"/>
		<path fill="#CFCECE" d="M187.789,60.324c0.1-0.018,0.2-0.036,0.3-0.054c-0.002,0.069-0.003,0.138-0.004,0.208
			c-0.011,0.371-0.3,0.435-0.571,0.501c-1.376,0.336-2.51,1.081-3.561,2.009c-1.415,1.249-2.885,2.436-4.307,3.676
			c-0.907,0.791-1.707,1.719-2.669,2.43c-1.377,1.017-2.008,2.563-2.911,3.893c-0.713,1.051-1.277,2.273-1.506,3.584
			c-0.051,0.293-0.189,0.572-0.295,0.855c-0.361,0.969-0.669,1.946-0.859,2.972c-0.22,1.183-0.598,2.336-0.892,3.506
			c-0.452,1.804-0.783,3.635-1.232,5.443c-0.448,1.799-0.853,3.636-0.992,5.478c-0.136,1.811,0.138,3.586,1.14,5.259
			c1.081,1.807,2.354,3.428,3.72,5.007c1.714,1.98,3.963,3.111,6.329,4.031c3.332,1.297,6.829,1.897,10.367,2.314
			c2.101,0.247,4.207,0.425,6.316,0.538c0.767,0.041,1.534-0.272,2.319-0.25c0.243,0.007,0.514-0.083,0.709,0.157
			c-0.886,0.362-1.738,0.821-2.706,0.951c-0.164-0.058-0.289-0.01-0.376,0.14c-0.69,0.049-1.38,0.097-2.071,0.146
			c-1.038-0.004-2.081-0.07-3.113,0.002c-2.57,0.18-5.121,0.388-7.709,0.039c-1.809-0.244-3.543-0.737-5.29-1.181
			c-1.128-0.286-2.269-0.72-3.254-1.329c-2.608-1.612-4.464-3.954-5.904-6.631c-0.447-0.83-0.812-1.704-1.194-2.565
			c-0.31-0.699-0.686-1.412-0.877-2.129c-0.461-1.734-0.254-3.528,0.067-5.26c0.262-1.415,0.618-2.825,0.898-4.237
			c0.387-1.948,0.861-3.877,1.233-5.828c0.27-1.419,0.696-2.81,1.102-4.2c0.485-1.658,1.035-3.287,1.79-4.857
			c0.336-0.698,0.997-1.302,0.904-2.188c0.161-0.293,0.595-0.385,0.592-0.799c0.45,0.038,0.466-0.254,0.441-0.578
			c0,0,0.026-0.027,0.027-0.027c0.851-0.323,1.287-1.024,1.639-1.801c0,0,0.03-0.036,0.031-0.035c0.582-0.09,0.926-0.394,0.92-1.016
			c0,0,0.007-0.009,0.008-0.008c0.281,0.071,0.453-0.128,0.676-0.237c0.527-0.258,0.668-0.872,1.147-1.152
			c0.744-0.434,1.345-1.075,1.916-1.665c1.213-1.254,2.483-2.377,4.034-3.184c0.286-0.149,0.691-0.28,0.579-0.763
			c0.115-0.063,0.231-0.126,0.346-0.189c0.028,0.099,0.094,0.19,0.19,0.133c0.055-0.032,0.053-0.16,0.076-0.245
			c0.095-0.021,0.19-0.042,0.285-0.063c0.249,0.093,0.469,0.132,0.469-0.246c0.097-0.022,0.194-0.043,0.292-0.064
			c0.348,0.058,0.661,0.036,0.821-0.348c0.1-0.016,0.199-0.031,0.299-0.047C187.665,60.665,187.736,60.523,187.789,60.324z"/>
		<path fill="#7F7C7C" d="M123.219,208.778c0.242-0.011,0.546,0.35,0.71-0.15c0.062-0.188,0.3-0.154,0.475-0.151
			c2.286,0.035,4.496-0.532,6.707-0.967c2.655-0.522,5.272-1.253,7.882-1.976c2.472-0.685,4.966-1.281,7.439-1.953
			c1.727-0.47,3.484-0.882,5.23-1.107c2.112-0.272,4.226-0.635,6.369-0.714c1.353-0.05,2.7-0.297,4.048-0.469
			c1.846-0.235,3.689-0.503,5.538-0.716c0.939-0.108,1.842-0.546,2.819-0.319c-0.758,0.907-1.84,1.274-2.886,1.667
			c-2.934,1.103-6.021,1.678-9.033,2.508c-1.563,0.43-3.164,0.784-4.74,1.186c-1.885,0.481-3.801,0.842-5.661,1.437
			c-1.024,0.328-2.119,0.428-3.175,0.665c-0.887,0.199-1.752,0.556-2.647,0.653c-2.165,0.234-4.247,0.873-6.388,1.23
			c-1.557,0.26-3.156,0.355-4.683,0.821c-0.457,0.14-0.952,0.069-1.419,0.091c-1.112,0.054-2.218,0.467-3.348,0.099
			c-0.397-0.13-0.822,0.002-1.253-0.132C124.275,210.19,123.617,209.653,123.219,208.778z"/>
		<path fill="#7F7C7C" d="M73.751,81.997c0.674-0.56,1.065-1.382,1.772-1.911c0.106,0.574-0.56,0.901-0.48,1.513
			c0.422-0.093,0.817-0.241,1.21-0.343c0.222-0.058,0.799-0.209,0.666-0.547c-0.187-0.474-0.016-0.992-0.26-1.445
			c-0.312,0.213-0.477,0.278-0.756,0.308c0.699-1.132,1.398-2.264,2.096-3.397c0.167-0.002,0.335-0.004,0.503-0.006l0.041,0.001
			c0,0,0.018-0.037,0.018-0.037c0.004,0.15,0.008,0.3,0.012,0.45c-0.263,0.581-0.147,1.213-0.245,1.816
			c-0.317,0.497-0.157,0.854,0.405,0.865c0.249,0.005,0.503-0.09,0.749-0.069c1.772,0.152,3.534,0.325,5.284,0.709
			c3.167,0.694,6.371,1.218,9.541,1.898c0.861,0.185,1.834,0.1,2.564,0.762c-0.603,0.233-1.231,0.208-1.86,0.186
			c-0.09-0.145-0.239-0.166-0.391-0.196c-3.496-0.697-6.989-1.406-10.487-2.092c-1.588-0.312-3.182-0.611-4.817-0.494
			c-0.514,0.037-0.515,0.022-0.994,0.52c1.56-0.415,2.974-0.288,4.363-0.03c3.526,0.654,7.043,1.358,10.558,2.069
			c0.451,0.091,0.968,0.077,1.32,0.475c-1.007,0.362-2.003,0.313-3.05,0.089c-2.847-0.607-5.7-1.186-8.569-1.695
			c-1.752-0.31-2.935,0.157-3.982,1.661c-1.578,2.267-3.473,4.292-5.779,5.873c-1.622,1.112-3.405,1.506-5.349,1.125
			c-0.869-0.17-1.741-0.335-2.617-0.464c-2.499-0.37-4.507-1.637-6.177-3.452c-2.948-3.203-5.084-6.914-6.67-10.953
			c0.54,0.144,0.698,0.68,0.878,1.062c0.9,1.912,2.171,3.582,3.312,5.338c0.848,1.305,1.783,2.546,2.913,3.602
			c2.168,2.028,4.52,3.591,7.756,2.835c1.154-0.27,2.004-0.941,2.796-1.692C71.409,85.016,72.674,83.583,73.751,81.997z
			 M74.763,81.919c0.009-0.019,0.017-0.039,0.026-0.058c-0.012,0.016-0.023,0.032-0.035,0.048c-0.008,0.017-0.015,0.033-0.023,0.05
			C74.741,81.946,74.752,81.933,74.763,81.919z"/>
		<path fill="#7F7C7C" d="M217.561,85.727c-0.108,0.705-0.64,0.481-1.002,0.386c-0.978-0.255-1.935-0.587-2.901-0.889
			c-0.086-0.246-0.323-0.305-0.519-0.409c-3.288-1.751-6.455-3.718-9.728-5.493c-1.762-0.956-3.464-2.068-5.442-2.58
			c-0.035-0.028-0.068-0.06-0.106-0.083c-0.01-0.006-0.035,0.01-0.054,0.017c0.054,0.021,0.108,0.042,0.162,0.063
			c0.099,0.307,0.661,0.154,0.607,0.613c-0.355,0.001-0.71,0.002-1.066,0.003c-0.158-0.413-0.243-0.118-0.343,0.035
			c-2.661,0.682-4.592,2.349-6.154,4.53c-1.349,1.884-2.304,3.973-3.241,6.075c-0.101-0.001-0.216-0.035-0.299,0.003
			c-0.77,0.353-1.514,0.425-2.377,0.213c-0.37-0.091-1.072,0.079-1.324,0.823c-0.21,0.622-0.213,1.418-0.914,1.817
			c0.018-0.19,0.035-0.381,0.053-0.571c0.183-0.123,0.193-0.273,0.068-0.444c0.016-0.092,0.033-0.183,0.049-0.275
			c0.207-0.127,0.216-0.316,0.159-0.523c0.197-0.637,0.394-1.274,0.591-1.911c0.161-0.079,0.204-0.21,0.163-0.377
			c0.074-0.291,0.147-0.582,0.221-0.874c0.202-0.5,0.403-1,0.605-1.5c0.306-0.05,0.358-0.326,0.465-0.542
			c0.245-0.493,0.5-0.983,0.708-1.492c0.467-1.14,1.335-2.05,1.796-3.19c0.019-0.038,0.037-0.076,0.053-0.114
			c0.177-0.039,0.273-0.146,0.273-0.331c0.506-0.513,1.012-1.027,1.518-1.54c0.554-0.221,1.031-0.548,1.403-1.02
			c0.04-0.014,0.079-0.029,0.119-0.044c0.142-0.043,0.299-0.059,0.425-0.131c2.08-1.193,4.202-0.995,6.358-0.233
			c1.966,0.695,3.757,1.742,5.57,2.741c2.322,1.28,4.6,2.636,6.843,4.054c1.019,0.644,2.032,1.32,3.228,1.619
			c0.336,0.145,0.672,0.289,1.009,0.433C215.417,85.302,216.531,85.405,217.561,85.727z M194.926,76.173
			c0.801,0.123,1.603,0.246,2.404,0.368C196.55,76.286,195.758,76.107,194.926,76.173z"/>
		<path fill="#CFCECE" d="M189.072,105.42c-1.116,0.101-1.813-0.701-2.65-1.213c-0.97-0.593-1.34-1.622-1.964-2.478
			c-0.748-1.025-1.213-2.134-1.675-3.272c-0.24-0.591-0.343-1.204-0.33-1.85c0.026-1.316,0.005-2.633,0.013-3.949
			c0.001-0.242-0.086-0.514,0.158-0.706c0.298,0.005,0.463-0.391,0.884-0.15c0.858,0.491,1.826,0.649,2.821,0.558
			c-0.145,1.145-0.366,2.276-0.455,3.435c-0.178,2.318,0.397,4.408,1.738,6.261c1.446,1.999,3.592,3.029,5.804,3.937
			c0.477,0.196,1.08,0.326,0.851,1.088c-2.396-0.977-4.809-1.914-7.152-3.026C187.659,104.683,188.506,104.842,189.072,105.42z
			 M186.716,103.812c0.013,0.01,0.026,0.019,0.039,0.029c-0.016-0.007-0.031-0.014-0.047-0.022l-0.034-0.043
			C186.675,103.776,186.716,103.812,186.716,103.812z"/>
		<path fill="#CFCECE" d="M187.793,79.036c-0.017,0.039-0.035,0.077-0.053,0.114c-1.363,1.529-2.377,3.257-2.97,5.224
			c-0.202,0.5-0.403,1-0.605,1.5c-0.285-0.207-0.199-0.501-0.157-0.765c0.24-1.506,0.825-2.917,1.522-4.233
			c0.893-1.685,1.865-3.372,3.256-4.712c1.681-1.619,3.532-3.083,5.945-3.335c1.988-0.208,3.796,0.622,5.503,1.557
			c1.319,0.722,2.575,1.561,3.86,2.344c1.289,0.786,2.507,1.666,3.67,2.634c0.595,0.495,1.253,0.923,1.892,1.369
			c1.184,0.828,2.445,1.557,3.51,2.553c0.156,0.146,0.165,0.298,0.142,0.477c-0.561-0.087-1.015-0.473-1.424-0.764
			c-1.1-0.782-2.205-1.551-3.328-2.302c-1.791-1.198-3.642-2.276-5.562-3.252c-2.153-1.095-4.201-2.401-6.711-2.621
			c-1.694-0.148-3.312-0.093-4.804,0.832c-0.181,0.112-0.334,0.225-0.374,0.445c-0.039,0.015-0.079,0.03-0.119,0.044
			c-0.651,0.088-1.094,0.461-1.403,1.02c-0.506,0.513-1.012,1.027-1.518,1.54C187.873,78.73,187.784,78.843,187.793,79.036z"/>
		<path fill="#7F7C7C" d="M87.098,205.884c0.099,0.019,0.241,0.003,0.29,0.063c0.658,0.817,1.479,1.466,2.273,2.131
			c0.985,0.824,2.074,1.528,3.082,2.318c0.68,0.533,1.408,1.039,2.153,1.302c1.05,0.371,2.098,0.826,3.21,1.022
			c1.04,0.183,2.084,0.328,3.148,0.332c1.205,0.004,2.303-0.432,3.427-0.757c0.32-0.092,0.626-0.178,0.957-0.175
			c-0.11,0.208-0.352,0.334-0.373,0.597c-0.193-0.016-0.393,0.001-0.333,0.261c0.106,0.46-0.202,0.561-0.522,0.676
			c-1.695,0.611-3.462,0.902-5.242,1.009c-1.712,0.102-3.435,0.047-5.152,0.016c-0.597-0.011-1.195-0.136-1.785-0.247
			c-0.218-0.041-0.434-0.187-0.379-0.479c0.039-0.205,0.209-0.306,0.392-0.285c0.669,0.077,1.225-0.47,1.906-0.327
			c0.146,0.031,0.32-0.012,0.355-0.199c0.037-0.193-0.135-0.254-0.265-0.32c-0.38-0.194-0.766-0.376-1.15-0.564
			c-0.731-0.502-1.389-1.11-2.19-1.51c-0.552-0.54-1.178-1.024-1.639-1.633C88.478,208.084,87.54,207.146,87.098,205.884z"/>
		<path fill="#A8A8A8" d="M96.87,82.563c-0.73-0.662-1.703-0.577-2.564-0.762c-3.17-0.68-6.374-1.204-9.541-1.898
			c-1.75-0.384-3.512-0.557-5.284-0.709c-0.246-0.021-0.5,0.073-0.749,0.069c-0.561-0.01-0.722-0.367-0.404-0.865
			c0.383,0.337,0.772-0.02,1.163,0.004c1.897,0.114,3.765-0.027,5.681,0.536c2.651,0.779,5.434,1.129,8.177,1.561
			c0.949,0.15,1.923,0.392,2.908,0.189c1.065,0.535,2.13,1.07,3.194,1.604c-0.773,0.186-1.597-0.043-2.352,0.288
			C97.023,82.574,96.946,82.569,96.87,82.563z"/>
		<path fill="#CFCECE" d="M172.271,71.299c-0.661,0.365-1.389,0.427-2.121,0.453c-3.351,0.117-6.644-0.418-9.943-0.885
			c-1.149-0.162-2.292-0.364-3.437-0.548c-0.011-0.209-0.021-0.418-0.032-0.626c0.6,0.043,1.185,0.255,1.797,0.159
			c0.296,0.058,0.59,0.138,0.889,0.166c0.209,0.02,0.485,0.122,0.61-0.141c0.108-0.226-0.125-0.351-0.241-0.507
			c-1.014-1.367-2.374-2.295-3.86-3.068c-1.354-0.704-2.739-1.36-4.042-2.151c-0.588-0.357-1.283-0.619-1.704-1.228
			c0.791-0.151,1.466-0.21,2.244,0.369c1.299,0.967,2.678,1.873,4.164,2.551c0.984,0.449,1.724,1.196,2.571,1.814
			c0.728,0.531,1.182,1.252,1.604,2.008c0.452,0.81,1.298,0.737,2.008,0.825c2.35,0.29,4.69,0.646,7.072,0.696
			C170.646,71.201,171.491,70.862,172.271,71.299z"/>
		<path fill="#A8A8A8" d="M191.106,76.1c0.041-0.219,0.193-0.332,0.374-0.445c1.492-0.925,3.109-0.98,4.804-0.832
			c2.509,0.219,4.557,1.526,6.711,2.621c1.92,0.976,3.771,2.055,5.562,3.252c1.123,0.751,2.228,1.52,3.328,2.302
			c0.409,0.291,0.863,0.677,1.424,0.764c0.073,0.129,0.147,0.258,0.221,0.387c-1.197-0.298-2.21-0.975-3.228-1.619
			c-2.243-1.417-4.521-2.774-6.843-4.054c-1.812-0.999-3.603-2.047-5.57-2.741c-2.156-0.761-4.278-0.96-6.358,0.233
			C191.405,76.041,191.248,76.057,191.106,76.1z"/>
		<path fill="#A8A8A8" d="M186.328,92.358c-0.995,0.091-1.963-0.067-2.821-0.558c-0.421-0.241-0.586,0.156-0.884,0.15
			c0.001-0.202,0.002-0.404,0.002-0.607c0.166-0.131,0.142-0.302,0.099-0.477c0.045-0.019,0.091-0.025,0.138-0.017
			c0.701-0.398,0.703-1.195,0.914-1.817c0.252-0.745,0.954-0.914,1.324-0.823c0.863,0.212,1.607,0.14,2.377-0.213
			c0.083-0.038,0.199-0.004,0.299-0.003C187.294,89.448,186.811,90.903,186.328,92.358z"/>
		<path fill="#A8A8A8" d="M150.188,62.922c0.421,0.609,1.117,0.871,1.704,1.228c1.302,0.791,2.687,1.446,4.042,2.151
			c1.486,0.773,2.846,1.702,3.86,3.068c0.116,0.156,0.349,0.281,0.241,0.507c-0.125,0.263-0.401,0.161-0.61,0.141
			c-0.299-0.028-0.593-0.108-0.889-0.166c-0.181-0.97-1.077-1.275-1.73-1.755c-1.623-1.193-3.511-1.918-5.3-2.817
			c-0.967-0.486-1.835-1.142-2.691-1.804C149.147,62.981,149.67,62.957,150.188,62.922z"/>
		<path fill="#CFCECE" d="M139.151,123.887c-1.285-3.85-2.412-7.747-3.502-11.656c-0.359-1.286-0.693-2.58-1.038-3.87
			c0.684,0.927,0.932,2.052,1.343,3.094c1.213,3.075,2.314,6.196,2.905,9.461C139.037,121.89,139.378,122.867,139.151,123.887z"/>
		<path fill="#7F7C7C" d="M81.925,63.676c0.692,0.348,1.383-0.139,2.081-0.004c0.269,0.052,0.552,0.024,0.804,0.169
			c0.293,0.169,0.306,0.447,0.284,0.728c-0.027,0.339-0.306,0.272-0.52,0.282c-0.222,0.011-0.444,0.003-0.862,0.003
			c0.386,0.259,0.631,0.207,0.848,0.193c0.506-0.034,0.738,0.224,0.835,0.681c0.174,0.823,0.002,0.998-0.803,0.822
			c-0.332-0.073-0.663-0.293-1.011-0.043c-0.381,0.069-0.628,0.286-0.734,0.659c-0.104,0.153-0.209,0.305-0.313,0.458
			c-0.298,0.018-0.338,0.213-0.308,0.454l0,0.001c-0.309,0.006-0.487-0.087-0.702-0.383c-0.429-0.589-0.502-1.257-0.677-1.909
			c0.048-0.406,0.193-0.772,0.448-1.09c0.014,0.101,0.064,0.213,0.035,0.298c-0.257,0.755,0.404,1.206,0.598,1.81
			c0.083,0.257,0.319,0.211,0.49,0.052c0.22-0.206,0.417-0.437,0.632-0.648c0.326-0.32,0.207-0.718,0.084-1.029
			c-0.158-0.401-0.714-0.315-0.992-0.584c-0.245-0.236-0.207-0.275-0.846-0.02c0.013-0.15,0.027-0.301,0.04-0.451
			c0.277-0.022,0.411-0.188,0.454-0.447C81.833,63.678,81.879,63.678,81.925,63.676z"/>
		<path fill="#7F7C7C" d="M58.75,50.147c0.172-0.266,0.378-0.156,0.596-0.066c2.266,0.934,4.554,1.82,6.795,2.81
			c1.54,0.68,2.904,1.625,3.534,3.306c0.081,0.215,0.282,0.45,0.035,0.693c-0.953-1.859-2.621-2.812-4.47-3.551
			c-1.81-0.724-3.635-1.417-5.362-2.331C59.458,50.785,59.004,50.594,58.75,50.147z"/>
		<path fill="#CFCECE" d="M78.399,75.495c-0.02-0.759,0.445-1.369,0.653-2.059c0.505-1.68,0.811-3.401,1.187-5.108
			c0.043-0.195,0.111-0.385,0.167-0.577c0.26,0.045,0.242,0.256,0.305,0.448c0.188,0.576,0.847,0.794,1.346,0.473
			c0.053,0.605-0.285,1.112-0.415,1.671c-0.135,0.582-0.512,0.958-1.056,1.052c-0.532,0.092-0.694,0.399-0.803,0.844
			c-0.107,0.438-0.2,0.892-0.392,1.295c-0.33,0.693-0.601,1.384-0.524,2.17c0.022,0.219-0.037,0.405-0.306,0.429l-0.018,0.037
			c0,0-0.041-0.001-0.041-0.001C78.571,75.928,78.595,75.695,78.399,75.495z"/>
		<path fill="#7F7C7C" d="M189.072,105.42c-0.566-0.578-1.413-0.736-1.957-1.367c2.342,1.113,4.755,2.049,7.152,3.026
			c2.289,0.995,4.65,1.842,6.73,3.268l0.007-0.007c-0.146-0.02-0.292-0.041-0.437-0.06c-0.579-0.301-1.177-0.557-1.81-0.723
			l-0.051-0.026c0,0-0.057,0.004-0.057,0.005c-0.319-0.303-0.703-0.473-1.131-0.552c-0.15-0.064-0.3-0.128-0.45-0.192
			c-0.17-0.17-0.372-0.268-0.617-0.26c-0.316-0.227-0.683-0.329-1.052-0.426c-0.234-0.269-0.57-0.308-0.886-0.394
			c-0.111-0.052-0.223-0.104-0.334-0.156c-1.587-0.779-3.228-1.432-4.879-2.061C189.223,105.47,189.147,105.445,189.072,105.42z"/>
		<path fill="#A8A8A8" d="M197.971,76.742c1.978,0.512,3.68,1.624,5.442,2.58c3.273,1.776,6.44,3.742,9.728,5.493
			c0.196,0.104,0.433,0.163,0.519,0.409c-0.997-0.171-1.827-0.725-2.678-1.208c-3.281-1.86-6.544-3.751-9.821-5.617
			c-0.81-0.461-1.63-0.919-2.579-1.048c0.054-0.458-0.509-0.306-0.607-0.613L197.971,76.742z"/>
		<path fill="#7F7C7C" d="M64.621,75.493c-0.315,0.717-0.954,0.993-1.648,1.083c-0.766,0.1-1.541,0.012-2.298-0.173
			c-0.907-0.617-1.826-1.215-2.716-1.855c-1.752-1.258-3.487-2.54-5.229-3.812c-0.151-0.285-0.638-0.269-0.626-0.699
			c0.42,0.029,0.748,0.251,1.072,0.493c1.943,1.448,3.889,2.894,5.837,4.336c0.263,0.195,0.543,0.367,0.82,0.543
			C61.41,76.407,63.003,76.68,64.621,75.493z"/>
		<path fill="#A8A8A8" d="M94.563,83.001c-0.352-0.398-0.869-0.383-1.32-0.475c-3.515-0.711-7.032-1.414-10.558-2.069
			c-1.389-0.258-2.803-0.385-4.363,0.03c0.479-0.498,0.48-0.483,0.994-0.52c1.635-0.117,3.229,0.182,4.817,0.494
			c3.498,0.686,6.991,1.395,10.487,2.092c0.152,0.03,0.3,0.051,0.391,0.196C94.967,83.022,94.761,83.004,94.563,83.001z"/>
		<path fill="#CFCECE" d="M217.561,85.727c-1.03-0.322-2.144-0.425-3.024-1.145c0.105-1.327,0.442-1.531,1.683-0.997
			c0.343,0.148,0.678,0.316,1.003,0.5C217.974,84.509,218.067,84.988,217.561,85.727z"/>
		<path fill="#7F7C7C" d="M77.858,47.786c-0.677-0.768-1.505-1.289-2.502-1.535c-1.986-0.608-3.984-0.99-6.09-0.744
			c-1.532,0.179-3.06,0.329-4.543,0.777c-0.172,0.052-0.355,0.064-0.471-0.128c3.476-0.983,6.976-1.373,10.534-0.442
			c1.248,0.326,2.36,0.889,3.274,1.809c0.084,0.084,0.279,0.2,0.078,0.344C78.088,47.901,77.953,47.816,77.858,47.786z"/>
		<path fill="#CFCECE" d="M194.805,60.874c0.599-0.112,1.046,0.489,1.651,0.349c0,0-0.008-0.007-0.008-0.007
			c0.022,0.215,0.169,0.186,0.314,0.16c0,0-0.012-0.007-0.012-0.007c0.049,0.199,0.199,0.178,0.348,0.162
			c0.087,0.021,0.173,0.042,0.26,0.063c0.025,0.186,0.148,0.243,0.316,0.24c0,0-0.012-0.009-0.012-0.009
			c0.049,0.134,0.103,0.101,0.16,0.005c1.18,0.483,2.136,1.294,3.087,2.111c0.11,0.095,0.268,0.23,0.156,0.377
			c-0.122,0.161-0.327,0.111-0.482,0.01c-0.348-0.228-0.606-0.548-0.979-0.776c-1.261-0.767-2.574-1.42-3.916-2.025
			C195.351,61.377,194.889,61.375,194.805,60.874z"/>
		<path fill="#7F7C7C" d="M81.293,64.576c0.639-0.255,0.601-0.216,0.846,0.02c0.278,0.268,0.834,0.183,0.992,0.584
			c0.123,0.311,0.242,0.709-0.084,1.029c-0.216,0.211-0.412,0.442-0.632,0.648c-0.171,0.16-0.407,0.206-0.49-0.052
			c-0.194-0.604-0.855-1.055-0.598-1.81c0.029-0.085-0.021-0.197-0.035-0.298C81.291,64.656,81.291,64.616,81.293,64.576z"/>
		<path fill="#A8A8A8" d="M82.056,68.673c-0.499,0.321-1.158,0.103-1.346-0.473c-0.063-0.193-0.045-0.404-0.305-0.448
			c0.146-0.655,0.293-1.309,0.439-1.964c0.175,0.652,0.248,1.32,0.677,1.909c0.216,0.296,0.394,0.389,0.702,0.383
			C82.265,68.305,82.173,68.492,82.056,68.673z"/>
		<path fill="#1D1D1B" d="M121.718,19.54c-0.876,0.13-1.63-0.32-2.435-0.523c-0.913-0.231-1.771-0.673-2.738-0.699
			c-0.208-0.006-0.479,0.076-0.554-0.248c0.996-0.154,1.894,0.168,2.829,0.461c0.571,0.179,1.168,0.404,1.795,0.43
			C121.068,18.978,121.447,19.163,121.718,19.54z"/>
		<path fill="#CFCECE" d="M189.298,105.495c1.651,0.629,3.292,1.281,4.879,2.061c-0.487,0.357-0.793-0.183-1.195-0.258
			c-1.184-0.219-2.173-0.994-3.356-1.248C189.397,106.002,189.325,105.731,189.298,105.495z"/>
		<path fill="#1D1D1B" d="M95.588,24.759c-0.02,0.146,0.016,0.358-0.068,0.429c-0.915,0.777-1.399,1.923-2.323,2.686
			C93.666,26.584,94.443,25.53,95.588,24.759z"/>
		<path fill="#1D1D1B" d="M125.062,20.764c-1.151-0.23-2.313-0.431-3.277-1.181C122.97,19.721,124.146,19.88,125.062,20.764z"/>
		<path fill="#7F7C7C" d="M84.903,57.615c0.001,0.024,0.006,0.049,0.003,0.073c-0.11,1.032-0.11,1.032-1.027,0.662
			c-0.206-0.289-0.564-0.503-0.464-0.942C83.896,57.585,84.436,57.338,84.903,57.615z"/>
		<path fill="#A8A8A8" d="M84.903,57.615c-0.467-0.277-1.007-0.03-1.488-0.207c0.34-0.637,0.864-0.46,1.382-0.312
			C84.846,57.266,84.983,57.418,84.903,57.615z"/>
		<path fill="#CFCECE" d="M198.755,109.557c0.633,0.166,1.231,0.422,1.81,0.723C199.958,110.498,199.066,110.142,198.755,109.557z"
			/>
		<path fill="#A8A8A8" d="M189.603,59.977c0.612-0.161,1.222-0.221,1.828,0.027c-0.583,0.328-1.223,0.055-1.826,0.176
			C189.604,60.113,189.604,60.045,189.603,59.977z"/>
		<path fill="#CFCECE" d="M193.257,60.292c0.25,0.062,0.499,0.124,0.749,0.186c0.016,0.13,0.032,0.26,0.048,0.391
			c-0.409-0.021-0.873,0.102-1.088-0.421C193.084,60.434,193.199,60.417,193.257,60.292z"/>
		<path fill="#CFCECE" d="M173.987,70.233c-0.239,0.349-0.355,0.86-0.958,0.737C173.141,70.456,173.507,70.271,173.987,70.233z"/>
		<path fill="#CFCECE" d="M197.517,108.984c0.428,0.079,0.812,0.249,1.131,0.552C198.103,109.695,197.75,109.462,197.517,108.984z"
			/>
		<path fill="#CFCECE" d="M194.511,107.712c0.316,0.085,0.652,0.125,0.886,0.394C195.022,108.323,194.769,108.211,194.511,107.712z"
			/>
		<path fill="#A8A8A8" d="M78.399,75.495c0.197,0.2,0.172,0.433,0.103,0.674c-0.168,0.002-0.336,0.004-0.503,0.007
			c0.08-0.172,0.16-0.344,0.239-0.516C78.291,75.604,78.345,75.55,78.399,75.495z"/>
		<path fill="#CFCECE" d="M196.45,108.532c0.245-0.007,0.447,0.09,0.617,0.26C196.673,109.151,196.534,108.907,196.45,108.532z"/>
		<path fill="#A8A8A8" d="M188.654,60.221c0.143-0.293,0.408-0.215,0.648-0.212c-0.003,0.089-0.006,0.179-0.01,0.268
			C189.076,60.298,188.858,60.342,188.654,60.221z"/>
		<path fill="#7F7C7C" d="M52.104,70.04c-0.232,0.031-0.461,0.047-0.634-0.158C51.734,69.724,51.966,69.693,52.104,70.04z"/>
		<path fill="#A8A8A8" d="M197.172,77.389c0.1-0.154,0.185-0.449,0.343-0.035C197.408,77.433,197.292,77.435,197.172,77.389z"/>
		<path fill="#A8A8A8" d="M194.054,60.869c-0.016-0.13-0.032-0.261-0.048-0.391c0.131-0.011,0.247,0.01,0.316,0.14
			C194.316,60.791,194.239,60.887,194.054,60.869z"/>
		<path fill="#A8A8A8" d="M192.054,60.085c0.2-0.122,0.363-0.093,0.484,0.115C192.342,60.311,192.159,60.365,192.054,60.085z"/>
		<path fill="#CFCECE" d="M189.293,60.277c0.003-0.089,0.006-0.179,0.01-0.268c0.1-0.011,0.201-0.021,0.301-0.032
			c0.001,0.068,0.001,0.136,0.002,0.204C189.563,60.417,189.483,60.524,189.293,60.277z"/>
		<path fill="#CFCECE" d="M182.724,90.866c0.043,0.175,0.067,0.346-0.099,0.477C182.364,91.123,182.445,90.974,182.724,90.866z"/>
		<path fill="#A8A8A8" d="M183.191,89.036c0.057,0.208,0.048,0.396-0.159,0.523C182.882,89.323,182.915,89.143,183.191,89.036z"/>
		<path fill="#A8A8A8" d="M182.983,89.834c0.125,0.171,0.115,0.321-0.068,0.444C182.742,90.1,182.72,89.946,182.983,89.834z"/>
		<path fill="#1D1D1B" d="M93.169,27.955c-0.004,0.192,0.012,0.397-0.271,0.397C92.866,28.136,92.964,28.009,93.169,27.955z"/>
		<path fill="#FDDA35" d="M146.078,50.57c0.069-0.254,0.266-0.295,0.488-0.294C146.437,50.429,146.287,50.548,146.078,50.57z"/>
		<path fill="#CFCECE" d="M100.596,190.54c-0.317-0.109-0.315-0.225-0.008-0.348C100.591,190.308,100.594,190.424,100.596,190.54z"
			/>
		<path fill="#CFCECE" d="M100.581,189.638c-0.094-0.064-0.188-0.129-0.282-0.193c0.052-0.048,0.104-0.096,0.156-0.144
			C100.605,189.373,100.616,189.497,100.581,189.638z"/>
		<path fill="#CFCECE" d="M188.372,60.218c0.098,0.021,0.197,0.042,0.295,0.062c-0.005,0.207-0.002,0.427-0.28,0.162
			C188.382,60.367,188.377,60.292,188.372,60.218z"/>
		<path fill="#A8A8A8" d="M193.257,60.292c-0.058,0.125-0.173,0.142-0.29,0.157c0.002-0.07,0.004-0.14,0.006-0.211
			C193.089,60.144,193.18,60.182,193.257,60.292z"/>
		<path fill="#A8A8A8" d="M188.372,60.218c0.005,0.075,0.01,0.149,0.015,0.224c-0.101,0.012-0.202,0.024-0.302,0.036
			c0.001-0.069,0.003-0.138,0.004-0.207C188.165,60.156,188.259,60.135,188.372,60.218z"/>
		<path fill="#A8A8A8" d="M183.944,86.748c0.041,0.167-0.002,0.298-0.163,0.377C183.656,86.922,183.751,86.813,183.944,86.748z"/>
		<path fill="#CFCECE" d="M200.997,110.347c0.114,0.018,0.247,0.01,0.247,0.18c0,0.017-0.031,0.047-0.049,0.048
			c-0.166,0.008-0.176-0.117-0.191-0.235C201.003,110.34,200.997,110.347,200.997,110.347z"/>
		<path fill="#CFCECE" d="M139.279,124.458c-0.021-0.083-0.042-0.165-0.063-0.248C139.237,124.293,139.258,124.375,139.279,124.458z
			"/>
		<path fill="#7F7C7C" d="M197.099,61.532c-0.149,0.016-0.299,0.036-0.348-0.162C196.884,61.387,197.019,61.401,197.099,61.532z"/>
		<path fill="#7F7C7C" d="M197.675,61.835c-0.168,0.003-0.292-0.053-0.316-0.24C197.464,61.675,197.57,61.755,197.675,61.835z"/>
		<path fill="#7F7C7C" d="M196.763,61.376c-0.145,0.026-0.292,0.055-0.314-0.16C196.57,61.237,196.702,61.236,196.763,61.376z"/>
		<path fill="#7F7C7C" d="M78.569,48.289c-0.106-0.029-0.172-0.09-0.153-0.208c0.002-0.014,0.053-0.038,0.064-0.031
			c0.094,0.062,0.118,0.149,0.077,0.253C78.556,48.304,78.569,48.289,78.569,48.289z"/>
		<path fill="#CFCECE" d="M134.4,107.599c-0.034-0.096-0.068-0.192-0.101-0.288C134.332,107.407,134.366,107.503,134.4,107.599z"/>
		<path fill="#CFCECE" d="M134.546,108.065c-0.015-0.045-0.031-0.091-0.046-0.136C134.537,107.967,134.552,108.012,134.546,108.065z
			"/>
		<path fill="#7F7C7C" d="M197.823,61.831c-0.056,0.096-0.111,0.129-0.16-0.005C197.717,61.828,197.77,61.829,197.823,61.831z"/>
		<path fill="#CFCECE" d="M139.412,124.952c-0.018-0.047-0.036-0.095-0.054-0.142C139.377,124.857,139.394,124.904,139.412,124.952z
			"/>
		<path fill="#A8A8A8" d="M55.436,127.808c0.052,0.049,0.141,0.149,0.151,0.141c0.935-0.688,1.707,0.008,2.463,0.354
			c1.834,0.839,3.603,1.82,5.443,2.643c1.151,0.515,2.347,0.501,3.609,0.106c1.072-0.336,2.018-1.195,3.268-0.914
			c0.939,0.211,1.871,0.421,2.345,1.401c0.086,0.178,0.162,0.344,0.143,0.57c-0.079,0.943,0.074,1.836,0.736,2.571
			c0.221,0.246,0.295,0.431-0.133,0.491c-0.594-0.409-1.187-0.818-1.78-1.228c-0.151-0.749-0.586-1.379-0.943-2.025
			c-0.216-0.391-0.708-0.52-1.2-0.287c-1.17,0.556-1.981,1.533-2.825,2.454c-0.412,0.45-0.81,0.675-1.426,0.622
			c-1.616-0.141-3.146-0.589-4.597-1.282c-0.484-0.231-1.017-0.225-1.492-0.506c-0.72-0.427-1.486-0.796-2.271-1.089
			c-0.927-0.346-1.736-0.748-1.893-1.852C55.008,129.225,54.83,128.444,55.436,127.808z"/>
		<path fill="#7F7C7C" d="M55.036,129.978c0.157,1.104,0.966,1.506,1.893,1.852c0.784,0.293,1.551,0.662,2.271,1.089
			c0.474,0.281,1.007,0.275,1.492,0.506c1.451,0.693,2.981,1.142,4.597,1.282c0.615,0.054,1.013-0.172,1.426-0.622
			c0.844-0.921,1.655-1.897,2.825-2.454c0.491-0.234,0.983-0.105,1.2,0.287c0.357,0.647,0.792,1.276,0.943,2.025
			c-0.548-0.08-0.867-0.471-1.178-0.872c-0.531-0.685-0.904-0.793-1.605-0.349c-1.017,0.645-1.805,1.511-2.342,2.604
			c-0.161,0.327-0.067,0.496,0.192,0.69c0.357,0.268,0.806,0.426,1.045,0.842c-0.393,0.778-1.115,0.985-1.889,1.009
			c-1.841,0.058-3.401-0.791-4.981-1.589c-0.731-0.369-1.285-1.045-2.129-1.205c-0.285-0.535-0.824-0.815-1.261-1.182
			c-0.569-0.477-0.966-1.102-1.52-1.572c-0.181-0.154-0.161-0.989-0.735-0.328c-0.009,0.01-0.178-0.081-0.233-0.154
			c-0.311-0.417-0.761-0.373-1.181-0.328c-0.734,0.079-1.019-0.404-0.975-0.948c0.058-0.708,0.029-1.464,0.423-2.117
			c-0.044,0.24,0.014,0.431,0.232,0.574C54.039,129.342,54.468,129.767,55.036,129.978z"/>
		<path fill="#CFCECE" d="M86.245,178.484c0.558,0.075,1.027-0.231,1.514-0.399c1.902-0.657,3.776-0.724,5.646,0.091
			c0.023,0.01,0.056,0.008,0.071,0.024c1.016,1.035,1.978,0.703,2.923-0.112c-0.332,0.91-1.195,1.309-1.878,1.847
			c-1.159,0.912-2.398,1.723-3.856,2.119c-0.502,0.136-0.996,0.163-1.488,0.011c-0.751-0.232-1.524-0.305-2.301-0.364
			c-0.688-0.052-1.297-0.237-1.523-0.999C85.649,179.962,85.947,179.223,86.245,178.484z"/>
		<path fill="#A8A8A8" d="M79.003,137.306c0.613,1.528,0.463,2.146-0.818,3.183c-0.228,0.184-0.259,0.39-0.296,0.646
			c-0.069,0.491,0.03,1.01-0.231,1.471c0.027-0.625,0.029-1.253,0.086-1.875c0.066-0.718-0.054-1.317-0.699-1.768
			c-0.247-0.172-0.526-0.392-0.604-0.737c0.148,0.002,0.307-0.03,0.442,0.012c0.321,0.1,0.581,0.529,0.931,0.353
			c0.437-0.219,0.766-0.616,1.041-1.034C78.909,137.476,78.954,137.39,79.003,137.306z"/>
		<path fill="#1D1D1B" d="M55.036,129.978c-0.568-0.211-0.997-0.636-1.493-0.959c-0.218-0.142-0.276-0.333-0.232-0.574
			c0.066-0.162,0.13-0.325,0.198-0.485c0.373-0.875,0.38-0.886,1.198-0.375c0.286,0.179,0.355,0.196,0.476-0.183
			c0.155-0.488,0.157-1.089,0.697-1.397c0.253,0.338-0.123,0.555-0.227,0.757c-0.181,0.351-0.26,0.673-0.217,1.047
			C54.83,128.444,55.008,129.225,55.036,129.978z"/>
		<path fill="#F0F0F0" d="M56.35,124.806c-0.028,0.245,0.094,0.573-0.329,0.602C56.062,125.17,56.171,124.969,56.35,124.806z"/>
		<polygon fill="#A8A8A8" points="86.626,153.404 86.601,153.426 86.633,153.41 		"/>
		<path fill="#F0F0F0" d="M120.337,101.103c1.438-0.298,2.698,0.48,3.654,1.357c0.827,0.758,1.75,1.594,2.107,2.866
			c0.227,0.811,0.701,1.589,0.992,2.42c0.271,0.774,0.396,1.556,0.452,2.363c0.115,1.653,0.165,3.307,0.14,4.963
			c-0.002,0.149-0.006,0.317-0.073,0.442c-0.832,1.554-1.661,3.109-3.392,3.884c-0.479,0.215-0.899,0.491-1.283,0.893
			c-0.63,0.661-1.592,0.701-2.41,1.014c-1.066,0.407-2.181,0.235-3.275,0.304c-0.899,0.057-1.631-0.366-2.251-0.929
			c-1.196-1.084-1.877-2.481-2.201-4.05c-0.069-0.334-0.228-0.614-0.368-0.908c-0.13-0.276-0.244-0.543-0.251-0.863
			c-0.066-2.911,0.367-5.73,1.266-8.511c0.299-0.923,0.697-1.782,1.112-2.627c0.762-1.551,2.209-2.185,3.827-2.488
			C119.004,101.117,119.629,101.025,120.337,101.103z"/>
		<path fill="#A8A8A8" d="M104.716,82.84c1.074,0.144,2.144,0.33,3.222,0.424c1.994,0.175,3.811-0.592,5.647-1.189
			c0.763-0.248,1.527-0.434,2.313-0.574c1.036-0.184,2.033-0.655,3.115-0.492c0.962,0.145,1.95,0.273,2.665,1.05
			c0.569,0.618,0.478,0.878-0.275,1.231c-0.353,0.165-0.678,0.446-0.934,0.745c-0.233,0.271,0.118,0.447,0.266,0.617
			c1.081,1.241,2.177,2.469,3.265,3.704c0.116,0.131,0.207,0.284,0.309,0.427c-0.913-0.102-1.346-0.856-1.748-1.488
			c-0.764-1.202-2.439-2.056-3.89-1.802c-0.68,0.119-1.187-0.512-1.864-0.456c-0.169,0.014-0.35-0.103-0.516-0.083
			c-1.316,0.158-2.595-0.242-3.867-0.402c-0.965-0.122-1.998-0.416-2.978-0.573c-1.263-0.203-2.482-0.627-3.762-0.712
			C105.314,83.241,104.915,83.26,104.716,82.84z"/>
		<path fill="#A8A8A8" d="M93.089,212.259c0.384,0.187,0.77,0.37,1.15,0.564c0.13,0.066,0.302,0.127,0.265,0.32
			c-0.036,0.187-0.21,0.23-0.355,0.199c-0.681-0.144-1.237,0.403-1.906,0.327c-0.183-0.021-0.354,0.079-0.392,0.285
			c-0.055,0.293,0.161,0.438,0.379,0.479c0.59,0.111,1.188,0.237,1.785,0.247c1.717,0.031,3.44,0.086,5.152-0.016
			c1.78-0.107,3.548-0.398,5.242-1.009c0.319-0.115,0.628-0.216,0.522-0.676c-0.06-0.26,0.14-0.278,0.333-0.261
			c0.19,0.059,0.399,0.086,0.568,0.184c0.524,0.304,0.533,0.612,0.029,0.944c-0.207,0.137-0.436,0.277-0.673,0.326
			c-1.639,0.34-3.249,0.769-4.944,0.887c-1.872,0.131-3.736,0.095-5.602,0.097c-1.407,0.001-2.802-0.275-4.214-0.334
			c-0.514-0.021-1.055-0.226-1.601-0.3c-0.37-0.05-0.794-0.306-0.813-0.769c-0.018-0.435,0.388-0.526,0.726-0.651
			c0.794-0.296,1.647-0.19,2.457-0.379C91.828,212.576,92.499,212.584,93.089,212.259z"/>
		<path fill="#CFCECE" d="M168.263,81.897c-0.457,2.1-0.908,4.202-1.375,6.3c-0.224,1.006-0.404,1.16-1.508,1.158
			c-1.392-0.002-2.767-0.232-4.14-0.439c-4.818-0.727-9.594-1.698-14.383-2.59c-4.093-0.762-8.171-1.602-12.257-2.4
			c-3.238-0.632-6.479-1.253-9.679-1.871c-0.096-0.222,0.003-0.311,0.114-0.368c3.118-1.613,6.022-3.535,8.591-5.94
			c0.035,0.158,0.116,0.329,0.277,0.321c1.184-0.061,2.35,0.113,3.524,0.207c1.831,0.147,3.642,0.47,5.454,0.732
			c1.409,0.204,2.831,0.365,4.237,0.629c1.49,0.279,3.013,0.378,4.513,0.614c1.259,0.198,2.522,0.369,3.78,0.579
			c1.902,0.318,3.808,0.656,5.718,0.891c1.572,0.193,3.111,0.574,4.694,0.7c0.975,0.077,2.177,0.005,2.369,1.455
			C168.194,81.885,168.238,81.89,168.263,81.897z"/>
		<path fill="#CFCECE" d="M164.627,90.68c0.911,0.626,0.27,1.482,0.275,2.214c0.005,0.71-0.255,1.422-0.395,2.134
			c-0.067,0.34-0.264,0.567-0.609,0.569c-0.549,0.004-1.097,0.079-1.636-0.184c-1.467-0.715-3.11-0.761-4.66-1.169
			c-1.468-0.387-2.944-0.741-4.419-1.101c-1.219-0.297-2.437-0.594-3.662-0.866c-1.121-0.249-2.267-0.402-3.373-0.705
			c-2.593-0.712-5.245-1.159-7.846-1.817c-2.484-0.628-5.007-1.072-7.485-1.711c-0.804-0.207-1.663-0.266-2.348-0.818
			c-0.257-0.835-0.778-1.528-1.219-2.264c-0.31-0.518-0.91-0.576-1.354-0.929c1.602,0.274,3.202,0.558,4.806,0.821
			c3.471,0.568,6.923,1.244,10.399,1.787c2.538,0.396,5.047,0.978,7.569,1.477c-0.002,0.13-0.012,0.291-0.167,0.292
			c-0.368,0.002-0.736-0.057-1.103-0.051c-0.843,0.013-1.639-0.455-2.509-0.218c-0.246,0.067-0.517,0.034-0.588,0.355
			c-0.065,0.29,0.075,0.52,0.315,0.629c1.113,0.508,2.297,0.93,3.445,1.227c2.477,0.64,4.905,1.458,7.402,2.023
			c0.782,0.177,1.512,0.648,2.296,0.747c1.374,0.174,2.712,0.52,4.08,0.713c1.003,0.141,1.678-0.291,1.944-1.253
			c0.206-0.747,0.092-1.374-0.351-1.974C163.822,90.772,164.233,90.582,164.627,90.68z"/>
		<path fill="#CFCECE" d="M137.746,69.9c0.02-0.016,0.051-0.027,0.058-0.047c0.339-0.992,0.902-1.625,2.074-1.344
			c0.129,0.031,0.286-0.055,0.429-0.086c0.094,0.011,0.188,0.022,0.283,0.032c0.175,0.273,0.395,0.269,0.641,0.103
			c0.192,0.018,0.384,0.036,0.576,0.054c0.487,0.267,0.987,0.456,1.552,0.262c0.192,0.023,0.383,0.047,0.575,0.07
			c0.138,0.19,0.3,0.23,0.491,0.075c0.141,0.021,0.281,0.041,0.422,0.061c0.182,0.247,0.401,0.247,0.642,0.096
			c0.141,0.018,0.282,0.036,0.423,0.053c0.178,0.249,0.397,0.25,0.641,0.107c0.141,0.019,0.282,0.039,0.422,0.058
			c0.133,0.197,0.295,0.238,0.491,0.089c0.496,0.067,0.992,0.133,1.489,0.2c0.128,0.205,0.288,0.258,0.489,0.098
			c0.191,0.022,0.383,0.043,0.574,0.064c0.132,0.196,0.292,0.245,0.491,0.092c0.191,0.023,0.383,0.046,0.574,0.068
			c0.135,0.184,0.295,0.234,0.49,0.089c0.607,0.113,1.245,0.054,1.823,0.326c-0.06,0.072-0.11,0.195-0.182,0.209
			c-0.889,0.184-1.8,0.049-2.696,0.088c-0.481,0.021-0.91,0.471-1.428,0.164c-0.194-0.115-0.545-0.206-0.645,0.119
			c-0.087,0.282,0.252,0.329,0.439,0.427c1.411,0.741,2.889,1.264,4.448,1.64c1.733,0.418,3.48,0.793,5.216,1.188
			c1.922,0.438,3.923,0.516,5.846,1.037c1.154,0.313,2.349,0.369,3.521,0.109c0.778-0.172,1.329-1.164,1.134-2.059
			c-0.151-0.697-0.773-0.832-1.403-0.857c-0.22-0.009-0.474,0.052-0.567-0.249c1.159-0.139,2.316,0.036,3.463,0.122
			c0.737,0.055,0.382,0.709,0.18,1.049c-0.502,0.844-0.954,1.712-1.411,2.579c-0.147,0.279-0.151,0.654-0.499,0.81
			c-0.539-0.083-1.077-0.104-1.614,0.007c-0.137,0-0.274,0-0.411-0.001c-0.184-0.302-0.388-0.285-0.607-0.04
			c-0.098-0.012-0.196-0.025-0.294-0.037c-0.335-0.42-0.756-0.459-1.227-0.277c-0.404-0.058-0.807-0.116-1.211-0.174
			c-0.048-0.202-0.096-0.401-0.31-0.103c-0.408-0.061-0.816-0.122-1.224-0.184c-0.168-0.492-0.452-0.364-0.754-0.142
			c-0.146-0.015-0.293-0.029-0.439-0.044c-0.053-0.216-0.13-0.351-0.321-0.093c-0.409-0.058-0.818-0.116-1.227-0.173
			c-0.219-0.513-0.553-0.381-0.902-0.161c-0.307-0.049-0.613-0.098-0.92-0.147c-0.167-0.495-0.451-0.365-0.753-0.142
			c-0.101-0.007-0.202-0.013-0.304-0.02c-0.077-0.347-0.222-0.41-0.456-0.112c-0.25-0.019-0.499-0.039-0.749-0.058
			c-0.05-0.206-0.112-0.374-0.316-0.102c-0.15-0.014-0.3-0.029-0.45-0.043c-0.083-0.326-0.227-0.404-0.462-0.115
			c-0.15-0.012-0.3-0.024-0.45-0.036c-0.085-0.332-0.231-0.4-0.463-0.109c-0.151-0.013-0.303-0.025-0.454-0.038
			c-0.13-0.428-0.349-0.381-0.611-0.116c-0.101-0.011-0.202-0.023-0.303-0.034c-0.074-0.338-0.22-0.404-0.458-0.121
			c-0.199-0.014-0.399-0.029-0.598-0.043c-0.014-0.206-0.152-0.331-0.327-0.363c-0.755-0.138-1.513-0.26-2.271-0.377
			c-0.129-0.02-0.238,0.056-0.302,0.178c-0.251-0.014-0.502-0.029-0.753-0.043c-0.002-0.214-0.032-0.455-0.3-0.433
			c-0.644,0.053-1.225-0.186-1.835-0.307c-0.93-0.184-1.879-0.267-2.813-0.431c-0.789-0.138-1.562-0.418-2.354-0.472
			c-0.874-0.06-1.671-0.293-2.455-0.639C137.196,70.745,137.618,70.391,137.746,69.9z"/>
		<path fill="#F0F0F0" d="M167.078,72.237c0.093,0.301,0.347,0.241,0.567,0.249c0.631,0.025,1.252,0.16,1.403,0.857
			c0.194,0.895-0.356,1.886-1.134,2.059c-1.172,0.26-2.366,0.204-3.521-0.109c-1.922-0.521-3.923-0.599-5.846-1.037
			c-1.736-0.396-3.482-0.77-5.216-1.188c-1.558-0.376-3.037-0.899-4.448-1.64c-0.187-0.098-0.526-0.146-0.439-0.427
			c0.1-0.324,0.452-0.234,0.645-0.119c0.518,0.308,0.947-0.143,1.428-0.164c0.896-0.038,1.807,0.096,2.696-0.088
			c0.072-0.015,0.122-0.137,0.182-0.209c0.094,0.008,0.188,0.017,0.281,0.025c0.087,0.45,0.32,0.456,0.637,0.21
			c0.101,0.008,0.203,0.015,0.304,0.023c0.044,0.074,0.078,0.202,0.134,0.213c0.157,0.031,0.165-0.122,0.202-0.229
			c0.136,0.015,0.273,0.03,0.409,0.045c0.117,0.294,0.272,0.341,0.477,0.075c0.146,0.021,0.292,0.042,0.439,0.063
			c0.307,0.443,0.645,0.669,1.092,0.161c0.394,0.059,0.788,0.118,1.183,0.177c0.077,0.206,0.174,0.297,0.329,0.057
			c0.356,0.052,0.713,0.103,1.069,0.155c0.006,0.117,0,0.261,0.164,0.245c0.052-0.005,0.092-0.137,0.137-0.211
			c0.707,0.098,1.414,0.197,2.122,0.295c0.51,0.523,1.099,0.373,1.691,0.2c0.09,0.005,0.179,0.011,0.269,0.016
			c0.066,0.287,0.276,0.261,0.49,0.226c0.246-0.002,0.469-0.2,0.728-0.081c0.218,0.466,0.619,0.193,0.943,0.235
			C166.68,72.224,166.868,72.156,167.078,72.237z"/>
		<path fill="#F0F0F0" d="M163.432,90.609c0.444,0.6,0.558,1.227,0.351,1.974c-0.266,0.963-0.94,1.395-1.944,1.253
			c-1.368-0.193-2.706-0.539-4.08-0.713c-0.784-0.099-1.513-0.57-2.296-0.747c-2.497-0.565-4.925-1.384-7.402-2.023
			c-1.148-0.296-2.332-0.719-3.445-1.227c-0.24-0.11-0.38-0.339-0.315-0.629c0.072-0.321,0.342-0.288,0.588-0.355
			c0.869-0.237,1.665,0.232,2.509,0.218c0.367-0.006,0.735,0.053,1.103,0.051c0.155-0.001,0.165-0.162,0.167-0.292
			c0.105,0.016,0.209,0.032,0.314,0.048c0.329,0.549,0.746,0.595,1.238,0.218c3.001,0.439,5.965,1.091,8.968,1.529
			c1.109,0.162,2.218,0.377,3.332,0.539c0.146,0.399,0.366,0.357,0.622,0.105C163.24,90.575,163.336,90.592,163.432,90.609z"/>
		<path fill="#A8A8A8" d="M172.689,72.756c0.093,0.885-0.568,1.49-0.904,2.188c-0.755,1.57-1.305,3.199-1.79,4.857
			c-0.407,1.389-0.832,2.781-1.102,4.2c-0.372,1.951-0.846,3.88-1.233,5.828c-0.28,1.412-0.636,2.822-0.898,4.237
			c-0.321,1.731-0.528,3.525-0.067,5.26c0.191,0.717,0.568,1.43,0.877,2.129c0.382,0.861,0.747,1.734,1.194,2.565
			c1.44,2.677,3.296,5.019,5.904,6.631c0.986,0.609,2.126,1.043,3.254,1.329c1.747,0.444,3.481,0.937,5.29,1.181
			c2.588,0.349,5.139,0.141,7.709-0.039c1.033-0.072,2.075-0.005,3.113-0.002c-0.245,0.452-0.683,0.217-1.028,0.271
			c-3.157,0.491-6.325,0.566-9.513,0.317c-2.811-0.22-5.55-0.775-8.19-1.723c-1.882-0.676-3.503-1.762-4.846-3.344
			c-1.9-2.24-3.142-4.792-3.981-7.543c-0.538-1.765-0.602-3.628-0.377-5.477c0.283-2.326,0.697-4.631,1.155-6.927
			c0.417-2.093,0.861-4.184,1.385-6.252c0.337-1.333,0.486-2.716,1.032-3.995c0.762-1.787,1.552-3.56,2.537-5.239
			C172.328,73.005,172.433,72.803,172.689,72.756z"/>
		<path fill="#CFCECE" d="M96.257,80.688c-0.985,0.203-1.959-0.039-2.908-0.189c-2.743-0.432-5.526-0.782-8.177-1.561
			c-1.915-0.563-3.783-0.422-5.681-0.536c-0.391-0.023-0.78,0.334-1.163-0.004c0.097-0.603-0.018-1.235,0.245-1.816
			c0.145,0.005,0.371-0.031,0.376,0.143c0.027,0.951,0.42,0.348,0.591,0.116c0.378-0.511,0.924-0.885,1.189-1.483
			c2.069,0.528,4.143,1.032,6.249,1.395c1.217,0.21,2.437,0.406,3.65,0.635c0.819,0.155,1.586,0.379,2.246,0.991
			C93.878,79.313,95.087,79.98,96.257,80.688z"/>
		<path fill="#CFCECE" d="M82.845,67.167c0.107-0.374,0.354-0.591,0.734-0.659c0.178,0.682,0.838,0.825,1.334,1.089
			c0.628,0.334,1.126,0.677,1.351,1.408c0.483,1.574,1.231,3.032,2.118,4.419c0.136,0.213,0.244,0.442,0.477,0.57
			c0.233,0.355,0.466,0.71,0.699,1.066c-0.516,0.305-1.033,0.07-1.548,0c-1.113-0.151-2.195-0.469-3.325-0.553
			c-0.772-0.058-1.532-0.29-2.314-0.094c-0.138-0.024-0.276-0.049-0.413-0.073c-0.017-0.076-0.034-0.153-0.05-0.23
			c0.986-0.437,1.299-1.286,1.546-2.266c0.254-1.008,0.194-2.049,0.482-3.052C84.142,68.073,83.584,67.356,82.845,67.167z"/>
		<path fill="#A8A8A8" d="M168.263,81.897c-0.024-0.008-0.068-0.012-0.07-0.023c-0.193-1.449-1.394-1.377-2.369-1.455
			c-1.583-0.126-3.122-0.507-4.694-0.7c-1.909-0.235-3.815-0.573-5.718-0.891c-1.258-0.21-2.521-0.381-3.78-0.579
			c-1.5-0.236-3.023-0.335-4.513-0.614c-1.406-0.263-2.828-0.424-4.237-0.629c-1.812-0.263-3.623-0.585-5.454-0.732
			c-1.174-0.094-2.34-0.269-3.524-0.207c-0.162,0.008-0.242-0.162-0.277-0.321c0.393-0.744,0.985-0.829,1.788-0.734
			c3.132,0.371,6.226,0.979,9.342,1.443c3.617,0.539,7.216,1.193,10.832,1.745c3.816,0.582,7.613,1.286,11.446,1.764
			c0.578,0.072,1.149,0.181,1.734,0.125l-0.005-0.004C168.695,80.717,168.484,81.309,168.263,81.897z"/>
		<path fill="#F0F0F0" d="M82.845,67.167c0.739,0.19,1.297,0.907,1.091,1.625c-0.289,1.003-0.229,2.044-0.482,3.052
			c-0.247,0.979-0.56,1.829-1.546,2.266c-0.2,0.042-0.448,0.001-0.505,0.291c-0.038,0.011-0.074,0.028-0.108,0.049
			c-0.187,0-0.342,0.062-0.445,0.227c-0.166-0.007-0.388-0.076-0.461,0.103c-0.12,0.297,0.272,0.356,0.341,0.58
			c-0.265,0.598-0.812,0.972-1.189,1.483c-0.171,0.231-0.564,0.835-0.591-0.116c-0.005-0.174-0.232-0.138-0.376-0.143
			c-0.004-0.15-0.008-0.3-0.012-0.45c0.268-0.024,0.327-0.211,0.306-0.429c-0.077-0.786,0.194-1.477,0.524-2.17
			c0.192-0.403,0.286-0.856,0.392-1.295c0.108-0.445,0.27-0.751,0.803-0.844c0.544-0.094,0.921-0.47,1.056-1.052
			c0.13-0.559,0.468-1.065,0.415-1.671c0.117-0.181,0.209-0.368,0.167-0.594c0,0,0-0.001,0-0.001
			c0.214-0.076,0.325-0.221,0.308-0.454C82.636,67.472,82.74,67.319,82.845,67.167z"/>
		<path fill="#A8A8A8" d="M168.769,80.09c-0.005-0.267,0.162-0.559-0.113-0.788c-0.05-0.036-0.099-0.073-0.149-0.109
			c-0.091-0.181-0.24-0.223-0.426-0.18c-0.353-0.134-0.697-0.301-1.059-0.398c-2.25-0.598-4.536-1.034-6.834-1.387
			c-4.393-0.675-8.766-1.474-13.178-2.035c-2.834-0.361-5.647-0.89-8.469-1.343c-0.116-0.016-0.232-0.032-0.348-0.048
			c-0.048-0.01-0.085-0.035-0.112-0.076c-0.055-0.085-0.107-0.191-0.189-0.02l0.012,0c-0.644-0.168-1.288-0.336-1.932-0.505
			c0.562-0.275,1.113-0.112,1.639-0.03c3.94,0.616,7.876,1.261,11.81,1.911c5.55,0.918,11.141,1.601,16.63,2.878
			c0.915,0.213,1.776,0.553,2.628,0.974c0.196-0.269,0.099-0.735,0.548-0.822l-0.005-0.004c-0.086,0.675-0.189,1.345-0.456,1.978
			C168.764,80.086,168.769,80.09,168.769,80.09z"/>
		<path fill="#7F7C7C" d="M138.54,73.85c2.822,0.453,5.635,0.982,8.469,1.343c4.412,0.562,8.785,1.36,13.178,2.035
			c2.299,0.353,4.584,0.79,6.834,1.387c0.363,0.096,0.707,0.263,1.059,0.398c-0.719,0.503-1.39-0.094-1.986-0.253
			c-0.685-0.182-1.446-0.351-2.085-0.41c-1.505-0.14-2.962-0.516-4.435-0.758c-1.594-0.262-3.207-0.455-4.799-0.767
			c-0.837-0.164-1.757-0.23-2.558-0.451c-0.996-0.275-2.064,0.029-2.993-0.504c-0.098-0.056-0.248-0.028-0.374-0.03
			c-1.274-0.028-2.502-0.382-3.753-0.529c-0.871-0.102-1.731-0.276-2.584-0.429c-0.796-0.142-1.63-0.156-2.393-0.464
			c-0.272-0.11-0.537-0.122-0.815-0.123C138.968,74.292,138.635,74.275,138.54,73.85z"/>
		<path fill="#A8A8A8" d="M163.897,98.038c-1.264-0.442-2.482-0.999-3.769-1.387c-2.931-0.884-5.906-1.595-8.889-2.263
			c-4.783-1.071-9.577-2.088-14.365-3.14c-0.362-0.08-0.757-0.055-1.173-0.341c0.502-0.02,0.901,0.019,1.306,0.109
			c5.652,1.25,11.316,2.453,16.956,3.756c3.174,0.733,6.368,1.443,9.349,2.835c0.229,0.107,0.488,0.154,0.588,0.429L163.897,98.038z
			"/>
		<path fill="#A8A8A8" d="M184.697,61.492c0.111,0.483-0.294,0.614-0.579,0.763c-1.551,0.807-2.821,1.93-4.034,3.184
			c-0.571,0.59-1.172,1.231-1.916,1.665c-0.479,0.279-0.62,0.894-1.147,1.152c-0.223,0.109-0.395,0.308-0.676,0.237
			c0.38-0.828,1.121-1.345,1.751-1.938c1.553-1.463,3.078-2.968,4.886-4.129C183.528,62.075,184.053,61.668,184.697,61.492z"/>
		<path fill="#A8A8A8" d="M82.371,74.412c0.782-0.196,1.541,0.036,2.314,0.094c1.13,0.085,2.212,0.402,3.325,0.553
			c0.515,0.07,1.032,0.305,1.548,0c0.387,0.157,0.487,0.505,0.683,0.897c-2.582-0.396-5.064-0.71-7.489-1.346
			C82.608,74.572,82.45,74.573,82.371,74.412z"/>
		<path fill="#A8A8A8" d="M137.111,71.256c0.784,0.346,1.581,0.578,2.455,0.639c0.792,0.055,1.565,0.334,2.354,0.472
			c0.934,0.163,1.884,0.247,2.813,0.431c0.609,0.12,1.191,0.359,1.835,0.307c0.268-0.022,0.298,0.219,0.3,0.433
			c-1.861-0.311-3.723-0.619-5.584-0.935c-1.34-0.227-2.678-0.474-4.02-0.693C136.636,71.807,136.731,71.575,137.111,71.256z"/>
		<path fill="#A8A8A8" d="M80.849,74.677c0.102-0.166,0.257-0.228,0.445-0.227c-0.087,0.51,0.313,0.565,0.641,0.676
			c1.705,0.577,3.486,0.823,5.241,1.182c0.269,0.055,0.538,0.107,0.781,0.297c-1.165-0.214-2.335-0.408-3.495-0.647
			c-0.986-0.204-1.963-0.454-2.94-0.699C81.212,75.181,80.847,75.131,80.849,74.677z"/>
		<path fill="#A8A8A8" d="M156.738,69.693c0.011,0.209,0.021,0.418,0.032,0.626c-0.696,0.076-1.332-0.257-2.012-0.293
			c-0.126-0.007-0.267-0.042-0.231-0.218c0.03-0.149,0.111-0.349,0.274-0.304C155.439,69.68,156.113,69.435,156.738,69.693z"/>
		<path fill="#A8A8A8" d="M147.621,73.581c0.064-0.122,0.173-0.198,0.302-0.178c0.758,0.117,1.516,0.239,2.271,0.377
			c0.175,0.032,0.313,0.156,0.327,0.363C149.539,74.035,148.562,73.9,147.621,73.581z"/>
		<path fill="#A8A8A8" d="M175.387,69.552c-0.353,0.777-0.788,1.478-1.639,1.801C174.08,70.557,174.681,70.007,175.387,69.552z"/>
		<path fill="#A8A8A8" d="M167.197,76.804c0.537-0.111,1.075-0.09,1.614-0.007C168.293,77.297,167.816,77.298,167.197,76.804z"/>
		<path fill="#CFCECE" d="M164.066,71.926c-0.592,0.173-1.181,0.323-1.691-0.2C162.951,71.682,163.515,71.745,164.066,71.926z"/>
		<path fill="#A8A8A8" d="M176.338,68.501c0.006,0.622-0.338,0.926-0.92,1.016C175.647,69.107,175.799,68.629,176.338,68.501z"/>
		<path fill="#A8A8A8" d="M143.359,68.875c-0.565,0.194-1.065,0.006-1.552-0.262C142.342,68.591,142.865,68.65,143.359,68.875z"/>
		<path fill="#CFCECE" d="M150.222,88.385c-0.492,0.377-0.909,0.332-1.238-0.218C149.403,88.202,149.85,88.08,150.222,88.385z"/>
		<path fill="#CFCECE" d="M157.371,71.008c-0.447,0.508-0.785,0.282-1.092-0.161C156.662,70.777,157.017,70.889,157.371,71.008z"/>
		<path fill="#A8A8A8" d="M164.658,76.45c0.471-0.182,0.892-0.143,1.227,0.277C165.477,76.629,165.031,76.703,164.658,76.45z"/>
		<path fill="#CFCECE" d="M166.495,72.322c-0.323-0.042-0.725,0.232-0.943-0.235C165.882,72.104,166.277,71.858,166.495,72.322z"/>
		<path fill="#CFCECE" d="M154.315,70.657c-0.317,0.246-0.55,0.239-0.637-0.21c0.202-0.066,0.398-0.029,0.593,0.033
			C154.286,70.539,154.3,70.598,154.315,70.657z"/>
		<path fill="#A8A8A8" d="M158.269,75.376c0.35-0.22,0.683-0.353,0.902,0.161C158.865,75.514,158.533,75.639,158.269,75.376z"/>
		<path fill="#A8A8A8" d="M161.159,75.847c0.302-0.222,0.586-0.35,0.754,0.142C161.653,75.989,161.378,76.07,161.159,75.847z"/>
		<path fill="#A8A8A8" d="M156.596,75.087c0.302-0.224,0.587-0.354,0.753,0.142C157.091,75.22,156.813,75.312,156.596,75.087z"/>
		<path fill="#A8A8A8" d="M187.175,60.469c-0.16,0.384-0.473,0.406-0.821,0.348C186.558,60.535,186.87,60.51,187.175,60.469z"/>
		<path fill="#A8A8A8" d="M173.721,71.379c0.025,0.324,0.009,0.616-0.441,0.578C173.299,71.666,173.408,71.445,173.721,71.379z"/>
		<path fill="#A8A8A8" d="M151.881,74.339c0.261-0.265,0.481-0.311,0.611,0.116C152.276,74.481,152.055,74.531,151.881,74.339z"/>
		<path fill="#A8A8A8" d="M166.179,76.763c0.219-0.246,0.423-0.262,0.607,0.04C166.573,76.954,166.369,76.956,166.179,76.763z"/>
		<path fill="#A8A8A8" d="M141.231,68.559c-0.246,0.165-0.466,0.169-0.641-0.103C140.818,68.399,141.042,68.372,141.231,68.559z"/>
		<path fill="#CFCECE" d="M163.143,90.557c-0.256,0.252-0.476,0.295-0.622-0.105C162.743,90.402,162.978,90.274,163.143,90.557z"/>
		<path fill="#A8A8A8" d="M145.49,69.177c-0.242,0.152-0.46,0.151-0.642-0.096C145.075,69.019,145.297,68.998,145.49,69.177z"/>
		<path fill="#A8A8A8" d="M146.553,69.337c-0.244,0.144-0.463,0.142-0.641-0.107C146.141,69.174,146.365,69.148,146.553,69.337z"/>
		<path fill="#CFCECE" d="M164.825,72.168c-0.214,0.035-0.424,0.061-0.49-0.226C164.558,71.888,164.762,71.875,164.825,72.168z"/>
		<path fill="#CFCECE" d="M155.84,70.785c-0.205,0.266-0.36,0.219-0.477-0.075C155.533,70.668,155.699,70.648,155.84,70.785z"/>
		<path fill="#A8A8A8" d="M186.063,60.882c0,0.378-0.22,0.34-0.469,0.246C185.681,60.914,185.864,60.883,186.063,60.882z"/>
		<path fill="#A8A8A8" d="M151.573,70.096c-0.195,0.145-0.355,0.095-0.49-0.089C151.265,69.934,151.433,69.938,151.573,70.096z"/>
		<path fill="#A8A8A8" d="M152.945,74.494c0.231-0.291,0.378-0.223,0.463,0.109C153.239,74.63,153.07,74.655,152.945,74.494z"/>
		<path fill="#A8A8A8" d="M81.402,74.4c0.058-0.29,0.305-0.249,0.505-0.291c0.017,0.077,0.033,0.154,0.05,0.23
			C81.773,74.359,81.588,74.38,81.402,74.4z"/>
		<path fill="#A8A8A8" d="M150.509,69.938c-0.198,0.153-0.358,0.104-0.491-0.092C150.2,69.783,150.368,69.786,150.509,69.938z"/>
		<path fill="#A8A8A8" d="M155.836,74.956c0.234-0.299,0.38-0.235,0.456,0.112C156.124,75.096,155.959,75.111,155.836,74.956z"/>
		<path fill="#A8A8A8" d="M149.445,69.782c-0.202,0.16-0.361,0.107-0.489-0.098C149.136,69.628,149.307,69.624,149.445,69.782z"/>
		<path fill="#A8A8A8" d="M147.467,69.484c-0.196,0.149-0.358,0.107-0.491-0.089C147.157,69.328,147.326,69.326,147.467,69.484z"/>
		<path fill="#CFCECE" d="M154.955,70.665c-0.036,0.107-0.045,0.259-0.202,0.229c-0.056-0.011-0.09-0.139-0.134-0.213
			c0.002-0.045,0.004-0.089,0.007-0.133C154.735,70.586,154.845,70.626,154.955,70.665z"/>
		<path fill="#A8A8A8" d="M151.12,74.185c0.238-0.283,0.384-0.218,0.458,0.121C151.406,74.336,151.239,74.352,151.12,74.185z"/>
		<path fill="#A8A8A8" d="M153.858,74.639c0.236-0.289,0.38-0.211,0.462,0.115C154.15,74.783,153.981,74.804,153.858,74.639z"/>
		<path fill="#A8A8A8" d="M144.425,69.02c-0.191,0.154-0.353,0.114-0.491-0.075C144.113,68.868,144.281,68.866,144.425,69.02z"/>
		<path fill="#A8A8A8" d="M196.108,112.973c0.087-0.15,0.211-0.198,0.376-0.14C196.404,113.002,196.293,113.088,196.108,112.973z"/>
		<path fill="#B51D1A" d="M138.079,73.726c0.027,0.04,0.065,0.066,0.112,0.076c-0.186,0.237-0.218,0.009-0.291-0.096
			c0,0-0.011,0-0.011,0C137.953,73.712,138.016,73.719,138.079,73.726z"/>
		<path fill="#A8A8A8" d="M187.789,60.324c-0.053,0.199-0.124,0.341-0.314,0.098C187.556,60.316,187.666,60.301,187.789,60.324z"/>
		<path fill="#CFCECE" d="M158.883,71.242c-0.154,0.24-0.251,0.149-0.329-0.057C158.675,71.137,158.789,71.129,158.883,71.242z"/>
		<path fill="#A8A8A8" d="M163.137,76.172c0.214-0.298,0.262-0.099,0.31,0.103C163.325,76.297,163.215,76.284,163.137,76.172z"/>
		<path fill="#CFCECE" d="M160.253,71.431c-0.045,0.074-0.085,0.206-0.137,0.211c-0.164,0.017-0.157-0.128-0.164-0.245
			C160.052,71.408,160.153,71.419,160.253,71.431z"/>
		<path fill="#A8A8A8" d="M154.771,74.797c0.204-0.272,0.266-0.105,0.316,0.102C154.96,74.931,154.85,74.911,154.771,74.797z"/>
		<path fill="#A8A8A8" d="M154.626,70.547c-0.003,0.044-0.005,0.089-0.007,0.133c-0.101-0.008-0.203-0.015-0.304-0.023
			c-0.015-0.059-0.029-0.118-0.044-0.177C154.407,70.407,154.524,70.435,154.626,70.547z"/>
		<path fill="#A8A8A8" d="M185.309,61.191c-0.023,0.085-0.021,0.213-0.076,0.245c-0.096,0.057-0.162-0.034-0.19-0.133
			C185.132,61.265,185.22,61.228,185.309,61.191z"/>
		<path fill="#A8A8A8" d="M160.399,75.71c0.191-0.258,0.268-0.123,0.321,0.093C160.595,75.835,160.481,75.826,160.399,75.71z"/>
		<path fill="#A8A8A8" d="M169.225,78.112c0.021-0.052,0.043-0.104,0.064-0.156c0.005,0.017,0.02,0.041,0.014,0.051
			c-0.024,0.036-0.054,0.068-0.082,0.102C169.22,78.108,169.225,78.112,169.225,78.112z"/>
		<path fill="#B51D1A" d="M168.506,79.193c0.05,0.036,0.1,0.073,0.149,0.109C168.606,79.266,168.556,79.23,168.506,79.193z"/>
		<path fill="#F0F0F0" d="M134.163,106.772c0.003-0.057,0.007-0.114,0.01-0.171c0.037,0.019,0.073,0.038,0.11,0.056
			C134.243,106.695,134.203,106.734,134.163,106.772z"/>
		<path fill="#CFCECE" d="M173.101,71.239c-0.013-0.017-0.037-0.034-0.036-0.05c0.001-0.016,0.028-0.029,0.043-0.044
			c0.013,0.017,0.037,0.034,0.036,0.05C173.143,71.211,173.117,71.225,173.101,71.239z"/>
		<polygon fill="#A8A8A8" points="163.9,98.035 163.924,98.062 163.897,98.038 		"/>
		<path fill="#7F7C7C" d="M100.017,103.963c-0.883-2.065-1.934-4.064-2.47-6.266c-0.115-0.473-0.409-0.531-0.857-0.454
			c-2.42,0.418-4.796,1.016-7.145,1.717c-2.418,0.722-4.906,1.212-7.224,2.267c-0.448,0.204-0.642,0.611-1.015,0.847
			c-0.392-0.838-0.456-1.778-0.928-2.607c-0.716-1.257-0.335-2.022,1.076-2.413c1.609-0.447,3.251-0.783,4.859-1.215
			c2.083-0.559,4.176-1.047,6.284-1.481c1.775-0.365,3.58-0.7,5.38-0.692c2.321,0.01,4.673-0.176,6.96,0.555
			c0.907,0.29,1.637,0.775,2.072,1.536c0.327,0.573-0.281,1.055-0.673,1.439c-0.405,0.398-0.917,0.681-1.362,1.049
			c-0.414,0.343-0.671,0.666-0.769,1.218c-0.319,1.799-1.425,3.104-2.765,4.271C100.964,104.15,100.571,104.37,100.017,103.963z"/>
		<path fill="#CFCECE" d="M97.427,121.312c-0.009-0.16-0.035-0.323,0.098-0.451C97.847,121.088,97.744,121.223,97.427,121.312z"/>
		<path fill="#CFCECE" d="M98.244,117.242c-0.043-0.142-0.026-0.264,0.116-0.344C98.547,117.088,98.399,117.166,98.244,117.242z"/>
		<path fill="#CFCECE" d="M52.728,70.737c1.742,1.272,3.478,2.553,5.229,3.812c0.89,0.639,1.81,1.238,2.716,1.855
			c0.199,0.633,0.483,1.231,0.417,1.94c-0.075,0.807-0.626,1.229-1.43,1c-1.304-0.371-2.097-1.4-3.011-2.286
			c-1.37-1.327-2.326-2.982-3.564-4.411C52.466,71.931,52.328,71.249,52.728,70.737z"/>
		<path fill="#7F7C7C" d="M75.902,79.572c0.279-0.03,0.444-0.095,0.756-0.308c0.244,0.453,0.073,0.97,0.26,1.445
			c0.133,0.337-0.444,0.489-0.666,0.547c-0.394,0.102-0.788,0.25-1.21,0.343c-0.079-0.612,0.587-0.939,0.48-1.513
			c0,0-0.003,0.004-0.003,0.004c0.331-0.014,0.356-0.242,0.347-0.494L75.902,79.572z"/>
		<path fill="#7F7C7C" d="M75.866,79.596c0.009,0.252-0.016,0.481-0.347,0.494C75.528,79.85,75.695,79.721,75.866,79.596z"/>
		<path fill="#7F7C7C" d="M81.304,50.114c0.917,0.564,1.672,0.135,2.42-0.383c0.355-0.246,0.278-0.612,0.331-0.956
			c0.044-0.284,0.027-0.669,0.388-0.75c0.373-0.083,0.768,0.042,1.087,0.228c0.314,0.182,0.093,1.113-0.288,1.179
			c-0.698,0.121-0.944,0.65-1.12,1.195c-0.217,0.674-0.144,1.303,0.601,1.673c0.267,0.132,0.506,0.319,0.716,0.546
			c-1.555-0.638-3.393-0.833-4.142-2.725L81.304,50.114z"/>
		<path fill="#FDDA35" d="M141.087,43.118c-0.145-0.014-0.289-0.027-0.482-0.045c0.211-0.132,0.346-0.054,0.477,0.052
			C141.081,43.125,141.087,43.118,141.087,43.118z"/>
		<path fill="#B51D1A" d="M81.297,50.121c-0.014-0.012-0.028-0.024-0.043-0.036c0.017,0.01,0.033,0.019,0.05,0.029
			C81.304,50.114,81.297,50.121,81.297,50.121z"/>
		<path fill="#B51D1A" d="M74.753,81.91c0.012-0.016,0.023-0.032,0.035-0.048c-0.009,0.019-0.017,0.039-0.026,0.058L74.753,81.91z"
			/>
		<path fill="#B51D1A" d="M74.763,81.919c-0.011,0.014-0.021,0.027-0.032,0.041c0.008-0.017,0.015-0.033,0.023-0.05
			C74.753,81.91,74.763,81.919,74.763,81.919z"/>
		<path fill="#A8A8A8" d="M184.77,84.374c0.593-1.967,1.607-3.695,2.97-5.224c-0.461,1.14-1.33,2.051-1.796,3.19
			c-0.208,0.509-0.464,0.999-0.708,1.492C185.128,84.049,185.076,84.324,184.77,84.374z"/>
		<path fill="#A8A8A8" d="M194.926,76.173c0.832-0.066,1.624,0.113,2.404,0.368C196.529,76.419,195.727,76.296,194.926,76.173z"/>
		<path fill="#A8A8A8" d="M189.584,77.164c0.308-0.559,0.752-0.932,1.403-1.02C190.615,76.617,190.138,76.943,189.584,77.164z"/>
		<path fill="#A8A8A8" d="M187.793,79.036c-0.009-0.193,0.08-0.305,0.273-0.331C188.066,78.89,187.971,78.996,187.793,79.036z"/>
		<path fill="#A8A8A8" d="M197.973,76.738c-0.054-0.021-0.108-0.042-0.162-0.063c0.018-0.006,0.043-0.023,0.054-0.017
			c0.038,0.024,0.071,0.055,0.106,0.083C197.971,76.742,197.973,76.738,197.973,76.738z"/>
		<polygon fill="#7F7C7C" points="186.716,103.812 186.675,103.776 186.709,103.819 		"/>
		<path fill="#7F7C7C" d="M186.709,103.819c0.016,0.007,0.031,0.014,0.047,0.022c-0.013-0.01-0.026-0.019-0.04-0.029
			C186.716,103.812,186.709,103.819,186.709,103.819z"/>
		<path fill="#A8A8A8" d="M82.532,67.624c0.017,0.233-0.094,0.378-0.308,0.454C82.194,67.837,82.233,67.643,82.532,67.624z"/>
		<path fill="#7F7C7C" d="M138.079,73.726c-0.063-0.007-0.126-0.014-0.189-0.02C137.972,73.535,138.025,73.641,138.079,73.726z"/>
	</g>
</g>
</svg>
