<?xml version="1.0" encoding="utf-8"?>
<!-- Generator: Adobe Illustrator 17.0.0, SVG Export Plug-In . SVG Version: 6.00 Build 0)  -->
<!DOCTYPE svg PUBLIC "-//W3C//DTD SVG 1.1//EN" "http://www.w3.org/Graphics/SVG/1.1/DTD/svg11.dtd">
<svg version="1.1" id="Capa_1" xmlns="http://www.w3.org/2000/svg" xmlns:xlink="http://www.w3.org/1999/xlink" x="0px" y="0px"
	 width="232.951px" height="232.951px" viewBox="0 0 232.951 232.951" enable-background="new 0 0 232.951 232.951"
	 xml:space="preserve">
<path fill="#ECECEC" d="M232.951,223.828c0,5.038-4.084,9.123-9.123,9.123H9.123c-5.038,0-9.123-4.084-9.123-9.123V9.123
	C0,4.084,4.084,0,9.123,0h214.705c5.038,0,9.123,4.084,9.123,9.123V223.828z"/>
<g>
	<path fill="#309CD2" d="M66.407,203.07c-6.2,0.272-11.965-1.044-17.228-4.469c-6.565-4.272-10.006-10.554-11.041-18.032
		c-1.392-10.053,2.435-18.206,9.93-24.935c10.723-9.626,21.25-19.47,31.917-29.158c1.605-1.458,2.464-2.909,2.275-5.188
		c-0.212-2.56-0.272-5.171,0.506-7.72c0.528-1.729-0.104-3.076-1.446-4.398c-7.941-7.821-15.81-15.716-23.649-23.639
		c-3.375-3.412-8.075-2.671-12.116-3.95c-2.069-0.655-3.579-1.466-4.742-3.229C33.687,67.549,26.587,56.728,19.334,46.01
		c-1.758-2.598-1.368-4.578,0.665-6.588c2.361-2.335,4.698-4.694,7.1-6.986c1.861-1.775,3.4-1.987,6.046-0.459
		c10.613,6.127,20.383,13.551,30.974,19.684c2.949,1.708,5.112,3.706,5.414,7.476c0.536,6.697,4.086,11.598,9.177,15.997
		c6.478,5.597,12.301,11.957,18.327,18.066c1.289,1.307,2.665,2.147,4.381,1.529c3.674-1.323,7.187-0.15,10.724,0.473
		c1.091,0.192,1.587,0.085,2.301-0.834c1.226-1.58,2.573-3.228,4.23-4.279c4.62-2.932,4.937-6.876,4.102-11.835
		c-1.796-10.676,1.123-20.309,7.003-29.376c5.728-8.832,13.282-15.202,23.195-18.344c5.244-1.662,10.644-2.624,16.498-2.381
		c5.231,0.217,9.905,1.765,14.828,2.687c3.274,0.613,6.56,4.006,6.425,6.187c-0.098,1.587-0.974,2.575-1.978,3.554
		c-6.149,5.993-12.281,12.003-18.476,17.948c-3.083,2.958-3.681,8.873-1.105,12.298c2.419,3.217,8.599,4.158,12.14,1.489
		c5.221-3.935,9.353-9.06,14.077-13.545c2.321-2.204,4.498-4.559,6.81-6.773c2.239-2.143,4.257-2.021,6.072,0.542
		c3.638,5.139,5.06,11.138,5.513,17.226c1.707,22.931-13.746,43.441-35.759,48.14c-6.332,1.352-12.695,1.595-18.984,0.189
		c-2.162-0.483-3.23,0.161-4.548,1.522c-5.657,5.842-5.634,5.766,0.144,11.707c5.522,5.678,11.233,11.16,16.615,16.994
		c4.776,5.178,10.172,9.786,14.976,15.013c7.884,8.579,7.736,25.776-2.447,34.092c-4.342,3.546-9.166,5.632-14.655,6.364
		c-3.021-0.133-5.958-0.888-8.912-1.278c-2.879-0.381-4.244-3.452-7.179-3.154c-0.498-0.481-1.001-0.951-1.786-0.725l0.056,0.012
		c-2.482-4.134-6.157-7.162-9.547-10.479c-8.403-8.222-16.679-16.574-25.027-24.853c-0.838-0.831-1.492-2.233-3.105-0.712
		c-5.126,4.834-10.169,9.906-14.71,15.129c-5.855,6.735-12.939,12.268-18.227,19.472C76.285,200.031,71.548,202.039,66.407,203.07z
		 M203.676,60.926c-5.47,5.581-10.535,10.887-15.752,16.038c-5.959,5.882-15.917,6.259-21.915,0.985
		c-7.19-6.322-8.499-15.062-2.98-22.383c4.406-5.845,10.033-10.601,15.232-15.72c2.185-2.152,1.231-2.748-0.961-3.188
		c-10.614-2.127-20.729-1.231-29.984,4.957c-13.731,9.18-20.996,26.396-15.682,42.623c0.796,2.432-0.014,3.999-1.928,5.776
		c-2.531,2.349-5.336,4.487-7.352,7.418c-0.683,0.993-0.911,1.435,0.043,2.245c6.859,5.817,12.816,12.567,19.302,18.772
		c1.423,1.362,2.264,1.195,3.417-0.147c1.927-2.245,3.897-4.458,5.943-6.594c1.891-1.974,3.846-3.012,6.855-1.647
		c2.806,1.273,6.049,2.091,9.148,1.718c6.029-0.726,12.073-1.452,17.681-4.24C202.601,98.658,210.232,78.116,203.676,60.926z
		 M63.427,195.327c5.497,0.155,10.225-1.659,14.025-5.651c10.139-10.65,20.233-21.342,30.38-31.984
		c0.945-0.991,1.403-1.625,0.189-2.837c-7.253-7.245-14.858-14.149-21.535-21.954c-1.193-1.394-1.771-0.333-2.495,0.319
		c-4.19,3.773-8.436,7.487-12.523,11.369c-6.984,6.635-14.751,12.426-21.057,19.795c-5.06,5.913-6.716,12.521-3.56,19.681
		C49.946,191.085,55.49,195.133,63.427,195.327z M90.737,98.953c-0.384-1.66-1.337-2.253-2.068-2.986
		c-7.109-7.136-14.214-14.275-21.38-21.353c-1.988-1.963-3.105-4.112-3.754-6.934c-0.743-3.228,0.089-7.128-3.608-9.479
		c-8.939-5.683-17.748-11.573-26.573-17.434c-1.689-1.122-2.995-1.304-4.589,0.271c-1.593,1.574-1.553,2.803-0.367,4.614
		c5.959,9.103,11.419,18.535,18.054,27.194c0.869,1.134,1.582,1.894,3.265,1.991c5.75,0.33,10.696,2.277,14.811,6.757
		c6.166,6.713,12.825,12.974,19.308,19.393c0.784,0.776,1.569,2.286,2.873,1.472C88.274,101.482,89.539,100.026,90.737,98.953z
		 M177.551,185.31c-0.046-2.027-1.756-2.982-2.963-4.189c-18.679-18.691-37.403-37.337-56.088-56.022
		c-0.945-0.945-1.952-1.694-3.154-2.233c-1.312-0.588-2.412,0.114-3.202,0.872c-0.893,0.857-1.745,2.018-1.157,3.469
		c0.542,1.338,1.438,2.431,2.505,3.403c7.38,6.731,13.746,14.464,21.214,21.137c6.776,6.055,13.004,12.724,19.468,19.127
		c5.556,5.503,11.128,10.989,16.64,16.534c1.428,1.437,2.999,1.935,4.809,1.118C176.893,187.953,177.461,186.753,177.551,185.31z
		 M104.461,132.608c-0.331,0.122-0.776,0.271-1.209,0.449c-3.188,1.31-3.474,3.709-0.543,6.706
		c5.459,5.583,11.038,11.049,16.57,16.561c8.624,8.592,17.246,17.185,25.877,25.769c3.277,3.259,6.55,6.522,9.874,9.732
		c1.747,1.687,3.817,2.18,5.664,0.345c1.888-1.876,1.313-3.769-0.517-5.533c-3.026-2.918-5.941-5.95-8.917-8.919
		c-14.097-14.061-28.199-28.117-42.297-42.177C107.699,134.28,106.422,133.046,104.461,132.608z M178.275,173.112
		c1.526,0.128,2.558-0.575,3.184-1.852c0.786-1.604,0.274-2.959-0.921-4.167c-5.771-5.834-11.49-11.718-17.305-17.508
		c-7.703-7.669-15.485-15.259-23.216-22.899c-4.21-4.16-8.361-8.381-12.596-12.515c-1.112-1.086-2.558-1.956-4.154-1.393
		c-1.417,0.5-2.282,1.957-2.303,3.322c-0.025,1.637,0.942,3.105,2.206,4.267c2.001,1.838,4.036,3.643,5.963,5.556
		c15.118,15.015,30.213,30.052,45.313,45.085C175.535,172.093,176.515,173.357,178.275,173.112z"/>
	<path fill="#FCFCFC" d="M203.676,60.926c6.556,17.19-1.075,37.732-18.933,46.611c-5.608,2.789-11.652,3.514-17.681,4.24
		c-3.1,0.373-6.343-0.445-9.148-1.718c-3.009-1.365-4.964-0.327-6.855,1.647c-2.047,2.136-4.016,4.349-5.943,6.594
		c-1.152,1.342-1.993,1.509-3.417,0.147c-6.486-6.205-12.443-12.956-19.302-18.772c-0.954-0.809-0.726-1.251-0.043-2.245
		c2.016-2.931,4.82-5.069,7.352-7.418c1.914-1.776,2.724-3.344,1.928-5.776c-5.313-16.226,1.951-33.442,15.682-42.623
		c9.255-6.188,19.37-7.084,29.984-4.957c2.192,0.439,3.147,1.035,0.961,3.188c-5.198,5.12-10.825,9.875-15.232,15.72
		c-5.519,7.322-4.21,16.061,2.98,22.383c5.998,5.274,15.956,4.898,21.915-0.985C193.142,71.813,198.206,66.507,203.676,60.926z"/>
	<path fill="#FCFCFC" d="M63.427,195.327c-7.937-0.194-13.481-4.242-16.575-11.262c-3.156-7.16-1.499-13.768,3.56-19.681
		c6.306-7.369,14.073-13.161,21.057-19.795c4.087-3.882,8.333-7.597,12.523-11.369c0.724-0.652,1.303-1.713,2.495-0.319
		c6.676,7.805,14.281,14.71,21.535,21.954c1.214,1.212,0.755,1.846-0.189,2.837c-10.147,10.642-20.241,21.334-30.38,31.984
		C73.652,193.669,68.924,195.482,63.427,195.327z"/>
	<path fill="#FCFCFC" d="M90.737,98.953c-1.198,1.073-2.463,2.529-4.027,3.506c-1.304,0.814-2.089-0.696-2.873-1.472
		c-6.483-6.419-13.142-12.68-19.308-19.393c-4.115-4.48-9.062-6.427-14.811-6.757c-1.683-0.097-2.396-0.856-3.265-1.991
		c-6.635-8.659-12.095-18.09-18.054-27.194c-1.185-1.81-1.225-3.04,0.367-4.614c1.595-1.576,2.9-1.393,4.589-0.271
		c8.825,5.861,17.634,11.75,26.573,17.434c3.697,2.35,2.865,6.251,3.608,9.479c0.649,2.821,1.767,4.97,3.754,6.934
		c7.166,7.078,14.271,14.217,21.38,21.353C89.401,96.7,90.353,97.293,90.737,98.953z"/>
	<path fill="#FCFCFC" d="M177.551,185.31c-0.09,1.443-0.658,2.643-1.927,3.216c-1.809,0.818-3.38,0.319-4.809-1.118
		c-5.513-5.545-11.085-11.031-16.64-16.534c-6.465-6.403-12.692-13.072-19.468-19.127c-7.468-6.674-13.834-14.406-21.214-21.137
		c-1.066-0.972-1.962-2.065-2.505-3.403c-0.588-1.451,0.264-2.612,1.157-3.469c0.79-0.758,1.89-1.46,3.202-0.872
		c1.202,0.538,2.209,1.288,3.154,2.233c18.685,18.685,37.409,37.331,56.088,56.022C175.795,182.328,177.506,183.283,177.551,185.31z
		"/>
	<path fill="#FCFCFC" d="M104.461,132.608c1.961,0.437,3.238,1.671,4.502,2.932c14.098,14.06,28.2,28.116,42.297,42.177
		c2.977,2.969,5.892,6.001,8.917,8.919c1.83,1.765,2.405,3.657,0.517,5.533c-1.847,1.835-3.917,1.342-5.664-0.345
		c-3.324-3.21-6.598-6.473-9.874-9.732c-8.631-8.584-17.253-17.177-25.877-25.769c-5.532-5.512-11.111-10.978-16.57-16.561
		c-2.931-2.997-2.645-5.396,0.543-6.706C103.685,132.88,104.13,132.731,104.461,132.608z"/>
	<path fill="#FCFCFC" d="M178.275,173.112c-1.76,0.245-2.74-1.019-3.828-2.103c-15.1-15.033-30.196-30.07-45.313-45.085
		c-1.927-1.914-3.962-3.718-5.963-5.556c-1.264-1.162-2.231-2.629-2.206-4.267c0.021-1.364,0.886-2.822,2.303-3.322
		c1.595-0.563,3.041,0.307,4.154,1.393c4.236,4.134,8.386,8.355,12.596,12.515c7.732,7.64,15.514,15.23,23.216,22.899
		c5.814,5.789,11.534,11.674,17.305,17.508c1.194,1.208,1.707,2.562,0.921,4.167C180.833,172.537,179.801,173.24,178.275,173.112z"
		/>
</g>
</svg>
