<?xml version="1.0" encoding="utf-8"?>
<!-- Generator: Adobe Illustrator 17.0.0, SVG Export Plug-In . SVG Version: 6.00 Build 0)  -->
<!DOCTYPE svg PUBLIC "-//W3C//DTD SVG 1.1//EN" "http://www.w3.org/Graphics/SVG/1.1/DTD/svg11.dtd">
<svg version="1.1" id="Capa_1" xmlns="http://www.w3.org/2000/svg" xmlns:xlink="http://www.w3.org/1999/xlink" x="0px" y="0px"
	 width="232.951px" height="232.951px" viewBox="0 0 232.951 232.951" enable-background="new 0 0 232.951 232.951"
	 xml:space="preserve">
<g>
	<path fill="#ECECEC" d="M232.593,223.94c0,5.038-4.084,9.123-9.123,9.123H8.765c-5.038,0-9.123-4.084-9.123-9.123V9.235
		c0-5.038,4.084-9.123,9.123-9.123h214.705c5.038,0,9.123,4.084,9.123,9.123V223.94z"/>
	<g>
		<path fill="#D3D2D2" d="M12.328,194.06c3.097-0.003,6.194-0.005,9.291-0.008c0.154,0.019,0.309,0.035,0.463,0.048
			c0.671,2.461,2.787,2.229,4.579,2.288c4.421,0.144,8.848,0.116,13.272,0.158c2.271,1.783,4.79,1.737,7.402,1.005
			c11.187,0.011,22.375,0.021,33.562,0.032c2.879,1.21,5.431-0.059,8.623-1.098c-2.562-0.808-4.755-0.25-6.732-0.985
			c0.431-0.434,0.449-1.192,1.125-1.434c4.826-0.304,9.623,0.418,14.436,0.442c11.793,0.06,23.586,0.023,35.379,0.034
			c1.039,0.001,2.175-0.256,2.898,0.85c-1.358,1.74,0.018,2.275,1.28,2.569c3.023,0.703,6.106,1.329,9.214,0.995
			c2.598-0.279,5.132,1.321,7.713,0.118c3.594,0.086,7.189,0.171,10.783,0.257c0.324,0.596,0.88,0.64,1.471,0.639
			c6.591-0.005,13.183-0.006,19.774-0.005c0.67,0,1.327-0.001,1.584-0.804c0.29-0.018,0.58-0.036,0.87-0.054
			c1.026,1.341,2.044,1.359,3.055-0.018c1.308-0.012,2.617-0.023,3.925-0.035c4.697,0.919,9.335,0.483,14.043-0.312
			c-0.23-0.688-0.571-0.67-0.878-0.734c-4.003-0.843-8.098-0.544-12.142-0.9c-2.439-0.214-5.015-0.646-7.451,0.356
			c-0.774,0.029-1.465,0.017-1.53-1.062c-0.057-0.959-0.254-1.909-0.39-2.863c1.087,0.791,2.259,1.095,3.641,1.048
			c8.753-0.299,17.399,1.422,26.138,1.451c0.738,0.003,1.477-0.004,2.215-0.007c0,1.808,0,3.616,0,5.425
			c-1.798-0.022-3.547-0.864-5.354-0.459c-5.702,1.278-11.522,0.792-17.249,0.793c-6.174,0.001-12.357,0.237-18.529,0.02
			c-1.448-0.051-2.883-0.472-4.371-0.247c-2.903,0.438-5.895,1.307-8.738,0.759c-4.408-0.85-8.76-0.581-13.135-0.329
			c-1.378,0.079-2.271-0.904-3.709-0.865c-6.432,0.175-12.874,1.52-19.301,0.249c-2.133-0.422-4.243-0.597-6.337-0.257
			c-1.227,0.2-2.494,0.59-3.636,0.235c-4.635-1.442-9.314,0.216-14.054-0.367c-3.951-0.486-8.215-0.512-12.385-0.165
			c-4.751,0.395-9.584-0.255-14.383-0.331c-1.783-0.028-3.734,0.82-5.327,0.339c-4.585-1.386-9.225-0.469-13.813-0.739
			c-7.406-0.436-14.874,0.203-22.283-0.205c-8.336-0.459-16.698-0.01-25.012-0.897C12.328,197.347,12.328,195.704,12.328,194.06z"/>
		<path fill="#F7F7F7" d="M12.328,198.991c8.314,0.887,16.675,0.439,25.012,0.897c7.409,0.408,14.877-0.231,22.283,0.205
			c4.589,0.27,9.228-0.647,13.813,0.739c1.593,0.481,3.544-0.367,5.327-0.339c4.799,0.076,9.632,0.727,14.383,0.331
			c4.17-0.347,8.434-0.322,12.385,0.165c4.739,0.583,9.418-1.075,14.054,0.367c1.142,0.355,2.409-0.035,3.636-0.235
			c2.093-0.341,4.204-0.165,6.337,0.257c6.427,1.271,12.869-0.074,19.301-0.249c1.437-0.039,2.331,0.945,3.709,0.865
			c4.375-0.252,8.727-0.521,13.135,0.329c2.842,0.548,5.835-0.322,8.738-0.759c1.488-0.225,2.923,0.196,4.371,0.247
			c6.172,0.217,12.355-0.018,18.529-0.02c5.727-0.001,11.547,0.484,17.249-0.793c1.806-0.405,3.556,0.437,5.354,0.459
			c0.437,2.076-0.368,2.524-2.46,2.522c-67.401-0.068-134.803-0.075-202.204,0.015c-2.539,0.003-3.473-0.513-2.969-3.036
			C12.436,200.326,12.328,199.648,12.328,198.991z"/>
		<path fill="#22211F" d="M199.167,149.238c-0.078,2.407,1.898,1.762,2.962,1.661c4.056-0.386,7.924,0.951,11.922,1.056
			c1.384,0.036,2.408,0.964,2.332,2.808c-0.468,11.379-0.869,22.761-1.188,34.145c-0.056,1.989-0.847,2.434-2.662,2.379
			c-8.354-0.256-16.711-0.405-25.067-0.593c-5.153-0.121-10.306-0.301-15.46-0.326c-1.576-0.008-2.701-0.302-3.171-1.953
			c-0.151-0.531-0.36-1.133-1.137-1.053c-0.772,0.079-0.895,0.601-0.829,1.233c0.157,1.514-0.792,1.524-1.876,1.428
			c-0.729-0.064-1.466-0.045-2.199-0.062c-0.668-0.28-1.336-0.56-2.004-0.84c-0.065-1.303-0.131-2.606-0.196-3.909
			c0.015-0.823,0.029-1.645,0.044-2.468c0.072-2.288,0.143-4.577,0.215-6.865c0.393-8.256,0.785-16.512,1.178-24.768
			c0.055-0.318,0.111-0.636,0.166-0.954c0.562-0.281,0.585-0.859,0.746-1.36c1.721-0.565,3.511,0.101,5.241-0.294
			c0.673,3.162,0.671,3.16,3.117,1.08c0.42-0.357,0.869-0.68,1.305-1.019c2.205,1.212,4.626,0.251,6.897,0.684
			c2.184,0.416,3.245-0.02,3.318-2.587c0.053-1.881,0.676-3.763,0.411-5.7c0.522-0.375,0.998-0.385,0.799,0.393
			c-0.257,1.003-0.107,1.92,0.178,2.857c-0.318,1.337-0.553,2.701-0.98,4.001c-0.384,1.168,0.079,1.426,1.109,1.468
			c3.658,0.149,7.317,0.478,10.971,0.43C196.552,150.094,198.089,150.4,199.167,149.238z"/>
		<path fill="#B8B8B8" d="M22.801,114.211c-0.434-4.665,1.374-8.972,2.2-13.431c0.586-3.165,1.286-6.336,2.591-9.318
			c1.93-0.115,3.635,0.085,5.065,1.764c1.148,1.348,0.77,2.761,0.876,4.183c0.049,0.664-0.01,1.413,0.7,1.71
			c0.769,0.323,1.209-0.378,1.612-0.848c1.273-1.487,2.477-3.034,3.73-4.539c1.102-1.323,2.146-2.978,3.956-3.133
			c6.458-0.55,12.699-0.314,17.862,4.621c2.725,2.606,5.639,5.273,8.955,6.947c6.738,3.401,13.954,5.788,21.446,6.909
			c2.939,0.44,6.063,1.62,9.084-0.385c1.321-0.877,2.384-2.343,4.194-2.404c0.802,0.763,0.399,1.62,0.249,2.494
			c-0.25,1.448-0.687,2.901-0.191,4.386c0.004,0.311,0.009,0.623,0.014,0.934c-0.102,0.698,0.23,1.013,0.905,1.027
			c2.032,0.988,4.06,1.893,6.048-0.101c0.322-0.323,0.775-0.405,1.123-0.14c1.587,1.206,3.901,1.487,4.709,3.684
			c-0.508,0.676-1.666,0.86-1.532,2.022l-0.002,0.003c-2.591-0.592-5.117-1.623-7.729,0.233c-2.326,1.653-4.967,2.452-7.933,2.032
			c-3.676-0.52-5.54-3.151-6.816-6.086c-1.37-3.151-2.978-5.152-6.732-5.854c-5.306-0.992-10.245-3.655-15.918-3.27
			c-1.443,0.098-3.407,0.109-4.535-1.344c-1.64-2.113-3.556-3.499-6.269-4.128c-1.622-0.376-3.381-1.312-4.417-2.851
			c-1.868-2.776-4.649-4.34-7.534-5.658c-2.686-1.227-5.388,0.393-5.435,2.974c-0.027,1.512,1.043,2.402,2.052,3.179
			c2.878,2.216,4.848,5.278,7.411,7.75c2.112,2.038,3.012,4.892,5.179,6.797c4.251,3.738,6.726,8.576,7.774,13.957
			c1.266,6.499,1.235,13.153,1.111,19.777c-0.018,0.946-0.562,2.252,1.038,2.621c0.722,1.566,0.4,3.225,0.427,4.852
			c-1.081,3.797-3.05,7.244-4.348,10.947c-1.155,3.296-3.859,6.654-0.277,10.126c0.075,0.073-0.032,0.314-0.02,0.474
			c0.273,3.541,0.886,4.251,4.368,5.073c0.284,0.642,0.568,1.284,0.853,1.926c-1.3,1.87-2.571,3.762-3.912,5.602
			c-0.804,1.104-0.826,1.629,0.743,1.896c6.196,1.054,10.782-2.275,15.427-5.495c1.408,1.014,2.757,2.07,2.877,4.008
			c-1.243-0.555-2.369-0.338-3.303,0.617c-1.107,1.132-2.597,1.592-3.972,2.139c-1.429,0.568-3.245-0.086-4.5,1.265
			c-0.8,0.01-1.599,0.021-2.399,0.031c-0.758-0.158-1.437-0.169-1.57,0.84c-1.31,0.024-2.62,0.048-3.93,0.071
			c-0.701-0.795-0.869-0.22-1.02,0.397c-4.427,0.032-8.854,0.065-13.282,0.097c-0.686-0.799-0.863-0.224-1.029,0.382
			c-1.042,0.022-2.084,0.072-3.126,0.062c-2.721-0.027-3.314-0.694-3.16-3.497c2.01,1.32,4.479,1.636,6.532,1.183
			c2.844-0.629,5.714-1.097,8.573-1.584c1.765-0.301,1.846-0.89,1.094-2.254c-1.356-2.461-3.993-3.262-6.142-4.575
			c-1.575-0.962-3.147-2.519-5.351-2.12c0.7-2.997,1.561-5.975,1.1-9.113c0.958-2.837,0.461-5.698,0.134-8.555
			c4.27-3.076,5.068-4.283,3.222-7.821c-3.73-7.15-7.251-14.401-10.952-21.56c-1.89-3.656-5.733-4.665-9.525-5.72
			c-1.788-0.498-2.383,1.012-3.664,1.028c-0.759-1.087-0.314-2.31-0.393-3.473c1.444-0.963,3.058-1.365,4.75-1.718
			c1.997-0.417,4.159,0.122,6.01-0.97c4.022-2.373,6.304,0.9,9.11,2.654c0.624,0.39,1.274,0.665,1.703,1.291
			c0.914,1.335,0.534,2.853,0.633,4.306c0.109,1.596,0.955,2.779,2.552,2.719c1.424-0.053,2.272-1.165,2.356-2.675
			c0.068-1.216-0.036-2.409,0.457-3.62c1.452-3.568,0.709-6.114-2.36-8.645c-0.597-0.492-0.85-1.136-1.168-1.815
			c-1.837-3.919-3.774-7.811-7.06-10.762c-5.572-5.003-6.535-5.127-11.387-2.408c-0.36-3.06-0.212-6.242-2.153-8.92
			c-0.086-1.014-0.606-1.815-1.608-1.867c-1.144-0.059-1.104,1.163-1.226,1.829c-0.672,3.667-0.757,7.334,0.159,11.011
			c0.906,3.636-0.383,5.351-4.105,5.782C23.459,114.208,23.129,114.198,22.801,114.211z"/>
		<path fill="#D3D2D2" d="M198.206,108.707c0,0.351,0.001,0.703,0.001,1.054c-2.556,0.392-3.5,1.997-3.422,4.444
			c0.025,0.799-0.017,1.641-0.243,2.399c-0.893,2.993,0.337,5.694,1.064,8.464c0.194,0.738,0.776,0.993,1.521,0.863
			c0.687,5.632,4.539,9.752,6.971,14.548c0.535,1.056,1.589,1.964,0.624,3.286c-1.176,0.018-2.283-0.413-2.982-1.243
			c-0.779-0.925-1.823-1.223-2.72-1.826c-2.756-1.852-6.273-1.345-8.945-3.052c-3.164-2.021-5.996-1.398-8.883,0.362
			c-2.267,1.382-4.197,1.177-6.052-0.676c0.309-2.109,2.149-3.02,3.425-4.371c1.764-1.357,3.893-2.308,4.943-4.457
			c0.516-0.056,1.18-0.263,1.181-0.723c0.006-3.506,1.192-7.016,0.082-10.515c-0.784-2.472-0.28-5.822,1.133-6.919
			c2.866-2.225,3.355-4.32,1.282-7.317c-2.366-3.421-4.827-6.779-7.653-9.868c-1.751-1.914-3.381-3.974-5.785-5.004
			c-2.619-1.122-5.394-1.5-7.867,0.467c-1.973,1.569-2.547,4.687-1.452,7.668c0.59,1.605,1.317,3.166,2.071,4.704
			c0.655,1.336,0.564,2.573-0.486,3.561c-1.556,1.463-2.593,3.193-3.565,5.087c-0.746,1.455-0.685,2.05,0.483,3.273
			c2.12,2.221,4.411,4.29,4.902,7.837c0.448,3.238,0.141,6.055-1.133,8.988c-0.666,1.532-1.541,2.168-3.125,2.188
			c-2.876,0.035-3.853-2.538-5.546-4.056c-2.382-2.136-3.189-5.04-3.188-8.2c0-0.99,0.308-1.742,1.115-2.321
			c0.602-0.433,1.804-0.736,0.885-1.78c-0.782-0.889-1.811-1.174-2.665,0.061c-0.434,0.627-0.912,1.378-1.73,0.667
			c-0.664-0.577-1.312-1.378-0.564-2.343c0.742-0.958,0.834-2.25,0.432-3.051c-1.406-2.804-2.964-5.525-3.772-8.588
			c0.722-4.922,1.87-9.743,3.98-14.257c0.389-0.832-0.385-2.338,1.258-2.535c0.648-0.247,2.27,0.746,1.562-1.227l0.121-0.126
			c2.184,0.321,3.633-1.363,5.464-2.009c4.186-1.478,8.096-3.825,12.693-4c0,0-0.035-0.021-0.035-0.021
			c0.161,0.173,0.323,0.346,0.484,0.519c5.634-0.047,9.866,3.143,13.279,6.886c5.538,6.072,7.61,14.141,10.827,21.522
			c0.151,0.346,0.029,0.81,0.035,1.219c-0.056,0.039-0.166,0.098-0.16,0.115C198.087,108.51,198.151,108.607,198.206,108.707z"/>
		<path fill="#D3D2D2" d="M105.073,106.289c-1.811,0.061-2.874,1.527-4.195,2.404c-3.022,2.005-6.145,0.825-9.084,0.385
			c-7.493-1.121-14.708-3.508-21.446-6.909c-3.316-1.674-6.23-4.342-8.955-6.947C56.229,90.286,49.988,90.05,43.53,90.6
			c-1.81,0.154-2.855,1.81-3.956,3.133c-1.253,1.505-2.457,3.051-3.73,4.539c-0.403,0.47-0.843,1.171-1.612,0.848
			c-0.71-0.298-0.651-1.047-0.7-1.71c-0.105-1.422,0.273-2.835-0.876-4.183c-1.43-1.679-3.134-1.88-5.065-1.764
			c1.206-4.62,4.799-7.143,8.46-9.593c0.739-0.494,1.571-0.849,2.361-1.267c0.387,0.502,0.756,0.378,1.252,0.088
			c1.317-0.77,2.622-1.609,4.035-2.157c4.993-1.935,10.008-1.828,14.989,0.126c0.46-0.029,0.92-0.058,1.38-0.087
			c0.654,1.612,2.52,1.767,3.521,2.884c1.941,2.166,3.762,4.449,5.516,6.772c2.218,2.936,4.243,6.02,6.494,8.929
			c1.871,2.419,4.913,3.152,7.431,4.617c2.326,1.352,4.925,2.228,7.375,3.377c2.162,1.014,4.054,1.052,5.713-0.985
			c0.873-1.073,1.874-2.047,3.188-2.663c2.742-1.286,4.709-0.776,6.706,1.845C105.388,104.228,105.376,105.305,105.073,106.289z"/>
		<path fill="#D3D2D2" d="M23.684,47.606c-0.197-4.326,0.822-8.362,2.655-12.275c1.187-2.532,3.078-4.125,5.725-4.363
			c5.735-0.516,11.396-1.387,17.281-0.859c4.326,0.388,8.897,0.005,13.314-0.558c3.314-0.422,6.532-0.327,9.587,1.007
			c2.455,1.072,3.268,3.65,4.29,5.798c0.993,2.086,1.905,4.342,1.9,6.777c-1.455-0.126-2.887-0.164-4.368-0.029
			c-5.415,0.494-10.829,0.129-16.311,0.783c-6.923,0.826-14.024,0.506-21.039,1.171c-3.247,0.308-6.52-0.06-9.456,1.883
			C26.258,47.606,24.941,47.72,23.684,47.606z"/>
		<path fill="#B8B8B8" d="M134.845,53.539c-1.209-4.384-0.871-8.68,0.729-12.904c0.692,1.465,2.048,0.649,3.037,0.754
			c6.478,0.682,12.966,1.532,19.464,1.663c4.622,0.093,9.265,0.007,13.9,0.109c5.137,0.113,10.008,1.705,14.71,3.398
			c1.953,0.703,2.124,0.288,2.708-0.974c0.664,4.628,0.257,9.116-1.746,13.397c-0.544-0.645-1.395,0.046-1.735-0.19
			c-3.183-2.21-6.962-2.987-10.551-3.45c-4.213-0.543-8.539-1.163-12.868-0.528c-4.068,0.597-8.175,0.53-12.258,0.212
			C145.098,54.625,140.123,52.527,134.845,53.539z"/>
		<path fill="#D3D2D2" d="M189.393,45.584c-0.585,1.261-0.755,1.677-2.708,0.974c-4.702-1.693-9.573-3.285-14.71-3.398
			c-4.634-0.102-9.277-0.015-13.9-0.109c-6.498-0.131-12.986-0.982-19.464-1.663c-0.99-0.104-2.345,0.711-3.037-0.754
			c0.662-3.966,2.381-7.448,5.046-10.412c1.238-1.377,3.136-1.095,4.669-0.792c3.102,0.612,6.199,0.287,9.295,0.414
			c6.029,0.249,12.026,0.932,18.064,1.186c3.963,0.167,7.886,1.831,11.926,2.468c2.616,0.413,2.995,3.219,3.527,5.153
			C188.713,40.874,189.536,43.173,189.393,45.584z"/>
		<path fill="#B8B8B8" d="M23.684,47.606c1.257,0.114,2.574,0,3.577-0.663c2.936-1.943,6.209-1.575,9.456-1.883
			c7.016-0.665,14.116-0.345,21.039-1.171c5.481-0.654,10.896-0.289,16.311-0.783c1.481-0.135,2.913-0.097,4.368,0.029
			c0.82,3.118,0.664,6.261,0.233,9.411c-0.477,0.076-0.598,0.252-0.165,0.583c-0.027,0.291-0.055,0.582-0.083,0.873
			c-4.136-0.613-8.243-0.569-12.419-0.085c-3.138,0.364-6.174,1.587-9.435,1.106c-1.782-0.263-3.534,0.19-5.306,0.638
			c-2.024,0.512-4.193,0.801-6.271,0.684c-6.619-0.372-13.121-0.422-18.899,3.555C24.144,56.025,23.51,51.895,23.684,47.606z"/>
		<path fill="#A2A1A1" d="M134.845,53.539c5.278-1.011,10.252,1.086,15.39,1.486c4.084,0.318,8.19,0.385,12.258-0.212
			c4.328-0.635,8.655-0.016,12.868,0.528c3.589,0.463,7.368,1.24,10.551,3.45c0.34,0.236,1.191-0.455,1.735,0.19
			c-0.991,2.929-1.775,5.978-4.553,7.874c-1.077-0.026-1.159,0.677-1.091,1.489c0,0,0.046,0.032,0.046,0.031
			c-1.959-0.361-3.454-2.388-5.171-2.37c-3.172,0.033-6.146-0.861-9.186-1.288c-2.473-0.347-4.798,1.033-7.177,0.094
			c-1.416-0.559-2.919-0.618-4.363-0.418c-3.608,0.501-7.082-1.043-10.68-0.56c-1.138,0.153-2.105-1.417-3.218-0.708
			c-1.432,0.912-2.773,0.489-4.181,0.248C136.269,60.334,135.261,57.034,134.845,53.539z"/>
		<path fill="#A2A1A1" d="M26.089,59.9c5.778-3.977,12.281-3.927,18.899-3.555c2.078,0.117,4.247-0.172,6.271-0.684
			c1.773-0.448,3.524-0.901,5.306-0.638c3.261,0.481,6.297-0.742,9.435-1.106c4.176-0.484,8.283-0.529,12.419,0.085
			c-0.415,3.413-1.379,6.633-3.334,9.505c-0.25-0.361-0.593-0.381-1.016-0.464c-4.464-0.879-8.47,0.996-12.545,2.164
			c-4.518,1.294-9.152,2.525-13.677,1.381c-3.97-1.004-7.857-1.235-11.849-1.243c-2.045-0.004-3.995,0.299-5.711,1.513
			C28.041,65.05,27.08,62.466,26.089,59.9z"/>
		<path fill="#8C8C8C" d="M69.609,194.188c0.8-0.01,1.599-0.021,2.398-0.032c0.853,0.716,1.866,0.475,2.785,0.333
			c3.148-0.484,6.511-0.356,9.012-2.879c1.017,0.775-0.177,1.649,0.11,2.457c-0.676,0.242-0.694,1-1.125,1.434
			c-0.773,0.564-1.884,0.822-1.891,2.082c-11.187-0.011-22.375-0.021-33.562-0.032c-2.394-0.876-4.907-0.877-7.402-1.005
			c-4.424-0.041-8.851-0.013-13.272-0.158c-1.792-0.058-3.909,0.173-4.578-2.288c0.415-0.555,1.008-0.471,1.585-0.443
			c0.168,0.132,0.337,0.263,0.505,0.395c1.31-0.164,2.62-0.328,3.929-0.491c2.381,0.328,4.262-1.447,6.602-1.499
			c5.19-0.115,6.349-2.074,4.456-7.053c-0.461-1.214-1.085-2.518-1.025-3.751c0.25-5.075,1.837-9.853,3.874-14.461
			c1.024-2.317,1.082-4.676,1.025-7.114c-0.097-4.156-2.009-7.712-3.845-11.223c-1.256-2.401-2.511-5.207-6.13-5.196
			c0,0.865,0,1.677,0,2.489c-0.011,0.811-0.023,1.622-0.034,2.433c-0.84,0.098-1.391-0.253-1.735-1.029
			c-0.793-1.79-2.229-2.516-4.136-2.421c-0.396-2.498,0.422-4.903,0.562-7.36c1.462-1.43,2.047,1.107,3.388,0.717
			c2.339-0.68,3.715,0.989,4.747,2.596c2.408,3.748,4.708,7.578,6.831,11.494c2.311,4.263,4.851,8.457,5.746,13.341
			c0.328,2.857,0.824,5.718-0.134,8.556c-0.72,1.012-1.091,2.182-1.355,3.36c-0.429,1.911-1.461,3.838-0.127,5.797
			c0.129,1.052-0.492,1.829-0.958,2.672c-1.2,2.171-2.907,4.086-3.364,6.634c-0.154,2.803,0.439,3.47,3.16,3.497
			c1.042,0.01,2.084-0.04,3.126-0.061c0.411,0.055,0.777-0.009,1.029-0.382c4.427-0.032,8.854-0.065,13.282-0.097
			c0.409,0.045,0.774-0.025,1.019-0.398c1.31-0.024,2.62-0.048,3.93-0.071C68.743,195.085,69.414,195.082,69.609,194.188z"/>
		<path fill="#D3D2D2" d="M32.718,106.334c4.85-2.72,5.814-2.596,11.385,2.408c3.286,2.951,5.223,6.843,7.06,10.762
			c0.318,0.679,0.572,1.323,1.168,1.815c3.069,2.531,3.812,5.077,2.36,8.645c-0.493,1.211-0.389,2.404-0.457,3.62
			c-0.084,1.51-0.932,2.622-2.356,2.675c-1.597,0.06-2.443-1.123-2.552-2.719c-0.1-1.453,0.281-2.972-0.633-4.306
			c-0.429-0.626-1.079-0.9-1.703-1.291c-2.805-1.755-5.088-5.027-9.11-2.654c-1.851,1.092-4.013,0.554-6.01,0.97
			c-1.693,0.353-3.306,0.755-4.75,1.718c0.001-0.622,0.003-1.243,0.004-1.866c0.537-1.616,1.021-3.25,1.62-4.842
			c1.535-4.084,3.938-7.897,3.834-12.484C32.625,107.967,32.671,107.151,32.718,106.334z"/>
		<path fill="#8C8C8C" d="M138.073,63.373c1.408,0.241,2.749,0.664,4.181-0.248c1.113-0.709,2.08,0.861,3.218,0.708
			c3.598-0.483,7.072,1.061,10.68,0.56c1.444-0.201,2.946-0.141,4.363,0.418c2.379,0.939,4.704-0.441,7.177-0.094
			c3.04,0.427,6.015,1.321,9.186,1.288c1.717-0.018,3.212,2.009,5.171,2.37c-0.17,1.679-1.644,2.372-2.661,3.353
			c-1.828,1.763-3.816,3.359-5.738,5.024c-4.276-1.961-8.657-1.506-13.125-0.792c-2.598,0.415-4.876,1.767-7.46,2.108
			c-1.195-2.45-3.772-3.265-5.743-4.777C143.673,70.491,140.096,67.67,138.073,63.373z"/>
		<path fill="#8C8C8C" d="M30.288,66.858c1.716-1.214,3.666-1.517,5.711-1.513c3.992,0.008,7.88,0.239,11.849,1.243
			c4.524,1.144,9.159-0.086,13.677-1.381c4.075-1.168,8.081-3.042,12.545-2.164c0.423,0.083,0.766,0.103,1.016,0.464
			c-1.674,3.57-4.417,6.245-7.417,8.661c-2.227,1.793-4.591,3.416-6.894,5.115c-1.778-0.67-3.297-1.772-4.877-2.799
			c-1.645-1.069-3.658-2.264-5.477-1.612c-1.6,0.574-3.167,0.555-4.698,0.94c-2.241,0.563-4.793-0.383-6.76,1.395
			C36.008,72.49,32.347,70.507,30.288,66.858z"/>
		<path fill="#8C8C8C" d="M162.795,189.96c0.733,0.018,1.47-0.001,2.199,0.063c1.084,0.095,2.033,0.086,1.876-1.428
			c-0.066-0.632,0.058-1.154,0.829-1.233c0.777-0.08,0.985,0.522,1.137,1.053c0.469,1.651,1.595,1.945,3.171,1.953
			c5.154,0.026,10.307,0.206,15.46,0.326c-0.396,1.043,0.527,1.863,0.482,2.846c0.135,0.954,0.333,1.904,0.39,2.863
			c0.064,1.078,0.756,1.091,1.53,1.062c1.338,1.078,2.91,0.338,4.361,0.551c0.819,0.121,1.849-0.252,2.068,1.038
			c-1.308,0.012-2.617,0.023-3.926,0.034c-1.018,0.006-2.036,0.012-3.054,0.019c-0.29,0.018-0.58,0.036-0.87,0.053
			c-3.193-0.035-6.389-0.156-9.579-0.08c-4.416,0.105-8.843-0.319-13.25,0.251c-3.594-0.086-7.189-0.171-10.783-0.258
			c-2.446-2.139-5.378-2.222-8.403-2.063c-1.719,0.09-3.448-0.029-5.172-0.023c-1.018,0.003-1.962-0.147-2.685-0.95
			c0.341-0.161,0.592-0.326,0.021-0.523c0,0,0.01,0.003,0.01,0.003c0.169-0.611-0.361-0.94-0.566-1.4
			c0.09-0.691,0.357-0.934,1.145-0.778c1.405,0.277,2.838,0.31,4.284,0.349c2.442,0.066,4.586-1.117,6.951-1.114
			c0.032,0.47,0.063,0.939,0.095,1.409c-0.055,0.731,0.168,1.526,0.968,1.35c2.179-0.48,4.153,0.406,6.217,0.67
			c3.677,0.47,5.02-0.693,5.046-4.328C162.748,191.103,162.777,190.531,162.795,189.96z"/>
		<path fill="#B8B8B8" d="M23.668,193.657c-0.577-0.028-1.17-0.113-1.585,0.443c-0.155-0.013-0.309-0.029-0.464-0.048
			c0.206-1.136,0.412-2.271,0.618-3.407c0.773-0.132,0.803,0.67,1.317,1.079c0.384-1.58,1.087-2.801,2.445-3.767
			c2.41-1.714,1.197-4.462,1.572-6.761c1.423-5.536,2.806-11.082,4.289-16.602c0.64-2.385,0.92-4.806,1.154-7.245
			c-0.507-3.056,0.274-6.109,0.012-9.164c0.011-0.811,0.023-1.622,0.034-2.433c1.213,0.377,2.1,1.157,1.908,2.463
			c-0.409,2.781,1.08,4.958,1.942,7.38c1.058,2.976,2.756,6.17,1.358,9.273c-1.153,2.561-1.792,5.232-2.569,7.847
			c-1.159,3.903-2.778,7.803-1.749,12.11c0.281,1.175,0.688,2.99-0.382,3.731c-1.623,1.124-2.207,3.51-4.592,3.675
			c-0.606,0.042-0.842,0.71-0.875,1.329c-1.31,0.164-2.62,0.328-3.929,0.492c-0.058-0.211-0.116-0.423-0.174-0.634
			C23.889,193.497,23.779,193.577,23.668,193.657z"/>
		<path fill="#A2A1A1" d="M48.431,165.523c-0.895-4.885-3.435-9.078-5.746-13.341c-2.123-3.916-4.423-7.746-6.831-11.494
			c-1.032-1.607-2.408-3.276-4.747-2.596c-1.342,0.39-1.927-2.147-3.388-0.717c0.263-1.986,0.16-3.96-0.204-5.925
			c1.28-0.017,1.875-1.526,3.663-1.028c3.792,1.055,7.635,2.064,9.525,5.72c3.701,7.159,7.222,14.411,10.952,21.56
			C53.498,161.239,52.701,162.447,48.431,165.523z"/>
		<path fill="#B8B8B8" d="M114.824,107.609c4.089-1.203,8.14-2.569,12.28-3.559c3.487-0.834,5.687-2.984,7.463-5.875
			c1.671-2.72,3.441-5.378,5.175-8.059c2.417-3.737,6.044-5.893,9.995-7.623c-0.726,1.48,0.382,3.106-0.514,4.653
			c-1.389,2.399-2.673,4.878-3.772,7.422c-2.458,5.691-4.543,11.521-5.998,17.561c-0.166,0.033-0.333,0.065-0.501,0.097
			c0.162-1.987,0.038-4.003,0.629-5.945c1.044-5.143,3.515-10.013,3.012-15.527c-1.998,2.22-4.364,4.028-5.095,7.106
			c-0.998,4.202-2.646,7.972-6.996,9.903c-1.814,0.805-3.836,0.976-5.549,1.799c-3.36,1.613-6.389,0.101-9.529-0.461
			C114.77,108.983,114.935,108.151,114.824,107.609z"/>
		<path fill="#A2A1A1" d="M114.824,107.609c0.111,0.543-0.054,1.375,0.601,1.492c3.14,0.562,6.169,2.074,9.529,0.461
			c1.713-0.823,3.735-0.994,5.549-1.799c4.35-1.931,5.997-5.701,6.996-9.903c0.731-3.078,3.097-4.886,5.095-7.106
			c0.503,5.514-1.968,10.384-3.012,15.527c-0.822-0.08-1.45,0.193-1.75,1.005c-0.574,1.55-1.919,2.225-3.31,2.694
			c-1.611,0.543-3.289,0.909-4.959,1.253c-2.867,0.591-5.786,1.016-8.407,2.408c-2.652,1.408-3.304,1.322-5.057-1.091
			c-0.429-0.59-0.854-1.211-1.129-1.88c-0.511-1.241-0.943-0.816-1.45-0.028c-2.102,3.273-3.342,3.749-6.803,2.305
			c-0.737-0.307-1.126-0.39-1.587,0.221c-0.497-1.485-0.06-2.938,0.19-4.386c0.151-0.874,0.554-1.732-0.249-2.494
			c0.303-0.984,0.316-2.061,0.942-2.942c0.387,0.447,0.951,0.772,1.002,1.451c-0.022,0.989-0.045,1.977-0.067,2.966
			c-0.99,2.92-0.503,3.965,2.054,4.415c0.318,0.002,0.637,0.004,0.955,0.006c0.661,0.022,0.988-0.309,1.012-0.959
			c0.025-0.15,0.048-0.301,0.071-0.452c1.832-0.462,1.756-2.751,3.321-3.468C114.516,107.407,114.67,107.508,114.824,107.609z"/>
		<path fill="#8C8C8C" d="M139.453,112.128c1.456-6.039,3.541-11.87,5.999-17.56c1.099-2.544,2.382-5.023,3.772-7.422
			c0.896-1.547-0.213-3.173,0.514-4.653c0.683-1.471,1.798-2.521,3.204-3.289c1.009,0.021,2.018,0.041,3.028,0.062
			c-1.259,2.474-3.298,4.237-6.151,6.157c3.048-0.254,2.335,0.905,1.768,2.19c-1.117,2.533-2.377,5.047-3.111,7.697
			c-1.954,7.06-3.208,14.281-4.642,21.461c-0.212,1.064-0.137,3.397-2.151,2.994c-1.823-0.365-2.734,0.466-3.79,1.474
			c-0.454-1.403,0.264-2.741,0.226-4.121C139.342,115.663,139.135,113.825,139.453,112.128z"/>
		<path fill="#A2A1A1" d="M32.578,108.784c0.104,4.587-2.299,8.4-3.834,12.484c-0.598,1.592-1.083,3.226-1.62,4.842
			c-1.818-3.829-3.31-7.778-4.323-11.9c0.328-0.012,0.659-0.002,0.984-0.04c3.722-0.431,5.011-2.146,4.105-5.782
			c-0.916-3.678-0.831-7.344-0.159-11.011c0.122-0.666,0.082-1.888,1.226-1.829c1.002,0.051,1.522,0.853,1.608,1.866
			c-1.232,0.216-1.146,1.074-0.701,1.814c0.773,1.284,0.778,2.827,1.342,4.061C32.029,105.094,31.627,107.094,32.578,108.784z"/>
		<path fill="#B8B8B8" d="M175.14,137.33c1.854,1.852,3.784,2.058,6.051,0.676c2.887-1.76,5.719-2.383,8.883-0.362
			c2.672,1.707,6.189,1.2,8.945,3.052c0.897,0.603,1.942,0.9,2.72,1.826c0.698,0.83,1.806,1.26,2.982,1.243
			c-0.032,0.827-0.199,1.583-1.047,1.978c-1.927-2.732-4.962-2.817-7.727-2.681c-2.523,0.124-5.047,0.189-7.562,0.134
			c-1.119-0.025-2.339-0.202-2.521-1.994c-0.329-3.247-1.236-3.635-4.122-1.983c-2.303,1.318-4.457,3.203-7.255,1.107
			c0.006-0.483,0.011-0.965,0.016-1.448C174.611,138.319,174.507,137.673,175.14,137.33z"/>
		<path fill="#B8B8B8" d="M155.969,79.266c-1.009-0.021-2.019-0.042-3.028-0.062c0.041-0.379,0.082-0.758,0.124-1.137
			c2.584-0.341,4.863-1.693,7.46-2.108c4.468-0.714,8.849-1.169,13.125,0.792c-0.01,0.471-0.021,0.941-0.031,1.412
			c-4.597,0.175-8.507,2.522-12.693,4c-1.831,0.646-3.28,2.331-5.464,2.009c0.725-1.149,1.45-2.298,2.174-3.447
			c0.944-0.684,0.942-1.236-0.228-1.623C156.928,79.157,156.448,79.212,155.969,79.266z"/>
		<path fill="#8C8C8C" d="M199.167,149.238c-1.078,1.161-2.615,0.856-3.86,0.872c-3.655,0.048-7.313-0.281-10.971-0.43
			c-1.03-0.042-1.492-0.3-1.109-1.468c0.428-1.301,0.662-2.665,0.979-4.001c5.903,0.776,11.866,1.14,17.681,2.533
			C201.306,147.93,199.831,148.142,199.167,149.238z"/>
		<path fill="#A2A1A1" d="M201.887,146.743c-5.815-1.394-11.778-1.757-17.681-2.533c-0.284-0.938-0.435-1.854-0.178-2.857
			c0.199-0.778-0.277-0.769-0.8-0.394c-1.225-0.388-2.268-0.115-3.061,0.905c-0.603,0.775-1.489,1.024-2.345,1.21
			c-2.31,0.501-3.653-0.647-3.334-2.748c2.798,2.096,4.953,0.211,7.256-1.107c2.886-1.652,3.793-1.264,4.122,1.983
			c0.182,1.792,1.401,1.969,2.521,1.994c2.515,0.056,5.038-0.01,7.562-0.134c2.765-0.136,5.799-0.051,7.727,2.681
			C203.079,146.076,202.483,146.41,201.887,146.743z"/>
		<path fill="#B8B8B8" d="M58.688,78.659c-4.98-1.953-9.996-2.06-14.989-0.126c-1.413,0.547-2.718,1.386-4.035,2.157
			c-0.496,0.29-0.865,0.414-1.252-0.088c1.399-1.219,0.975-2.896,1.112-4.432c2.38-0.542,4.826-0.836,7.216-1.187
			C51.135,74.337,55.83,73.832,58.688,78.659z"/>
		<path fill="#A2A1A1" d="M33.027,148.185c0.262,3.055-0.519,6.108-0.012,9.164c-1.5-0.248-2.5-1.268-3.134-2.477
			c-1.655-3.159-3.183-6.393-2.726-10.137c1.907-0.095,3.344,0.631,4.136,2.421C31.635,147.932,32.186,148.283,33.027,148.185z
			 M31.291,154.282c0.054-0.029,0.135-0.045,0.154-0.089c0.022-0.051-0.011-0.125-0.02-0.19c-0.08,0.042-0.161,0.084-0.241,0.125
			C31.22,154.179,31.255,154.23,31.291,154.282z"/>
		<path fill="#B8B8B8" d="M197.126,125.93c-0.745,0.13-1.327-0.125-1.521-0.863c-0.727-2.769-1.956-5.471-1.064-8.464
			c0.226-0.758,0.269-1.601,0.243-2.399c-0.078-2.447,0.866-4.052,3.422-4.444C198.691,115.207,197.016,120.509,197.126,125.93z"/>
		<path fill="#A2A1A1" d="M58.688,78.659c-2.858-4.827-7.553-4.322-11.948-3.676c-2.391,0.351-4.836,0.645-7.216,1.187
			c-0.187-0.321-0.374-0.642-0.561-0.963c1.967-1.778,4.519-0.832,6.76-1.395c1.531-0.385,3.098-0.367,4.698-0.94
			c1.818-0.652,3.832,0.543,5.477,1.612c1.58,1.027,3.098,2.129,4.877,2.799c-0.235,0.43-0.47,0.86-0.706,1.289
			C59.609,78.601,59.149,78.63,58.688,78.659z"/>
		<path fill="#D3D2D2" d="M109.958,112.185c-0.318-0.002-0.637-0.004-0.956-0.006c-0.685-1.472-1.369-2.944-2.054-4.415
			c0.022-0.989,0.045-1.977,0.067-2.966c2.176,0.36,4.682-0.811,6.461,1.392c-1.19,1.328-1.947,2.884-2.436,4.584
			c-0.022,0.151-0.046,0.301-0.071,0.452C110.327,111.223,109.999,111.552,109.958,112.185z"/>
		<path fill="#D3D2D2" d="M27.572,181.196c-0.375,2.299,0.838,5.048-1.572,6.761c-1.358,0.966-2.061,2.187-2.445,3.767
			c-0.514-0.41-0.545-1.211-1.317-1.079C23.325,187.105,25.57,184.219,27.572,181.196z"/>
		<path fill="#B8B8B8" d="M111.041,110.774c0.489-1.699,1.246-3.256,2.436-4.584c0.566,0.156,0.912,0.489,0.885,1.116
			C112.797,108.023,112.873,110.312,111.041,110.774z"/>
		<path fill="#8C8C8C" d="M182.003,68.344c-0.068-0.812,0.014-1.515,1.091-1.489C182.893,67.47,182.83,68.187,182.003,68.344z"/>
		<path fill="#A2A1A1" d="M78.503,53.128c-0.433-0.331-0.312-0.507,0.165-0.583C78.613,52.739,78.558,52.934,78.503,53.128z"/>
		<path fill="#B8B8B8" d="M198.206,108.707c-0.055-0.1-0.119-0.197-0.157-0.303c-0.006-0.017,0.104-0.076,0.16-0.115
			C198.225,108.429,198.224,108.568,198.206,108.707z"/>
		<path fill="#B8B8B8" d="M174.068,78.662c-0.161-0.173-0.323-0.346-0.484-0.519C173.745,78.316,173.907,78.489,174.068,78.662z"/>
		<path fill="#B8B8B8" d="M136.628,195.393c0.289,0.012,0.578,0.025,0.868,0.038c0.371,0.029,0.74,0.058,1.11,0.086
			c0,0-0.01-0.003-0.01-0.003c-0.007,0.174-0.014,0.349-0.021,0.523c0.723,0.804,1.667,0.954,2.685,0.95
			c1.724-0.005,3.453,0.114,5.172,0.023c3.025-0.159,5.957-0.076,8.403,2.063c-2.581,1.204-5.115-0.397-7.713-0.117
			c-3.107,0.334-6.19-0.292-9.214-0.995C136.646,197.669,135.269,197.133,136.628,195.393z"/>
		<path fill="#B8B8B8" d="M196.297,199.055c-0.219-1.29-1.249-0.918-2.068-1.038c-1.45-0.214-3.022,0.527-4.361-0.551
			c2.436-1.003,5.012-0.571,7.451-0.356c4.045,0.356,8.139,0.056,12.142,0.9c0.307,0.065,0.648,0.046,0.878,0.734
			C205.632,199.538,200.994,199.974,196.297,199.055z"/>
		<path fill="#B8B8B8" d="M165.618,199.332c4.407-0.571,8.833-0.146,13.25-0.251c3.191-0.076,6.386,0.045,9.579,0.08
			c-0.257,0.804-0.914,0.806-1.584,0.805c-6.591-0.001-13.183,0-19.774,0.005C166.498,199.972,165.942,199.928,165.618,199.332z"/>
		<path fill="#B8B8B8" d="M80.898,197.583c0.007-1.26,1.118-1.518,1.891-2.082c1.977,0.735,4.171,0.177,6.732,0.984
			C86.329,197.524,83.777,198.793,80.898,197.583z"/>
		<path fill="#B8B8B8" d="M39.934,196.545c2.495,0.129,5.008,0.129,7.402,1.005C44.724,198.282,42.204,198.328,39.934,196.545z"/>
		<path fill="#B8B8B8" d="M189.317,199.108c1.018-0.007,2.036-0.013,3.054-0.019C191.362,200.467,190.343,200.449,189.317,199.108z"
			/>
		<path fill="#B8B8B8" d="M148.541,102.317c0.809,3.063,2.366,5.784,3.772,8.588c0.402,0.801,0.31,2.093-0.432,3.051
			c-0.748,0.965-0.101,1.765,0.564,2.343c0.819,0.711,1.296-0.04,1.73-0.667c0.855-1.235,1.884-0.949,2.665-0.061
			c0.919,1.044-0.283,1.348-0.885,1.78c-0.807,0.58-1.115,1.331-1.115,2.321c-0.001,3.16,0.806,6.064,3.188,8.2
			c1.693,1.518,2.67,4.092,5.546,4.056c1.584-0.02,2.459-0.656,3.125-2.188c1.274-2.933,1.581-5.75,1.133-8.988
			c-0.49-3.547-2.782-5.615-4.902-7.837c-1.168-1.224-1.229-1.818-0.483-3.273c0.971-1.894,2.009-3.624,3.565-5.087
			c1.051-0.988,1.141-2.225,0.486-3.561c-0.754-1.538-1.481-3.098-2.071-4.704c-1.095-2.981-0.52-6.1,1.452-7.668
			c2.474-1.967,5.249-1.589,7.867-0.467c2.404,1.03,4.034,3.09,5.785,5.004c2.826,3.089,5.287,6.447,7.653,9.868
			c2.073,2.997,1.584,5.093-1.282,7.317c-1.413,1.097-1.917,4.447-1.133,6.919c1.11,3.499-0.077,7.008-0.082,10.515
			c-0.001,0.46-0.665,0.667-1.182,0.723c-0.023-0.669-0.045-1.337-0.067-2.005c0.618-0.48,0.512-1.171,0.495-1.813
			c-0.121-4.735-1.046-9.4-1.232-14.142c-0.058-1.468,0.018-3.072-0.627-4.575c-2.112-4.919-5.41-9.13-8.079-13.713
			c-0.785-1.348-2.474-1.777-4.077-1.686c-1.107,0.063-1.48,1.052-1.637,1.911c-0.33,1.808-0.344,3.764,0.943,5.151
			c2.569,2.769,2.704,6.43,3.76,9.705c1.282,3.976,1.747,8.207,2.848,12.251c1.6,5.878,0.533,11.434-2.98,16.021
			c-3.042,3.971-4.535,8.081-4.671,12.896c-1.73,0.394-3.52-0.271-5.241,0.294c-1.078-0.001-1.553,0.328-0.746,1.36
			c-0.055,0.318-0.11,0.636-0.166,0.954c-1.929-1.713-2.979-4.078-3.64-6.374c-1.184-4.111-3.141-7.861-5.451-11.27
			c-3.33-4.916-5.221-10.029-5.01-15.94c0.033-0.93-0.056-1.839-1.209-2.112c0.04-0.36,0.08-0.72,0.12-1.08
			c1.948-1.356,1.261-2.991,0.49-4.635C147.481,107.197,147.883,104.736,148.541,102.317z"/>
		<path fill="#8C8C8C" d="M152.355,172.875c-3.162-10.51-8.213-20.315-11.487-30.783c-1.469-4.699-2.643-9.461-3.045-14.386
			c-0.052-0.641-0.256-1.304,0.185-1.9c1.166,1.298,1.467,3.012,2.185,4.526c0.278,0.586,0.541,1.314,1.269,1.354
			c0.81,0.044,0.913-0.79,1.215-1.344c2.087-3.821,3.504-7.842,3.672-12.238c1.252,2.572,0.596,5.244,0.364,7.878
			c-0.163,1.854-0.292,3.531,0.461,5.445c0.858,2.184,2.412,3.889,3.268,5.967c1.965,4.77,3.21,9.796,3.872,14.886
			c1.066,8.2,3.944,15.848,6.539,23.596c-0.072,2.288-0.143,4.577-0.215,6.865c-0.917-0.003-1.57-0.049-1.945-1.264
			c-0.735-2.381-1.874-4.635-2.769-6.971c-0.582-1.519-2.815-1.68-2.698-3.868C152.657,171.504,153.145,172.422,152.355,172.875z"/>
		<path fill="#A2A1A1" d="M168.183,148.501c0.137-4.815,1.63-8.924,4.671-12.896c3.513-4.587,4.58-10.143,2.98-16.021
			c-1.101-4.044-1.567-8.275-2.848-12.251c-1.056-3.275-1.191-6.936-3.76-9.705c-1.287-1.387-1.273-3.343-0.943-5.151
			c0.157-0.859,0.531-1.849,1.637-1.911c1.604-0.091,3.292,0.339,4.077,1.686c2.67,4.583,5.967,8.794,8.079,13.713
			c0.645,1.502,0.569,3.107,0.627,4.575c0.186,4.742,1.111,9.407,1.232,14.142c0.016,0.642,0.123,1.333-0.495,1.813
			c-0.824-1.716-0.383-3.82-1.793-5.404c-0.523-0.588,0.604-1.011,0.791-1.604c-0.579-3.178-0.314-6.62-2.883-9.172
			c-0.355-1.247,0.708-2.474-0.146-3.801c-1.984-3.082-3.814-6.262-5.705-9.404c-0.331-0.55-0.583-1.325-1.436-0.929
			c-0.832,0.387-0.401,1.066-0.262,1.704c0.475,2.182,2.012,3.952,2.477,6.088c1.312,6.026,3.667,11.787,4.787,17.815
			c0.541,2.91,1.339,6.333-0.938,9.204c-0.489,0.617-0.487,1.387,0.233,1.967c-1.277,1.351-3.116,2.262-3.426,4.371
			c-0.632,0.343-0.527,0.988-0.633,1.547c-0.383,0.085-0.922,0.038-1.125,0.277c-1.842,2.16-2.21,7.013-0.776,9.408
			c-0.436,0.339-0.885,0.662-1.305,1.019C168.854,151.661,168.856,151.664,168.183,148.501z"/>
		<path fill="#A2A1A1" d="M160.853,175.878c-2.595-7.749-5.473-15.397-6.539-23.596c-0.662-5.09-1.907-10.116-3.872-14.886
			c-0.856-2.078-2.41-3.784-3.268-5.967c-0.753-1.915-0.624-3.592-0.461-5.445c0.231-2.634,0.888-5.306-0.364-7.878
			c0.014-0.912-0.174-1.852,0.372-2.691c1.154,0.274,1.242,1.182,1.209,2.112c-0.211,5.91,1.679,11.024,5.01,15.94
			c2.309,3.409,4.267,7.158,5.451,11.27c0.661,2.295,1.711,4.661,3.64,6.374C161.638,159.366,161.245,167.622,160.853,175.878z"/>
		<path fill="#A2A1A1" d="M152.355,172.875c0.79-0.453,0.302-1.371,0.871-2.234c-0.117,2.188,2.116,2.349,2.698,3.868
			c0.895,2.336,2.035,4.589,2.769,6.971c0.375,1.215,1.028,1.26,1.945,1.264c-0.015,0.823-0.029,1.645-0.044,2.468
			c-5.529-0.5-8.667,2.305-10.175,7.362c-2.365-0.003-4.508,1.18-6.951,1.114c-1.445-0.039-2.879-0.072-4.284-0.349
			c-0.787-0.155-1.055,0.088-1.144,0.778c-0.167,0.008-0.335,0.017-0.502,0.026c-0.318-1.163-1.342-2.232-0.473-3.554
			c3.317,0.515,5.847-1.118,8.419-2.891c2.707-1.866,2.784-1.755,0.983-3.967c1.641-0.034,3.29,0.758,4.925-0.04
			c0.282,0.527,0.638,1.082,1.307,0.731c0.897-0.47,0.624-1.408,0.666-2.2c0.037-0.064,0.075-0.128,0.112-0.192
			c-0.035,0.066-0.071,0.132-0.106,0.198c-0.386-0.003-0.772-0.007-1.159-0.01C152.634,179.109,152.398,175.991,152.355,172.875z"/>
		<path fill="#8C8C8C" d="M172.605,148.562c-1.434-2.395-1.065-7.248,0.776-9.408c0.204-0.239,0.743-0.192,1.125-0.277
			c-0.006,0.483-0.011,0.965-0.017,1.448c-0.32,2.102,1.023,3.249,3.334,2.748c0.857-0.186,1.742-0.435,2.345-1.21
			c0.793-1.019,1.836-1.293,3.061-0.905c0.266,1.938-0.357,3.82-0.41,5.701c-0.073,2.566-1.134,3.003-3.318,2.587
			C177.23,148.813,174.81,149.774,172.605,148.562z"/>
		<path fill="#B8B8B8" d="M150.419,192.574c1.508-5.058,4.646-7.862,10.175-7.362c0.065,1.303,0.131,2.606,0.196,3.909
			c-0.523,0.331-1.003,0.574-1.17,1.351c-0.421,1.958-1.668,3.558-3.703,3.464c-1.816-0.084-3.608,0.563-5.403,0.048
			C150.482,193.513,150.451,193.043,150.419,192.574z"/>
		<path fill="#A2A1A1" d="M150.514,193.983c1.795,0.514,3.587-0.132,5.403-0.048c2.035,0.094,3.283-1.505,3.703-3.464
			c0.167-0.776,0.647-1.019,1.17-1.351c0.668,0.28,1.336,0.561,2.004,0.84c-0.017,0.571-0.046,1.142-0.05,1.714
			c-0.025,3.635-1.369,4.798-5.046,4.328c-2.064-0.264-4.038-1.149-6.217-0.67C150.682,195.509,150.459,194.714,150.514,193.983z
			 M160.403,192.281c-0.066-0.023-0.132-0.062-0.198-0.06c-0.022,0.001-0.042,0.104-0.062,0.161c0.066,0.023,0.132,0.062,0.197,0.06
			C160.363,192.441,160.382,192.338,160.403,192.281z"/>
		<path fill="#A2A1A1" d="M162.196,150.155c-0.807-1.032-0.333-1.362,0.746-1.36C162.781,149.296,162.758,149.874,162.196,150.155z"
			/>
		<path fill="#A2A1A1" d="M70.481,127.955c-0.008,0.162,0.033,0.349-0.032,0.483c-3.465,7.111-3.138,14.698-2.806,22.287
			c-1.599-0.368-1.055-1.675-1.037-2.621c0.125-6.624,0.155-13.278-1.111-19.777c-1.048-5.381-3.523-10.219-7.774-13.957
			c-2.167-1.905-3.067-4.759-5.179-6.797c-2.563-2.473-4.532-5.534-7.411-7.75c-1.009-0.777-2.08-1.667-2.052-3.179
			c0.047-2.581,2.749-4.2,5.435-2.974c2.884,1.318,5.665,2.882,7.534,5.658c1.036,1.539,2.795,2.475,4.417,2.851
			c2.713,0.629,4.629,2.015,6.269,4.128c1.128,1.453,3.092,1.441,4.535,1.344c5.673-0.384,10.612,2.278,15.918,3.27
			c3.753,0.702,5.362,2.703,6.732,5.854c1.276,2.935,3.14,5.565,6.816,6.086c2.966,0.42,5.607-0.379,7.933-2.032
			c2.612-1.856,5.137-0.824,7.728-0.233c-0.494,4.045-3.253,6.773-5.676,9.683c-0.825,0.991-1.907,0.858-2.872,0.198
			c-1.067-0.73-2.046-1.573-3.35-1.898c-0.611-0.152-1.005-1.509-1.741-0.594c-0.533,0.664,0.454,1.283,0.803,1.891
			c0.235,0.41,0.618,0.746,0.974,1.072c0.505,0.462,0.995,1.003,0.76,1.683c-0.298,0.862-1.158,0.731-1.893,0.771
			c-1.104,0.06-2.213-0.144-3.02-0.812c-0.879-0.728-1.78-0.698-2.757-0.672c-0.043-0.129-0.047-0.259-0.011-0.391
			c0.19-0.373,0.379-0.747,0.569-1.12c1.253-0.343,3.48,0.973,3.617-0.881c0.126-1.705-1.77-2.847-3.716-3.037
			c-0.16-0.016-0.32-0.029-0.48-0.044c-1.104-1.829-2.857-3.202-4.743-3.546c-1.475-0.269-1.979-1.02-1.977-1.916
			c0.003-1.948-1.228-3.41-1.643-5.186c-0.398-1.703-1.81-2.629-3.706-2.631c-0.719-0.001-1.481-0.145-2.148-0.411
			c-3.575-1.426-7.344-1.794-11.078-1.453c-2.664,0.243-4.722-0.563-6.811-1.928c-1.095-0.715-2.022-1.568-2.988-2.433
			c-4.08-3.651-7.966-7.546-12.626-10.501c-1.174-0.744-2.636-1.913-3.644-0.377c-0.916,1.397,0.675,2.41,1.661,3.336
			c1.428,1.341,2.975,2.578,4.258,4.046c5.571,6.373,11.077,12.802,16.563,19.249c0.423,0.497,1.953,0.066,1.34,1.171
			C69.177,125.454,69.954,126.639,70.481,127.955z"/>
		<path fill="#8C8C8C" d="M97.624,131.916c0.977-0.026,1.878-0.056,2.757,0.672c0.806,0.668,1.916,0.873,3.02,0.812
			c0.735-0.04,1.596,0.091,1.893-0.771c0.235-0.68-0.255-1.221-0.76-1.683c-0.356-0.326-0.739-0.662-0.974-1.072
			c-0.349-0.608-1.336-1.227-0.803-1.891c0.735-0.915,1.13,0.442,1.741,0.594c1.304,0.325,2.283,1.168,3.35,1.898
			c0.964,0.66,2.046,0.793,2.872-0.198c2.423-2.91,5.182-5.638,5.676-9.683c0,0,0.002-0.003,0.002-0.003
			c0.537-0.15,1.072-0.307,1.612-0.449c0.436-0.114,1.109,0.021,1.113-0.627c0.005-0.676-0.611-0.857-1.193-0.945
			c-0.808-2.197-3.122-2.479-4.709-3.684c-0.348-0.264-0.801-0.183-1.123,0.14c-1.987,1.994-4.015,1.089-6.048,0.102
			c-0.026-0.585-0.33-0.926-0.905-1.027c-0.005-0.311-0.01-0.622-0.014-0.934c0.462-0.611,0.852-0.528,1.588-0.221
			c3.46,1.444,4.7,0.968,6.803-2.305c0.506-0.788,0.938-1.213,1.45,0.028c0.275,0.669,0.7,1.289,1.129,1.88
			c1.752,2.413,2.404,2.499,5.057,1.091c2.621-1.392,5.541-1.817,8.407-2.408c1.669-0.344,3.348-0.71,4.959-1.253
			c1.39-0.469,2.736-1.144,3.31-2.694c0.301-0.812,0.928-1.086,1.75-1.005c-0.591,1.941-0.467,3.958-0.627,5.944
			c-1.335,1.232-0.381,3.182-1.413,4.51c-1.805,1.155-3.846,1.295-5.899,1.353c-3.023,0.086-6.022,0.167-8.988,1.014
			c-1.189,0.34-1.727,0.633-1.522,1.858c0.826,4.929-2.372,7.832-5.454,10.783c-0.29,0.278-0.674,0.664-1.008,0.657
			c-3.923-0.073-6.94,2.674-10.582,3.369C100.929,136.374,99.321,133.978,97.624,131.916z"/>
		<path fill="#D3D2D2" d="M42.492,192.541c0.457-2.548,2.165-4.463,3.364-6.634c0.466-0.843,1.087-1.62,0.958-2.672
			c0,0,0.189-0.05,0.189-0.05l0.195,0.006c2.204-0.399,3.776,1.157,5.351,2.12c2.149,1.313,4.786,2.114,6.142,4.575
			c0.752,1.364,0.671,1.954-1.094,2.254c-2.859,0.487-5.729,0.955-8.573,1.584C46.971,194.177,44.502,193.861,42.492,192.541z"/>
		<path fill="#A2A1A1" d="M68.07,155.578c0.945,4.573,0.048,9.116-0.27,13.661c-0.303,4.324-0.479,8.638-0.008,12.959
			c-3.481-0.821-4.094-1.531-4.367-5.073c-0.012-0.16,0.095-0.401,0.02-0.474c-3.582-3.472-0.878-6.83,0.277-10.126
			C65.02,162.822,66.99,159.375,68.07,155.578z"/>
		<path fill="#D3D2D2" d="M68.646,184.124c1.453,0.07,2.87-0.01,4.33-0.259c2.935-0.5,5.716,0.001,7.928,2.262
			c-4.645,3.22-9.231,6.549-15.427,5.495c-1.568-0.267-1.547-0.792-0.743-1.896C66.075,187.886,67.346,185.994,68.646,184.124z"/>
		<path fill="#A2A1A1" d="M83.781,190.135c0.008,0.492,0.015,0.983,0.023,1.475c-2.502,2.523-5.864,2.395-9.012,2.879
			c-0.919,0.141-1.932,0.383-2.785-0.333c1.255-1.35,3.071-0.696,4.5-1.264c1.375-0.547,2.865-1.007,3.972-2.139
			C81.413,189.797,82.538,189.58,83.781,190.135z"/>
		<path fill="#8C8C8C" d="M32.578,108.784c-0.951-1.69-0.549-3.691-1.374-5.495c-0.564-1.234-0.569-2.777-1.342-4.061
			c-0.445-0.74-0.531-1.597,0.701-1.814c1.941,2.678,1.793,5.86,2.153,8.92C32.671,107.151,32.625,107.967,32.578,108.784z"/>
		<path fill="#A2A1A1" d="M117.929,118.572c0.583,0.089,1.198,0.269,1.193,0.945c-0.004,0.648-0.678,0.513-1.113,0.627
			c-0.539,0.141-1.075,0.298-1.612,0.449C116.263,119.432,117.421,119.248,117.929,118.572z"/>
		<path fill="#A2A1A1" d="M69.609,194.188c-0.194,0.894-0.866,0.898-1.57,0.841C68.172,194.019,68.851,194.03,69.609,194.188z"/>
		<path fill="#A2A1A1" d="M64.108,195.099c-0.246,0.373-0.61,0.443-1.019,0.398C63.239,194.88,63.407,194.304,64.108,195.099z"/>
		<path fill="#A2A1A1" d="M49.807,195.594c-0.251,0.373-0.618,0.438-1.029,0.382C48.943,195.37,49.12,194.795,49.807,195.594z"/>
		<path fill="#A2A1A1" d="M105.144,114.103c0.575,0.102,0.879,0.443,0.905,1.027C105.375,115.116,105.043,114.8,105.144,114.103z"/>
		<path fill="#22211F" d="M146.721,115.414c-0.546,0.839-0.358,1.778-0.372,2.691c-0.168,4.396-1.585,8.417-3.672,12.238
			c-0.302,0.553-0.405,1.388-1.215,1.344c-0.728-0.039-0.991-0.768-1.269-1.354c-0.718-1.514-1.019-3.228-2.185-4.526
			c-0.368-1.515-0.356-3.039-0.116-4.568c1.056-1.008,1.967-1.838,3.79-1.474c2.014,0.403,1.939-1.93,2.151-2.994
			c1.435-7.18,2.689-14.402,4.642-21.461c0.734-2.651,1.993-5.164,3.111-7.697c0.567-1.285,1.28-2.444-1.768-2.19
			c2.854-1.92,4.892-3.682,6.151-6.157c0.48-0.054,0.959-0.109,1.439-0.163c0.076,0.541,0.152,1.082,0.228,1.623
			c-0.725,1.149-1.45,2.298-2.174,3.447c0,0-0.121,0.126-0.121,0.126c-0.521,0.409-1.041,0.818-1.562,1.227
			c-1.643,0.197-0.869,1.703-1.258,2.535c-2.11,4.514-3.258,9.335-3.98,14.257c-0.657,2.419-1.06,4.88-1.21,7.382
			c-0.522,1.507-0.843,3.035-0.49,4.635C146.801,114.694,146.761,115.054,146.721,115.414z"/>
		<path fill="#8C8C8C" d="M182.439,119.488c-0.187,0.593-1.315,1.016-0.791,1.604c1.41,1.584,0.969,3.688,1.793,5.404
			c0.022,0.668,0.044,1.337,0.067,2.005c-1.049,2.149-3.179,3.1-4.942,4.458c-0.72-0.58-0.722-1.35-0.232-1.967
			c2.277-2.871,1.478-6.294,0.938-9.204c-1.12-6.028-3.474-11.789-4.787-17.815c-0.465-2.136-2.002-3.906-2.477-6.088
			c-0.139-0.637-0.57-1.317,0.262-1.704c0.853-0.396,1.105,0.379,1.436,0.929c1.891,3.142,3.722,6.322,5.705,9.404
			c0.854,1.328-0.209,2.554,0.146,3.801C179.539,113.681,180.381,116.776,182.439,119.488z"/>
		<path fill="#B8B8B8" d="M153.778,85.525c0.521-0.409,1.042-0.818,1.562-1.227C156.048,86.271,154.426,85.277,153.778,85.525z"/>
		<path fill="#A2A1A1" d="M28.103,193.56c0.033-0.619,0.269-1.287,0.875-1.329c2.385-0.165,2.969-2.552,4.592-3.675
			c1.07-0.741,0.663-2.556,0.382-3.731c-1.029-4.306,0.59-8.207,1.749-12.11c0.777-2.615,1.416-5.286,2.569-7.847
			c1.397-3.103-0.301-6.298-1.358-9.273c-0.861-2.422-2.35-4.6-1.942-7.38c0.192-1.306-0.696-2.086-1.908-2.463
			c0-0.812,0-1.624,0-2.488c3.619-0.012,4.874,2.794,6.13,5.196c1.836,3.511,3.749,7.068,3.845,11.223
			c0.057,2.439-0.001,4.798-1.025,7.114c-2.038,4.608-3.625,9.386-3.874,14.461c-0.061,1.233,0.563,2.537,1.025,3.751
			c1.893,4.979,0.734,6.937-4.456,7.053C32.365,192.113,30.484,193.888,28.103,193.56z"/>
		<path fill="#A2A1A1" d="M23.668,193.657c0.11-0.08,0.221-0.16,0.331-0.24c0.058,0.211,0.116,0.423,0.174,0.634
			C24.005,193.92,23.837,193.788,23.668,193.657z"/>
		<path fill="#D3D2D2" d="M137.537,194.143c0.168-0.009,0.335-0.017,0.502-0.026c0.205,0.46,0.735,0.789,0.566,1.401
			c-0.37-0.028-0.739-0.057-1.11-0.086C137.509,195.001,137.523,194.572,137.537,194.143z"/>
		<path fill="#D3D2D2" d="M138.574,196.038c0.007-0.174,0.014-0.349,0.021-0.523C139.166,195.712,138.915,195.877,138.574,196.038z"
			/>
		<path fill="#A2A1A1" d="M137.541,116.734c1.032-1.328,0.078-3.278,1.413-4.51c0.166-0.032,0.333-0.064,0.499-0.096
			c-0.319,1.697-0.111,3.535-1.336,4.99C137.925,116.99,137.733,116.862,137.541,116.734z"/>
		<path fill="#B8B8B8" d="M106.949,107.764c0.685,1.472,1.369,2.944,2.054,4.415C106.446,111.729,105.959,110.683,106.949,107.764z"
			/>
		<path fill="#B8B8B8" d="M109.958,112.185c0.041-0.632,0.368-0.962,1.012-0.959C110.946,111.876,110.619,112.207,109.958,112.185z"
			/>
		<path fill="#8C8C8C" d="M157.636,80.725c-0.076-0.541-0.152-1.082-0.228-1.623C158.577,79.49,158.579,80.041,157.636,80.725z"/>
		<path fill="#B8B8B8" d="M31.291,154.282c-0.036-0.051-0.072-0.102-0.108-0.153c0.08-0.042,0.161-0.084,0.241-0.125
			c0.009,0.064,0.042,0.139,0.02,0.19C31.426,154.236,31.345,154.253,31.291,154.282z"/>
		<path fill="#8C8C8C" d="M98.182,130.406c-0.19,0.373-0.379,0.746-0.569,1.12c-1.06-0.045-1.64-0.852-2.008-1.61
			c-2.076-4.28-6.428-6.514-9.112-10.257c-0.879-1.226-2.291-2.092-3.847-2.5c-3.156-0.828-6.317-1.638-9.474-2.463
			c-1.103-0.288-1.91-0.314-1.758,1.263c0.388,4.046,0.035,8.048-0.934,11.995c-0.527-1.316-1.304-2.501-0.422-4.09
			c0.613-1.105-0.917-0.675-1.34-1.171c-5.486-6.446-10.992-12.876-16.563-19.249c-1.283-1.468-2.831-2.704-4.258-4.046
			c-0.986-0.926-2.577-1.939-1.661-3.336c1.007-1.536,2.47-0.368,3.644,0.377c4.66,2.955,8.547,6.85,12.626,10.501
			c0.966,0.864,1.893,1.718,2.988,2.433c2.089,1.364,4.147,2.171,6.811,1.928c3.734-0.341,7.503,0.026,11.078,1.453
			c0.667,0.266,1.43,0.411,2.148,0.411c1.896,0.002,3.308,0.928,3.706,2.631c0.415,1.776,1.647,3.238,1.643,5.186
			c-0.002,0.895,0.502,1.646,1.977,1.916c1.885,0.344,3.638,1.717,4.743,3.546c-0.743,0.153-1.826-0.367-2.151,0.558
			c-0.272,0.775,0.463,1.49,1.049,2.046C97.023,129.542,97.619,129.956,98.182,130.406z"/>
		<path fill="#B8B8B8" d="M146.466,183.731c1.8,2.213,1.724,2.102-0.983,3.967c-2.572,1.773-5.101,3.405-8.419,2.891
			C137.661,186.069,142.362,182.64,146.466,183.731z"/>
		<path fill="#B8B8B8" d="M152.212,182.218c0.386,0.003,0.772,0.007,1.159,0.01l-0.006-0.006c-0.042,0.792,0.23,1.729-0.666,2.2
			c-0.67,0.351-1.026-0.204-1.307-0.731C151.44,183.074,151.693,182.572,152.212,182.218z"/>
		<path fill="#A2A1A1" d="M146.841,114.334c-0.353-1.6-0.033-3.128,0.49-4.635C148.102,111.343,148.789,112.978,146.841,114.334z"/>
		<path fill="#F7F7F7" d="M182.439,119.488c-2.057-2.713-2.9-5.808-2.883-9.173C182.124,112.868,181.86,116.311,182.439,119.488z"/>
		<path fill="#B8B8B8" d="M153.371,182.228c0.035-0.066,0.071-0.132,0.106-0.198c-0.037,0.064-0.075,0.128-0.112,0.192
			C153.365,182.222,153.371,182.228,153.371,182.228z"/>
		<path fill="#B8B8B8" d="M160.403,192.281c-0.021,0.057-0.04,0.16-0.062,0.161c-0.065,0.002-0.132-0.037-0.197-0.06
			c0.021-0.057,0.04-0.16,0.062-0.161C160.27,192.219,160.337,192.258,160.403,192.281z"/>
		<path fill="#B8B8B8" d="M98.182,130.406c-0.563-0.449-1.159-0.864-1.68-1.358c-0.586-0.555-1.322-1.27-1.049-2.046
			c0.325-0.925,1.408-0.406,2.151-0.558c0.16,0.014,0.32,0.027,0.48,0.043c1.945,0.19,3.842,1.332,3.716,3.037
			C101.662,131.379,99.434,130.063,98.182,130.406z"/>
	</g>
</g>
</svg>
