<?xml version="1.0" encoding="utf-8"?>
<!-- Generator: Adobe Illustrator 17.0.0, SVG Export Plug-In . SVG Version: 6.00 Build 0)  -->
<!DOCTYPE svg PUBLIC "-//W3C//DTD SVG 1.1//EN" "http://www.w3.org/Graphics/SVG/1.1/DTD/svg11.dtd">
<svg version="1.1" id="Capa_1" xmlns="http://www.w3.org/2000/svg" xmlns:xlink="http://www.w3.org/1999/xlink" x="0px" y="0px"
	 width="232.951px" height="232.951px" viewBox="0 0 232.951 232.951" enable-background="new 0 0 232.951 232.951"
	 xml:space="preserve">
<path fill="#ECECEC" d="M232.951,223.828c0,5.038-4.084,9.123-9.123,9.123H9.123c-5.038,0-9.123-4.084-9.123-9.123V9.123
	C0,4.084,4.084,0,9.123,0h214.705c5.038,0,9.123,4.084,9.123,9.123V223.828z"/>
<g>
	<polygon fill="#FCFCFD" points="117.702,179.823 129.057,159.158 136.539,173.376 127.121,185.644 	"/>
	<polygon fill="#FCFCFD" points="95.44,116.901 96.145,156.15 129.689,156.15 123.948,130.765 170.285,130.161 168.371,119.583 
		167.566,117.77 	"/>
	<path fill="#FCFCFC" d="M64.516,141.395c-1.116-0.001-2.258,0.061-2.876-1.168C62.903,139.864,63.713,140.621,64.516,141.395z"/>
	<path fill="#309CD2" d="M127.946,162.685c1.062,7.419-4.137,12.194-7.729,17.992c2.822,1.287,4.511-1.384,7.341-1.513
		c1.506,0.619-0.93,3.666,1.571,4.227l-0.063-0.104c0.228,2.866,5.173,1.127,4.631,4.744l0.046-0.113
		c-1.038-0.182-1.488,0.19-1.193,1.265l0.037-0.078c-8.508,2.467-16.636,5.998-25.517,7.473
		c-44.178,7.34-87.731-27.411-91.763-72.045c-3.769-41.729,26.178-80.654,68.509-87.392c42.223-6.72,85.62,24.963,91.144,67.578
		c0.736,5.676,1.147,11.334,0.821,17.103c-0.246,4.344-2.689,4.29-5.706,4.123c-2.653-0.147-6.211,1.055-5.331-3.954
		c0.499-2.836-1.438-2.963-3.531-2.942c-5.153,0.051-10.307,0.027-15.461,0.01c-3.543-0.012-7.6-0.89-7.239,4.924
		c0.084,1.347-0.869,2.009-2.26,1.885c-1.628-0.144-1.73-1.409-1.556-2.5c0.712-4.458-2.077-4.368-5.185-4.337
		c-8.97,0.09-17.945,0.162-26.912-0.033c-3.517-0.076-5.107,0.67-4.98,4.655c0.286,8.962,0.264,17.945,0.007,26.909
		c-0.107,3.736,1.374,4.374,4.68,4.387c7.808,0.031,15.639-0.661,23.431,0.422c0.001-0.001-0.073-0.135-0.073-0.135
		c0.257,2.67-0.372,4.144-3.641,4.024c-6.844-0.251-13.706,0.043-20.554-0.129c-2.951-0.074-4.084,0.862-3.971,3.882
		c0.185,4.942-0.134,9.906,0.118,14.842c0.146,2.866-1.67,7.462,1.35,8.223c3.676,0.927,8.331,0.529,11.884-2.3
		c0.742-0.591,1.399-1.287,2.101-1.928c4.992-4.564,8.525-10.16,11.551-16.14c0.705-1.394,0.775-3.827,3.496-2.89L127.946,162.685z
		 M74.966,114.745c4.951,0,9.905-0.111,14.851,0.044c2.737,0.086,3.641-0.926,3.607-3.638c-0.12-9.519-0.115-19.042-0.002-28.561
		c0.031-2.654-0.768-3.735-3.554-3.691c-8.186,0.13-16.377,0.131-24.562-0.007c-2.534-0.043-3.639,0.841-4.338,3.28
		c-2.685,9.373-4.175,18.899-4.57,28.635c-0.116,2.845,0.592,4.135,3.718,3.997C65.058,114.585,70.015,114.745,74.966,114.745z
		 M75.232,119.066c-4.951,0-9.904,0.095-14.851-0.037c-2.723-0.073-4.139,0.48-4,3.712c0.428,9.927,1.886,19.644,4.691,29.187
		c0.66,2.247,1.705,3.005,3.969,2.978c8.377-0.098,16.757-0.098,25.134-0.007c2.523,0.027,3.261-1.019,3.239-3.412
		c-0.088-9.71-0.092-19.423,0.001-29.133c0.024-2.475-0.9-3.371-3.331-3.319C85.135,119.143,80.183,119.068,75.232,119.066z
		 M115.942,114.748c4.768,0,9.548-0.206,14.301,0.068c3.546,0.204,4.776-0.985,4.439-4.528c-0.905-9.494-2.164-18.912-4.714-28.128
		c-0.641-2.318-1.788-3.351-4.422-3.287c-8.006,0.193-16.022,0.184-24.029,0.014c-3.07-0.065-3.895,1.115-3.854,4.001
		c0.132,9.344,0.147,18.692-0.006,28.035c-0.05,3.04,1.052,3.986,3.982,3.872C106.401,114.611,111.174,114.746,115.942,114.748z
		 M38.697,114.748c3.051,0,6.115-0.168,9.151,0.047c3.128,0.222,4.305-0.739,4.393-4.094c0.145-5.505,0.938-10.994,1.499-16.486
		c0.514-5.029,4.989-11.898,2.227-14.286c-3.108-2.687-10.132-0.734-15.439-1.037c-2.695-0.154-4.167,0.983-5.401,3.215
		c-3.524,6.37-6.281,13.038-7.808,20.146c-2.68,12.481-2.605,12.497,10.234,12.497C37.934,114.749,38.316,114.749,38.697,114.748z
		 M151.468,114.748c2.857,0,5.743-0.259,8.563,0.06c4.305,0.488,5.151-1.415,4.674-5.242c-0.757-6.073-2.187-11.929-4.367-17.636
		c-4.962-12.983-4.94-12.991-18.499-12.99c-1.523,0-3.06,0.127-4.568-0.024c-3.379-0.339-3.549,0.918-2.812,3.94
		c1.575,6.45,2.945,13.001,3.695,19.591C139.552,114.725,139.343,114.749,151.468,114.748z M39.281,119.384
		c0-0.107-0.001-0.214-0.001-0.321c-3.051,0-6.128,0.248-9.148-0.062c-3.844-0.396-4.57,1.38-4.101,4.655
		c0.921,6.422,2.193,12.754,4.613,18.794c4.979,12.431,5.004,12.421,18.452,12.421c1.526,0,3.061-0.109,4.575,0.021
		c2.906,0.25,3.753-0.85,2.851-3.639c-2.118-6.548-2.902-13.37-3.994-20.13c-0.63-3.896,1.476-9.313-1.534-11.347
		C48.254,117.924,43.274,119.384,39.281,119.384z M127.245,74.621c-3.268-8.351-7.15-14.96-12.405-20.889
		c-3.695-4.17-8.034-5.989-13.457-6.341c-2.739-0.178-3.893,0.325-3.859,3.183c0.084,6.871,0.074,13.744-0.002,20.615
		c-0.025,2.309,0.607,3.502,3.208,3.47C109.3,74.557,117.871,74.621,127.245,74.621z M63.608,159.191
		c3.766,9.638,8.457,17.468,15.473,23.909c3.658,3.358,8.158,2.655,12.372,3.311c1.795,0.28,1.91-1.446,1.912-2.818
		c0.011-7.038-0.061-14.078,0.05-21.115c0.039-2.472-0.896-3.343-3.325-3.319C81.542,159.242,72.993,159.191,63.608,159.191z
		 M63.587,74.619c9.386,0,18.082-0.033,26.778,0.024c2.164,0.014,3.059-0.798,3.035-3.013c-0.076-7.038-0.013-14.077-0.033-21.115
		c-0.004-1.523,0.038-3.504-2.189-3.111c-3.845,0.678-8.028-0.125-11.412,2.775C72.225,56.643,67.425,64.831,63.587,74.619z
		 M40.315,159.195c8.618,10.975,18.405,17.938,30.337,22.26c-4.481-6.628-8.231-13.538-11.19-20.86
		c-0.537-1.33-1.655-1.395-2.811-1.397C51.596,159.191,46.54,159.195,40.315,159.195z M40.32,74.624
		c6.055,0,10.805-0.002,15.555,0.001c1.527,0.001,3.074,0.132,3.776-1.738c2.647-7.047,6.531-13.452,10.409-20.034
		C58.186,56.787,48.773,63.905,40.32,74.624z M149.971,73.881c-8.101-10.019-17.473-17.315-30.496-22.07
		c2.795,4.371,5.654,7.157,6.496,10.458c3.226,12.646,12.036,13.998,22.745,12.23C148.877,74.472,149.022,74.353,149.971,73.881z"/>
	<path fill="#309CD2" d="M125.664,155.236c0,0,0.075,0.134,0.073,0.135c-0.189-7.337-3.506-13.958-4.824-21.045
		c-1-5.377,0.055-7.059,5.461-7.085c15.655-0.077,31.31,0.001,46.965-0.056c2.517-0.009,4.287-0.003,4.287,3.48
		c0,3.492-1.787,3.481-4.295,3.471c-14.881-0.056-29.763-0.028-45.465-0.028c3.132,11.493,6.202,22.549,9.123,33.643
		c0.651,2.473,2.415,2.021,4.026,2.024c14.891,0.031,29.786-0.155,44.672,0.139c3.793,0.075,4.392-1.999,5.089-4.594
		c3.551-13.219,7.041-26.455,10.667-39.654c0.495-1.802,0.278-4.655,3.394-4.372c4.087,0.371,8.415-1.348,12.225,1.162
		c0.889,0.586,1.114,1.956,0.7,3.161c-0.589,1.716-1.979,2.495-3.572,2.193c-5.987-1.135-7.178,2.603-8.336,7.263
		c-2.889,11.626-6.242,23.135-9.29,34.723c-1.242,4.721-3.844,6.881-8.955,6.808c-15.461-0.219-30.927-0.078-46.392-0.08
		c-8.768-0.001-8.758-0.11-11.374-8.665c-0.526-1.72-0.054-3.915-1.899-5.175c0.001,0,0.052,0.135,0.052,0.135
		C128.037,160.041,127.574,157.416,125.664,155.236z"/>
	<path fill="#309CD2" d="M129.129,183.391c-0.399-3.493,0.823-5.289,4.675-5.272c20.018,0.089,40.037,0.041,60.055,0.042
		c2.186,0,4.506,0.082,4.486,3.033c-0.018,2.655-2.186,2.714-4.153,2.712c-20.78-0.023-41.559-0.049-62.339-0.108
		c-0.93-0.003-1.858-0.332-2.788-0.51C129.066,183.286,129.129,183.391,129.129,183.391z"/>
	<path fill="#309CD2" d="M133.697,188.031c1.727-1.08,3.149-2.704,5.564-2.375c3.32,0.452,5.231,2.175,5.37,5.529
		c0.125,3.014-1.236,5.266-4.303,5.844c-3.074,0.579-5.728-0.251-6.806-3.605c-0.449-1.396-0.631-2.877-0.935-4.319
		c0,0-0.037,0.079-0.037,0.079c1.18,0.316,0.977-0.672,1.193-1.265L133.697,188.031z"/>
	<path fill="#309CD2" d="M188.737,185.644c3.674,0.234,5.702,2.054,5.709,5.723c0.007,3.967-2.151,5.901-6.048,5.766
		c-3.713-0.129-5.439-2.33-5.366-5.894C183.107,187.562,185.261,185.847,188.737,185.644z"/>
	<path fill="#FCFCFD" d="M74.966,114.745c-4.951,0-9.909-0.16-14.85,0.058c-3.126,0.138-3.834-1.152-3.718-3.997
		c0.396-9.735,1.885-19.262,4.57-28.635c0.699-2.438,1.804-3.322,4.338-3.28c8.186,0.138,16.376,0.136,24.562,0.007
		c2.786-0.044,3.586,1.037,3.554,3.691c-0.113,9.52-0.118,19.042,0.002,28.561c0.034,2.712-0.87,3.724-3.607,3.638
		C84.871,114.634,79.917,114.745,74.966,114.745z"/>
	<path fill="#FCFCFD" d="M75.232,119.067c4.951,0.001,9.903,0.076,14.852-0.031c2.431-0.052,3.355,0.843,3.331,3.319
		c-0.093,9.71-0.089,19.423-0.001,29.133c0.022,2.393-0.717,3.439-3.239,3.412c-8.377-0.091-16.757-0.091-25.134,0.007
		c-2.264,0.026-3.309-0.732-3.969-2.978c-2.805-9.543-4.263-19.26-4.691-29.187c-0.139-3.232,1.277-3.785,4-3.712
		C65.328,119.161,70.281,119.066,75.232,119.067z"/>
	<path fill="#FCFCFD" d="M115.942,114.747c-4.768-0.001-9.541-0.136-14.303,0.048c-2.93,0.113-4.032-0.832-3.982-3.872
		c0.153-9.343,0.138-18.691,0.006-28.035c-0.041-2.886,0.784-4.066,3.854-4.001c8.007,0.17,16.023,0.179,24.029-0.014
		c2.634-0.063,3.781,0.969,4.422,3.287c2.55,9.215,3.809,18.634,4.714,28.128c0.338,3.543-0.893,4.732-4.439,4.528
		C125.49,114.543,120.71,114.748,115.942,114.747z"/>
	<path fill="#FCFCFD" d="M38.697,114.748c-0.381,0-0.763,0-1.144,0c-12.84,0-12.914-0.016-10.234-12.497
		c1.526-7.108,4.284-13.776,7.808-20.146c1.235-2.232,2.706-3.369,5.401-3.215c5.307,0.303,12.331-1.651,15.439,1.037
		c2.762,2.388-1.713,9.257-2.227,14.286c-0.561,5.492-1.355,10.981-1.499,16.486c-0.088,3.355-1.265,4.316-4.393,4.094
		C44.812,114.58,41.749,114.748,38.697,114.748z"/>
	<path fill="#FCFCFD" d="M151.468,114.749c-12.125,0-11.916-0.024-13.314-12.302c-0.75-6.59-2.121-13.141-3.695-19.591
		c-0.738-3.022-0.568-4.279,2.812-3.94c1.508,0.151,3.044,0.024,4.568,0.024c13.558-0.001,13.537,0.008,18.499,12.99
		c2.181,5.706,3.611,11.563,4.367,17.636c0.477,3.827-0.368,5.73-4.674,5.242C157.211,114.489,154.325,114.748,151.468,114.749z"/>
	<path fill="#FCFCFD" d="M39.281,119.384c3.993,0,8.972-1.46,11.713,0.392c3.01,2.034,0.905,7.451,1.534,11.347
		c1.093,6.76,1.876,13.582,3.994,20.13c0.902,2.788,0.054,3.889-2.851,3.639c-1.514-0.131-3.049-0.021-4.575-0.021
		c-13.448,0.001-13.473,0.011-18.452-12.421c-2.419-6.04-3.692-12.372-4.613-18.794c-0.47-3.275,0.257-5.05,4.101-4.655
		c3.019,0.311,6.096,0.062,9.148,0.062C39.281,119.171,39.281,119.277,39.281,119.384z"/>
	<path fill="#FCFCFD" d="M125.664,155.236c1.909,2.18,2.373,4.804,2.333,7.584c-2.721-0.937-2.79,1.497-3.496,2.89
		c-3.027,5.98-6.559,11.576-11.551,16.14c-0.702,0.642-1.359,1.338-2.101,1.928c-3.553,2.829-8.208,3.227-11.884,2.3
		c-3.02-0.761-1.204-5.357-1.35-8.223c-0.252-4.936,0.068-9.9-0.118-14.842c-0.113-3.02,1.02-3.955,3.971-3.882
		c6.849,0.172,13.711-0.123,20.554,0.129C125.292,159.38,125.921,157.906,125.664,155.236z"/>
	<path fill="#FCFCFD" d="M127.245,74.621c-9.374,0-17.945-0.064-26.514,0.039c-2.6,0.031-3.233-1.161-3.208-3.47
		c0.076-6.871,0.086-13.744,0.002-20.615c-0.035-2.859,1.12-3.361,3.859-3.183c5.423,0.352,9.762,2.171,13.457,6.341
		C120.095,59.661,123.977,66.27,127.245,74.621z"/>
	<path fill="#FCFCFD" d="M63.608,159.191c9.385,0,17.934,0.051,26.482-0.033c2.429-0.024,3.364,0.848,3.325,3.319
		c-0.111,7.037-0.039,14.076-0.05,21.115c-0.002,1.372-0.117,3.098-1.912,2.818c-4.214-0.657-8.714,0.047-12.372-3.311
		C72.064,176.659,67.374,168.829,63.608,159.191z"/>
	<path fill="#FCFCFD" d="M63.587,74.619c3.838-9.788,8.638-17.976,16.18-24.441c3.383-2.9,7.567-2.098,11.412-2.775
		c2.226-0.392,2.184,1.588,2.189,3.111c0.02,7.038-0.043,14.078,0.033,21.115c0.024,2.215-0.871,3.027-3.035,3.013
		C81.669,74.586,72.973,74.619,63.587,74.619z"/>
	<path fill="#FCFCFD" d="M40.315,159.195c6.226,0,11.281-0.005,16.336,0.003c1.156,0.002,2.274,0.067,2.811,1.397
		c2.959,7.322,6.709,14.232,11.19,20.86C58.719,177.133,48.933,170.17,40.315,159.195z"/>
	<path fill="#FCFCFD" d="M40.32,74.624c8.453-10.719,17.866-17.838,29.74-21.771c-3.878,6.582-7.762,12.987-10.409,20.034
		c-0.702,1.87-2.249,1.739-3.776,1.738C51.125,74.623,46.375,74.624,40.32,74.624z"/>
	<path fill="#FCFCFD" d="M149.971,73.881c-0.948,0.472-1.094,0.591-1.255,0.618c-10.709,1.768-19.519,0.416-22.745-12.23
		c-0.842-3.301-3.701-6.087-6.496-10.458C132.497,56.566,141.87,63.862,149.971,73.881z"/>
</g>
</svg>
