<?xml version="1.0" encoding="utf-8"?>
<!-- Generator: Adobe Illustrator 17.0.0, SVG Export Plug-In . SVG Version: 6.00 Build 0)  -->
<!DOCTYPE svg PUBLIC "-//W3C//DTD SVG 1.1//EN" "http://www.w3.org/Graphics/SVG/1.1/DTD/svg11.dtd">
<svg version="1.1" id="Capa_1" xmlns="http://www.w3.org/2000/svg" xmlns:xlink="http://www.w3.org/1999/xlink" x="0px" y="0px"
	 width="232.951px" height="232.951px" viewBox="0 0 232.951 232.951" enable-background="new 0 0 232.951 232.951"
	 xml:space="preserve">
<path fill="#ECECEC" d="M233.084,223.828c0,5.038-4.084,9.123-9.123,9.123H9.256c-5.038,0-9.123-4.084-9.123-9.123V9.123
	C0.134,4.084,4.218,0,9.256,0h214.705c5.038,0,9.123,4.084,9.123,9.123V223.828z"/>
<g>
	<path fill="#8C8C8C" d="M204.053,117.458c-0.001,20.798,0.045,41.597-0.017,62.395c-0.039,12.997-6.579,22.125-17.733,25.118
		c-2.376,0.638-4.789,0.701-7.214,0.702c-41.469,0.004-82.939,0.038-124.408-0.017c-14.275-0.019-23.712-9.012-24.722-23.276
		c-0.063-0.89-0.089-1.784-0.089-2.676c-0.002-41.214,0.041-82.428-0.035-123.642c-0.014-7.737,1.734-14.633,7.569-20.078
		c4.368-4.075,9.478-6.326,15.512-6.326c42.745,0.002,85.491-0.029,128.236,0.022c11.533,0.014,21.662,9.235,22.57,20.804
		c0.518,6.598,0.306,13.259,0.321,19.891C204.079,86.069,204.054,101.764,204.053,117.458z M53.389,136.211
		c4.968,8.538,13.008,10.963,22.087,10.416c4.168-0.251,7.093,0.604,10.118,3.611c17.927,17.82,48.562,16.892,65.09-1.752
		c2.287-2.011,4.918-2.11,7.829-1.808c14.664,1.522,25.579-8.143,25.855-22.828c0.093-4.97-0.025-9.943-0.055-14.915
		c-0.017-2.729-0.743-5.307-1.94-7.719c-4.421-8.913-11.732-13.07-21.594-12.926c-3.157,0.046-6.156,0.397-8.748-2.469
		c-17.236-19.051-45.958-19.318-63.117-5.509c-6.455,5.195-12.625,8.797-21.321,9.342c-8.562,0.537-16.444,6.771-17.672,18.005
		c-0.707,6.464-0.806,12.968,0.133,19.441C50.528,130.37,51.109,133.602,53.389,136.211z"/>
	<path fill="#F6F6F7" d="M150.683,148.487c-16.527,18.643-47.162,19.571-65.089,1.752c-3.025-3.007-5.95-3.862-10.118-3.611
		c-9.079,0.547-17.119-1.879-22.087-10.417c-1.436-7.456-2.361-14.824-1.983-22.577c0.595-12.194,9.647-22.631,23.53-21.293
		c4.38,0.422,7.778-1.239,10.215-4.683c3.942-5.57,9.718-8.789,15.719-10.925c15.264-5.433,30.004-4.34,43.001,6.299
		c2.897,2.372,7.08,3.93,7.484,8.592c-1.75,0.003-3.499,0.007-5.249,0.01c-2.329-0.768-4.658-0.754-6.988-0.008
		c-11.517,0.515-18.945,8.016-19.287,19.626c-0.123,4.184-0.042,8.378,0.073,12.563c0.179,6.476-2.331,11.799-6.663,16.439
		c-0.63,0.675-1.868,0.948-1.732,2.233c-0.43,3.634,1.441,4.49,4.741,4.445c10.253-0.141,20.509-0.07,30.764-0.003
		C148.359,146.938,150.236,146.167,150.683,148.487z M84.056,104.759c0.141-0.491-0.082-0.737-0.551-0.817
		c-0.034-1.964-0.832-3.126-2.985-2.677c-2.141,0.446-5.444-1.582-5.838,2.679c-1.444,0.926-2.894,0.902-4.351,0.031
		c-1.255-3.124-5.99-3.924-9.22-1.558c-0.187,0.41-0.132,0.735,0.322,0.92c0.062,0.708,0.124,1.417,0.186,2.125
		c-2.073,0.558-1.031,1.951-0.773,3.062c1.64,7.05,3.315,14.092,4.982,21.135c0.682,2.882,1.803,5.418,5.277,5.611
		c3.066,0.171,5.468-0.911,6.65-3.986c0.27-0.702,0.591-1.547,1.454-1.593c0.941-0.05,1.223,0.873,1.411,1.561
		c0.927,3.385,3.496,4.188,6.489,3.99c3.31-0.219,4.678-2.487,5.388-5.502c1.426-6.053,3.151-12.038,4.496-18.108
		c0.561-2.533,1.69-3.108,3.921-2.237c-0.111,1.485-0.223,2.971-0.334,4.456c-0.354,0.317-1.013,0.631-1.016,0.953
		c-0.066,5.588-0.284,11.191,0.041,16.761c0.165,2.834,2.563,3.866,5.299,3.806c2.794-0.061,4.872-1.362,5.001-4.189
		c0.243-5.331,0.085-10.68,0.055-16.022c-0.004-0.676-0.451-1.16-1.168-1.299c-0.098-1.489-0.196-2.978-0.294-4.466
		c1.655-1.034,2.483-2.218,0.698-3.872c0.27-4.614-1.851-6.656-5.748-5.63c-1.601,0.421-2.71,1.445-3.797,2.561
		c-0.66,0.045-1.321,0.09-1.981,0.134c-2.709-2.203-7.981-1.865-9.271,0.595c-0.456,0.211-0.607,0.539-0.386,1.009
		c0.02,0.211-0.03,0.405-0.15,0.58c-1.268-0.003-2.535-0.006-3.803-0.009L84.056,104.759z"/>
	<path fill="#ACACAC" d="M151.355,91.624c-0.404-4.662-4.587-6.22-7.484-8.592c-12.996-10.639-27.736-11.732-43.001-6.299
		c-6.001,2.136-11.776,5.355-15.719,10.925c-2.438,3.444-5.836,5.105-10.215,4.683c-13.883-1.338-22.935,9.099-23.53,21.293
		c-0.378,7.753,0.546,15.121,1.983,22.577c-2.28-2.608-2.861-5.841-3.335-9.109c-0.94-6.473-0.84-12.978-0.133-19.441
		c1.228-11.234,9.11-17.468,17.672-18.005c8.696-0.545,14.866-4.147,21.321-9.342c17.159-13.809,45.881-13.543,63.117,5.509
		c2.593,2.866,5.592,2.515,8.748,2.469c9.862-0.144,17.173,4.013,21.594,12.926c1.196,2.412,1.923,4.99,1.94,7.719
		c0.03,4.972,0.148,9.945,0.055,14.915c-0.275,14.685-11.191,24.351-25.855,22.828c-2.911-0.302-5.542-0.203-7.829,1.808
		c-0.448-2.319-2.324-1.548-3.67-1.557c-10.254-0.067-20.511-0.138-30.764,0.003c-3.3,0.045-5.171-0.811-4.741-4.445
		c2.267,0.317,4.532,0.893,6.8,0.908c14.032,0.088,28.074,0.353,42.095-0.041c11.29-0.317,18.037-5.815,19.692-15.615
		c1.147-6.794,1.094-13.791,0.024-20.582c-1.477-9.374-8.934-15.28-18.453-15.427C158.23,91.678,154.792,91.658,151.355,91.624z"/>
	<path fill="#0A0A0C" d="M151.355,91.624c3.438,0.035,6.875,0.055,10.313,0.108c9.519,0.147,16.975,6.053,18.453,15.427
		c1.07,6.791,1.123,13.788-0.024,20.582c-1.655,9.8-8.401,15.297-19.692,15.615c-14.022,0.394-28.063,0.13-42.095,0.041
		c-2.269-0.014-4.534-0.591-6.8-0.908c-0.136-1.286,1.102-1.559,1.732-2.234c4.331-4.64,6.842-9.964,6.663-16.439
		c-0.116-4.186-0.197-8.38-0.073-12.563c0.342-11.61,7.77-19.112,19.287-19.626c2.329,0.319,4.658,0.304,6.988,0.008
		C147.856,91.63,149.605,91.627,151.355,91.624z M166.134,130.961c0.445-0.056,0.891-0.112,1.336-0.168
		c0.552,0.077,1.108-0.056,1.115-0.663c0.074-6.217,0.427-12.434-0.307-18.647c-0.32-2.714-2.277-1.814-3.732-1.926
		c-1.515-0.117-2.947-0.221-3.135,2.143c-0.476,5.971-0.194,11.938-0.268,17.906c-0.008,0.659,0.123,1.278,1.026,1.187
		c0.445,0.056,0.89,0.112,1.335,0.168C164.381,131.501,165.258,131.501,166.134,130.961z M138.983,124.61
		c-0.123-1.742,0.536-2.423,2.418-2.354c3.556,0.131,7.123-0.032,10.686-0.073c2.507,0.667,2.427-0.987,2.305-2.612
		c-0.131-1.76,0.053-3.766-2.628-3.787c-2.931-0.024-5.865-0.008-8.793-0.134c-2.526-0.108-4.46-0.966-4.032-4.075
		c-0.258-2.452,0.809-3.213,3.258-3.089c3.803,0.191,7.626-0.005,11.44-0.038c2.196,0.599,2.7-0.505,2.514-2.423
		c-0.179-1.847-0.284-3.553-2.894-3.521c-6.23,0.075-12.467,0.162-18.689-0.062c-3.15-0.114-3.997,1.325-3.993,4.05
		c0.012,7.502-0.045,15.004-0.031,22.506c0.002,1.173-0.353,2.811,1.84,2.351c1.463,0.009,2.925,0.017,4.388,0.026
		c1.657,0.473,2.368-0.194,2.309-1.869C139.025,127.875,139.014,126.242,138.983,124.61z M164.686,107.251
		c2.298-0.046,4.251-0.666,4.236-3.312c-0.014-2.405-1.857-3.188-3.936-3.209c-2.221-0.023-4.203,0.712-4.189,3.34
		C160.81,106.479,162.648,107.135,164.686,107.251z"/>
	<path fill="#0A0A0C" d="M74.682,103.944c0.395-4.262,3.697-2.233,5.838-2.679c2.153-0.448,2.951,0.713,2.985,2.677
		c0.184,0.272,0.367,0.545,0.551,0.817c0,0,0.002,0.007,0.002,0.007c-0.029,2.791,0.857,5.379,1.746,8.41
		c1.602-2.867,2.243-5.528,2.057-8.4c0.12-0.175,0.17-0.369,0.15-0.581c0.462-0.208,0.571-0.552,0.387-1.008
		c1.29-2.46,6.562-2.798,9.271-0.595c-0.473,0.865-1.107,1.579-1.341,2.645c-1.691,7.682-3.655,15.308-5.199,23.018
		c-0.64,3.197-2.459,3.694-5.144,3.7c-2.815,0.006-4.028-1.227-4.457-4.021c-0.434-2.829-0.841-5.777-2.675-8.886
		c-0.839,3.31-1.804,5.973-2.13,8.711c-0.357,3.002-1.675,4.162-4.656,4.226c-3.199,0.068-4.361-1.424-5.012-4.367
		c-1.64-7.423-3.602-14.774-5.435-22.154c-0.062-0.708-0.124-1.417-0.186-2.125c-0.107-0.307-0.215-0.614-0.322-0.92
		c3.23-2.366,7.965-1.566,9.22,1.558c-0.191,2.646,0.821,5.052,1.253,7.985C74.568,109.655,73.982,106.557,74.682,103.944z"/>
	<path fill="#ACACAC" d="M61.619,105.462c1.833,7.38,3.795,14.731,5.435,22.154c0.65,2.943,1.812,4.436,5.012,4.367
		c2.981-0.064,4.3-1.224,4.656-4.226c0.325-2.738,1.291-5.401,2.13-8.711c1.833,3.109,2.241,6.057,2.675,8.886
		c0.429,2.794,1.642,4.028,4.457,4.021c2.685-0.006,4.504-0.502,5.144-3.7c1.544-7.71,3.508-15.336,5.199-23.018
		c0.235-1.066,0.868-1.78,1.341-2.645c0.66-0.045,1.321-0.09,1.982-0.134c1.914,6.459,4.642,7.336,9.545,3.068
		c1.785,1.654,0.957,2.837-0.698,3.872c-2.528,0-5.055,0-7.582-0.001c-2.232-0.871-3.36-0.296-3.921,2.237
		c-1.344,6.07-3.07,12.054-4.496,18.108c-0.71,3.015-2.077,5.283-5.388,5.502c-2.993,0.198-5.562-0.605-6.489-3.99
		c-0.188-0.688-0.47-1.611-1.411-1.561c-0.863,0.046-1.185,0.892-1.454,1.593c-1.182,3.076-3.584,4.157-6.65,3.986
		c-3.474-0.194-4.595-2.729-5.277-5.611c-1.667-7.044-3.342-14.085-4.982-21.135C60.588,107.413,59.546,106.02,61.619,105.462z"/>
	<path fill="#0A0A0C" d="M100.914,109.397c2.527,0,5.055,0,7.582,0.001c0.098,1.489,0.196,2.978,0.294,4.467
		c-0.068,4.84-0.302,9.686-0.141,14.518c0.098,2.947-1.546,3.476-3.771,3.48c-2.275,0.004-4.256-0.231-4.146-3.493
		c0.163-4.831-0.082-9.677-0.153-14.516C100.691,112.368,100.803,110.882,100.914,109.397z"/>
	<path fill="#ACACAC" d="M100.58,113.853c0.071,4.839,0.316,9.685,0.153,14.516c-0.11,3.262,1.871,3.497,4.146,3.493
		c2.225-0.004,3.869-0.533,3.771-3.48c-0.161-4.832,0.073-9.678,0.141-14.518c0.718,0.138,1.164,0.622,1.168,1.299
		c0.03,5.341,0.188,10.691-0.055,16.022c-0.129,2.826-2.206,4.128-5.001,4.189c-2.736,0.06-5.134-0.972-5.299-3.806
		c-0.325-5.57-0.107-11.173-0.041-16.761C99.567,114.484,100.226,114.17,100.58,113.853z"/>
	<path fill="#0A0A0C" d="M109.195,105.526c-4.903,4.268-7.631,3.391-9.545-3.068c1.087-1.117,2.196-2.14,3.797-2.561
		C107.343,98.87,109.465,100.912,109.195,105.526z"/>
	<path fill="#ACACAC" d="M74.682,103.944c-0.7,2.613-0.113,5.712-3.098,8.017c-0.431-2.933-1.443-5.339-1.253-7.985
		C71.788,104.846,73.238,104.87,74.682,103.944z"/>
	<path fill="#ACACAC" d="M87.86,104.775c0.186,2.873-0.455,5.534-2.057,8.4c-0.889-3.031-1.774-5.619-1.746-8.41
		C85.325,104.769,86.593,104.772,87.86,104.775z"/>
	<path fill="#ACACAC" d="M146.106,91.634c-2.33,0.296-4.659,0.311-6.988-0.008C141.448,90.879,143.777,90.865,146.106,91.634z"/>
	<path fill="#ACACAC" d="M88.397,103.186c0.185,0.456,0.076,0.8-0.387,1.008C87.79,103.725,87.94,103.397,88.397,103.186z"/>
	<path fill="#ACACAC" d="M84.056,104.759c-0.184-0.272-0.367-0.545-0.551-0.817C83.974,104.022,84.197,104.268,84.056,104.759z"/>
	<path fill="#ACACAC" d="M61.111,102.417c0.107,0.307,0.215,0.613,0.322,0.92C60.979,103.152,60.924,102.827,61.111,102.417z"/>
	<path fill="#F6F6F7" d="M152.087,122.183c-3.563,0.041-7.13,0.204-10.686,0.073c-1.882-0.069-2.541,0.612-2.418,2.354
		c-2.462,1.691-1.561,4.481-2.21,6.764c-1.463-0.009-2.925-0.017-4.388-0.026c-0.066-7.469-0.118-14.938-0.208-22.407
		c-0.026-2.114,0.709-3.4,3.041-3.389c5.319,0.025,10.639-0.005,15.958,0.017c1.886,0.008,2.844,0.891,2.462,2.879
		c-3.814,0.032-7.637,0.229-11.44,0.038c-2.449-0.123-3.516,0.637-3.258,3.09c-2.545,3.735-1.208,7.233,3.006,7.587
		c2.408,0.202,4.844,0.09,7.268,0.08C151.212,119.234,152.448,119.915,152.087,122.183z"/>
	<path fill="#ACACAC" d="M153.638,108.448c0.382-1.988-0.577-2.871-2.462-2.879c-5.319-0.022-10.639,0.008-15.958-0.017
		c-2.332-0.011-3.067,1.276-3.041,3.389c0.091,7.469,0.142,14.938,0.208,22.407c-2.193,0.46-1.837-1.178-1.84-2.351
		c-0.014-7.502,0.043-15.004,0.031-22.506c-0.004-2.725,0.843-4.163,3.993-4.05c6.223,0.224,12.46,0.137,18.689,0.062
		c2.61-0.031,2.715,1.674,2.894,3.521C156.339,107.943,155.834,109.047,153.638,108.448z"/>
	<path fill="#F6F6F7" d="M167.47,130.793c-0.445,0.056-0.891,0.112-1.337,0.168c-0.876-0.379-1.752-0.38-2.629,0
		c-0.445-0.056-0.89-0.112-1.335-0.168c0.026-4.446,0.073-8.893,0.07-13.339c-0.001-1.927,0.345-3.927,2.581-3.927
		c2.238,0,2.581,2.001,2.58,3.927C167.397,121.9,167.444,126.347,167.47,130.793z"/>
	<path fill="#ACACAC" d="M167.47,130.793c-0.027-4.446-0.073-8.893-0.07-13.339c0.001-1.926-0.341-3.928-2.58-3.927
		c-2.236,0-2.582,2-2.581,3.927c0.003,4.446-0.044,8.893-0.07,13.339c-0.903,0.091-1.034-0.528-1.026-1.187
		c0.075-5.968-0.208-11.935,0.268-17.906c0.189-2.364,1.62-2.26,3.135-2.143c1.455,0.112,3.412-0.788,3.732,1.926
		c0.733,6.213,0.38,12.43,0.307,18.647C168.578,130.737,168.022,130.87,167.47,130.793z"/>
	<path fill="#ACACAC" d="M152.087,122.183c0.361-2.269-0.874-2.95-2.873-2.942c-2.423,0.01-4.86,0.123-7.268-0.08
		c-4.214-0.354-5.551-3.852-3.006-7.587c-0.428,3.109,1.506,3.966,4.032,4.075c2.927,0.126,5.861,0.11,8.793,0.134
		c2.681,0.022,2.496,2.027,2.628,3.787C154.513,121.197,154.594,122.85,152.087,122.183z"/>
	<path fill="#ACACAC" d="M164.686,107.251c-2.039-0.116-3.877-0.772-3.889-3.181c-0.013-2.628,1.969-3.363,4.189-3.34
		c2.079,0.022,3.922,0.804,3.936,3.209C168.938,106.585,166.984,107.205,164.686,107.251z"/>
	<path fill="#ACACAC" d="M136.773,131.375c0.649-2.283-0.252-5.073,2.21-6.764c0.031,1.632,0.042,3.264,0.099,4.895
		C139.141,131.18,138.43,131.848,136.773,131.375z"/>
	<path fill="#ACACAC" d="M163.505,130.961c0.876-0.38,1.752-0.379,2.629,0C165.258,131.501,164.381,131.501,163.505,130.961z"/>
</g>
</svg>
