<?xml version="1.0" encoding="utf-8"?>
<!-- Generator: Adobe Illustrator 17.0.0, SVG Export Plug-In . SVG Version: 6.00 Build 0)  -->
<!DOCTYPE svg PUBLIC "-//W3C//DTD SVG 1.1//EN" "http://www.w3.org/Graphics/SVG/1.1/DTD/svg11.dtd">
<svg version="1.1" id="Capa_1" xmlns="http://www.w3.org/2000/svg" xmlns:xlink="http://www.w3.org/1999/xlink" x="0px" y="0px"
	 width="232.951px" height="232.951px" viewBox="0 0 232.951 232.951" enable-background="new 0 0 232.951 232.951"
	 xml:space="preserve">
<path fill="#ECECEC" d="M232.951,222.952c0,5.038-4.084,9.123-9.123,9.123H9.123c-5.038,0-9.123-4.084-9.123-9.123V8.247
	c0-5.038,4.084-9.123,9.123-9.123h214.705c5.038,0,9.123,4.084,9.123,9.123V222.952z"/>
<g>
	<g>
		<path fill="#309CD2" stroke="#309CD2" stroke-width="4" stroke-miterlimit="10" d="M187.667,71.324
			c-0.12,2.976-3.161,4.471-5.87,2.676c-1.928-1.277-3.548-3.012-5.357-4.478C138.945,39.157,92.9,39.752,55.447,71
			c-2.317,1.933-4.837,6.3-8.193,2.522c-3.582-4.033,1.178-6.087,3.59-8.133c19.454-16.499,41.732-26.013,67.492-25.591
			c25.919,0.424,48.024,10.7,67.179,27.791C186.633,68.585,187.796,69.592,187.667,71.324z"/>
		<path fill="#309CD2" stroke="#309CD2" stroke-width="4" stroke-miterlimit="10" d="M167.51,91.329
			c-0.111,3.111-3.055,4.843-5.44,3.441c-1.695-0.997-3.118-2.464-4.639-3.749C131.554,69.17,97.997,69.385,72.43,91.463
			c-2.261,1.953-4.716,6.37-8.158,2.624c-3.709-4.037,1.098-6.132,3.455-8.175c29.074-25.213,68.28-24.56,96.824,1.485
			C165.91,88.636,167.284,89.821,167.51,91.329z"/>
		<path fill="#309CD2" stroke="#309CD2" stroke-width="4" stroke-miterlimit="10" d="M115.474,95.563
			c14.479,0.373,26.168,6.654,36.115,16.708c1.706,1.724,2.543,3.71,0.63,5.672c-2.108,2.162-4.153,1.234-6.029-0.635
			c-7.218-7.188-15.468-12.434-25.809-13.865c-12.838-1.777-23.367,3.087-32.802,11.195c-1.133,0.973-2.168,2.06-3.248,3.094
			c-1.844,1.765-3.823,2.058-5.666,0.154c-1.746-1.803-1.153-3.691,0.408-5.291C89.072,102.346,100.865,95.921,115.474,95.563z"/>
		<path fill="#309CD2" stroke="#309CD2" stroke-width="4" stroke-miterlimit="10" d="M128.757,135.408
			c0.025,7.44-5.524,13.345-12.501,13.304c-6.882-0.041-12.63-6.208-12.52-13.432c0.108-7.107,5.643-12.925,12.393-13.026
			C123.152,122.148,128.732,127.96,128.757,135.408z"/>
	</g>
	<polygon fill="#309CD2" stroke="#309CD2" stroke-width="4" stroke-miterlimit="10" points="111.453,146.493 98.678,197.166 
		134.507,197.166 121.505,146.493 	"/>
</g>
</svg>
